SplineFontDB: 3.2
FontName: AtkinsonHyperPro-Regular
FullName: Atkinson Hyperlegible Pro Regular
FamilyName: Atkinson Hyperlegible Pro
Weight: Regular
Copyright: Copyright 2020 Braille Institute of America, Inc.
UComments: "Update by Jacob Perez+AAoA-https://jacobxperez.github.io/atkinson-hyperlegible-pro/"
Version: 1.3.2
ItalicAngle: 0
UnderlinePosition: -106
UnderlineWidth: 57
Ascent: 800
Descent: 200
InvalidEm: 0
sfntRevision: 0x00010000
LayerCount: 2
Layer: 0 0 "Back" 1
Layer: 1 0 "Fore" 0
XUID: [1021 466 782043844 18134]
StyleMap: 0x0040
FSType: 0
OS2Version: 4
OS2_WeightWidthSlopeOnly: 0
OS2_UseTypoMetrics: 1
CreationTime: 1615339189
ModificationTime: 1697825613
PfmFamily: 81
TTFWeight: 400
TTFWidth: 5
LineGap: 0
VLineGap: 0
Panose: 0 0 0 0 0 0 0 0 0 0
OS2TypoAscent: 950
OS2TypoAOffset: 0
OS2TypoDescent: -290
OS2TypoDOffset: 0
OS2TypoLinegap: 0
OS2WinAscent: 950
OS2WinAOffset: 0
OS2WinDescent: 290
OS2WinDOffset: 0
HheadAscent: 950
HheadAOffset: 0
HheadDescent: -290
HheadDOffset: 0
OS2SubXSize: 650
OS2SubYSize: 699
OS2SubXOff: 0
OS2SubYOff: 140
OS2SupXSize: 650
OS2SupYSize: 699
OS2SupXOff: 0
OS2SupYOff: 479
OS2StrikeYSize: 49
OS2StrikeYPos: 258
OS2CapHeight: 668
OS2XHeight: 496
OS2Vendor: 'NONE'
OS2CodePages: 20000003.00000000
OS2UnicodeRanges: 800000ef.0000204b.00000000.00000000
Lookup: 4 0 1 "'liga' Standard Ligatures lookup 0" { "'liga' Standard Ligatures lookup 0-1"  } ['liga' ('DFLT' <'dflt' > 'grek' <'dflt' > 'latn' <'MOL ' 'dflt' > ) ]
Lookup: 1 0 0 "'zero' Slashed Zero lookup 0" { "'zero' Slashed Zero lookup 0-1"  } ['zero' ('DFLT' <'dflt' > 'grek' <'dflt' > 'latn' <'MOL ' 'dflt' > ) ]
Lookup: 1 0 0 "'aalt' Access All Alternates lookup 0" { "'aalt' Access All Alternates lookup 0 subtable"  } ['aalt' ('DFLT' <'dflt' > 'grek' <'dflt' > 'latn' <'dflt' > ) ]
Lookup: 3 0 0 "'aalt' Access All Alternates lookup 1" { "'aalt' Access All Alternates lookup 1 subtable"  } ['aalt' ('DFLT' <'dflt' > 'grek' <'dflt' > 'latn' <'dflt' > ) ]

StartChar: .notdef
Encoding: 256 -1 0
Width: 523
GlyphClass: 1
Flags: W
HStem: 0 21<77 447> 680 20<76 447>
VStem: 48 21<49 650> 455 20<47 652>
DStem2: 76 680 69 650 0.513698 -0.857971<22.1432 360.147 396.696 737.787> 69 49 77 21 0.513896 0.857853<0 339.381 374.897 715.649>
LayerCount: 2
Fore
SplineSet
77 21 m 1
 447 21 l 1
 262 329 l 1
 77 21 l 1
69 49 m 1
 249 350 l 1
 69 650 l 1
 69 49 l 1
455 47 m 1
 455 652 l 1
 274 350 l 1
 455 47 l 1
261 371 m 1
 447 680 l 1
 76 680 l 1
 261 371 l 1
48 0 m 1
 48 700 l 1
 475 700 l 1
 475 0 l 1
 48 0 l 1
EndSplineSet
EndChar

StartChar: zero
Encoding: 48 48 5
Width: 648
GlyphClass: 1
Flags: W
HStem: -12 74<241.771 405.736> 606 74<241.791 406.309>
VStem: 60 91<179.052 483.757> 497 91<192.862 490.056>
DStem2: 217 566 171 486 0.571572 -0.820552<39.3519 458.851>
LayerCount: 2
Fore
SplineSet
151 335 m 0
 151 154.913324018 209.879139396 62 324 62 c 0
 370 62 407 77 435 107 c 1
 171 486 l 1
 157.736799163 444.884077405 151 394.021243727 151 335 c 0
497 335 m 0
 497 514.357621698 438.49766994 606 324 606 c 0
 280.666666666 606 245 592.666666667 217 566 c 1
 480 190 l 1
 491.333333333 230.000000002 497 278.333333336 497 335 c 0
588 335 m 0
 588 109.582912308 495.498879397 -12 324 -12 c 0
 152.501120603 -12 60 109.582912308 60 335 c 0
 60 559.09799525 152.516316678 680 324 680 c 0
 495.483683322 680 588 559.09799525 588 335 c 0
EndSplineSet
Substitution2: "'zero' Slashed Zero lookup 0-1" zero.alt1
Substitution2: "'tnum' Tabular Numbers lookup 14 subtable" zero.tf
Substitution2: "'aalt' Access All Alternates lookup 0 subtable" zero.alt1
EndChar

StartChar: one
Encoding: 49 49 6
Width: 402
GlyphClass: 1
Flags: W
HStem: 0 21G<220 304> 504 67<42 179.087> 648 20G<236.233 304>
VStem: 220 84<0 504> 248 56<628.501 668>
LayerCount: 2
Fore
SplineSet
42 571 m 1xf0
 164.830028855 571 224.466820092 599.081401699 248 668 c 1
 304 668 l 1xe8
 304 0 l 1
 220 0 l 1
 220 504 l 1
 42 504 l 1
 42 571 l 1xf0
EndSplineSet
Substitution2: "'tnum' Tabular Numbers lookup 14 subtable" one.tf
Substitution2: "'sups' Superscript lookup 9 subtable" uni00B9
AlternateSubs2: "'aalt' Access All Alternates lookup 1 subtable" uni00B9 one.tf
EndChar

StartChar: two
Encoding: 50 50 7
Width: 549
GlyphClass: 1
Flags: W
HStem: 0 77<147 515> 498 21G<73 149.998> 610 70<202.873 362.049>
VStem: 59 84<520 552.927> 408 89<411.917 564.741>
LayerCount: 2
Fore
SplineSet
497 505 m 0
 497 378.74563578 402.42790449 263.09747327 147 77 c 1
 515 77 l 1
 515 0 l 1
 34 0 l 1
 34 75 l 1
 305.604543857 275.250807758 408 389.966572796 408 494 c 0
 408 565.522490326 360.071649058 610 283 610 c 0
 208.063907042 610 156.995846155 569.145551291 143 498 c 1
 59 522 l 1
 83.3191965176 620.627852545 168.243913763 680 285 680 c 0
 414.475502946 680 497 611.878363281 497 505 c 0
EndSplineSet
Substitution2: "'tnum' Tabular Numbers lookup 14 subtable" two.tf
Substitution2: "'sups' Superscript lookup 9 subtable" uni00B2
AlternateSubs2: "'aalt' Access All Alternates lookup 1 subtable" uni00B2 two.tf
EndChar

StartChar: three
Encoding: 51 51 8
Width: 574
GlyphClass: 1
Flags: W
HStem: -12 70<188.398 362.319> 314 76<218 352.715> 498 21G<65.6667 141.139> 610 70<193.38 360.494>
VStem: 42 83<122.711 153.024> 52 82<519.951 548.908> 407 88<437.119 566.342> 424 90<114.538 257.094>
LayerCount: 2
Fore
SplineSet
514 188 m 0xf1
 514 67.4680438107 417.843666989 -12 272 -12 c 0
 151.810389409 -12 70.0070143336 45.9736962492 42 151 c 1
 125 175 l 1
 140.965119126 99.5285277711 193.496932033 58 273 58 c 0
 365.896701385 58 424 107.63791736 424 187 c 0xf9
 424 274.239817498 359.507105547 314 218 314 c 1
 218 390 l 1
 349.507825901 390 407 423.765245106 407 501 c 0
 407 567.172345233 355.921145691 610 277 610 c 0
 200.130440185 610 148.277596516 569.387982581 134 498 c 1
 52 522 l 1
 77.2461117655 621.581885297 161.175934788 680 279 680 c 0
 416.88477648 680 495 618.520425934 495 510 c 0xf6
 495 440.203123275 455.316925707 383.773063501 386 355 c 1
 472.181363589 328.571048499 514 274.010796307 514 188 c 0xf1
EndSplineSet
Substitution2: "'tnum' Tabular Numbers lookup 14 subtable" three.tf
Substitution2: "'sups' Superscript lookup 9 subtable" uni00B3
AlternateSubs2: "'aalt' Access All Alternates lookup 1 subtable" uni00B3 three.tf
EndChar

StartChar: four
Encoding: 52 52 9
Width: 614
GlyphClass: 1
Flags: W
HStem: 0 21G<370 454> 165 79<129 370 454 576> 648 20G<353.387 454>
VStem: 370 84<0 165 244 553>
DStem2: 38 244 129 244 0.615355 0.78825<55.9973 447.867>
LayerCount: 2
Fore
SplineSet
129 244 m 1
 370 244 l 1
 370 553 l 1
 129 244 l 1
370 0 m 1
 370 165 l 1
 38 165 l 1
 38 244 l 1
 369 668 l 1
 454 668 l 1
 454 244 l 1
 576 244 l 1
 576 165 l 1
 454 165 l 1
 454 0 l 1
 370 0 l 1
EndSplineSet
Substitution2: "'tnum' Tabular Numbers lookup 14 subtable" four.tf
Substitution2: "'sups' Superscript lookup 9 subtable" uni2074
AlternateSubs2: "'aalt' Access All Alternates lookup 1 subtable" four.tf uni2074
EndChar

StartChar: five
Encoding: 53 53 10
Width: 583
GlyphClass: 1
Flags: W
HStem: -12 70<197.69 360.943> 378 72<201.927 364.316> 587 81<181 496>
VStem: 54 82<122.455 153.049> 433 88<131.891 307.871>
DStem2: 72 328 158 400 0.119721 0.992808<0 14.6171 81.7781 270.187>
LayerCount: 2
Fore
SplineSet
521 220 m 0
 521 82.0527311608 424.920270323 -12 284 -12 c 0
 164.900637323 -12 84.6611043023 44.8654081842 54 151 c 1
 136 175 l 1
 153.050770027 96.8506373738 202.195166021 58 284 58 c 0
 371.748243189 58 433 124.184784205 433 219 c 0
 433 314.083161994 372.701096221 378 283 378 c 0
 225.431815793 378 173.436126888 348.173015667 154 304 c 1
 72 328 l 1
 113 668 l 1
 496 668 l 1
 496 587 l 1
 181 587 l 1
 158 400 l 1
 190.029592032 432.029592032 241.78436698 450 302 450 c 0
 431.013977147 450 521 355.49413125 521 220 c 0
EndSplineSet
Substitution2: "'tnum' Tabular Numbers lookup 14 subtable" five.tf
Substitution2: "'aalt' Access All Alternates lookup 0 subtable" five.tf
EndChar

StartChar: six
Encoding: 54 54 11
Width: 598
GlyphClass: 1
Flags: W
HStem: -12 71<225.466 381.045> 371 74<224.148 380.184> 610 70<239.399 387.132>
VStem: 60 87<352 475.112> 448 90<126.737 303.34>
LayerCount: 2
Fore
SplineSet
157 215 m 0
 157 120.713271284 214.757292355 59 303 59 c 0
 390.290653743 59 448 121.087296662 448 215 c 0
 448 308.912703337 390.290653743 371 303 371 c 0
 214.757292355 371 157 309.286728716 157 215 c 0
538 218 m 0
 538 85.0823993751 438.807113682 -12 303 -12 c 0
 142.049026402 -12 60 96.7234012407 60 310 c 0
 60 544.230425074 155.772592042 680 321 680 c 0
 408.993883331 680 475.076383661 642.389215238 509 573 c 1
 424 548 l 1
 403.380733457 587.863915316 363.035933952 610 311 610 c 0
 211.444579889 610 151.22224083 515.259978798 147 352 c 1
 182.816237632 412.731881202 243.882785036 445 323 445 c 0
 448.474599532 445 538 350.477832995 538 218 c 0
EndSplineSet
Substitution2: "'tnum' Tabular Numbers lookup 14 subtable" six.tf
Substitution2: "'aalt' Access All Alternates lookup 0 subtable" six.tf
EndChar

StartChar: seven
Encoding: 55 55 12
Width: 510
GlyphClass: 1
Flags: W
HStem: 0 21G<93 207.472> 587 81<15 383>
LayerCount: 2
Fore
SplineSet
93 0 m 1
 383 587 l 1
 15 587 l 1
 15 668 l 1
 476 668 l 1
 476 587 l 1
 198 0 l 1
 93 0 l 1
EndSplineSet
Substitution2: "'tnum' Tabular Numbers lookup 14 subtable" seven.tf
Substitution2: "'aalt' Access All Alternates lookup 0 subtable" seven.tf
EndChar

StartChar: eight
Encoding: 56 56 13
Width: 615
GlyphClass: 1
Flags: W
HStem: -12 74<212.049 402.608> 317 74<242.586 371.414> 606 74<243.738 370.522>
VStem: 60 91<119.695 258.808> 126 74<433.791 562.462> 414 75<433.791 562.55> 464 91<119.569 259.117>
LayerCount: 2
Fore
SplineSet
151 188 m 0xf2
 151 110.71155716 211.30954696 62 307 62 c 0
 403.648915744 62 464 110.434628129 464 188 c 0
 464 267.170359449 403.354623515 317 307 317 c 0
 211.602781279 317 151 266.886161635 151 188 c 0xf2
200 500 m 0xec
 200 438.865658737 246.987389769 391 307 391 c 0
 367.012610231 391 414 438.865658737 414 500 c 0
 414 558.977180182 366.533568674 606 307 606 c 0
 247.466431326 606 200 558.977180182 200 500 c 0xec
555 188 m 0xe2
 555 67.6238833307 456.26638467 -12 307 -12 c 0
 158.749202618 -12 60 67.9588685166 60 188 c 0xf2
 60 270.056296102 104.638785555 334.655514222 183 366 c 1
 146.118390193 401.463086354 126 448.405996804 126 499 c 0
 126 599.165977086 206.834022914 680 307 680 c 0
 408.160638844 680 489 599.604811158 489 499 c 0xec
 489 448.405996804 468.881609807 401.463086353 432 366 c 1
 510.69672083 335.083431102 555 270.969742547 555 188 c 0xe2
EndSplineSet
Substitution2: "'tnum' Tabular Numbers lookup 14 subtable" eight.tf
Substitution2: "'aalt' Access All Alternates lookup 0 subtable" eight.tf
EndChar

StartChar: nine
Encoding: 57 57 14
Width: 598
GlyphClass: 1
Flags: W
HStem: 0 21G<213 329.667> 201 86<222.667 349.923> 594 85<220.605 376.641>
VStem: 60 86<364.258 519.234> 454 84<364.814 517.305>
DStem2: 226.5 19 317 0 0.557474 0.830195<34.6777 226.04>
LayerCount: 2
Fore
SplineSet
146 441 m 0
 146 355.927830743 214.480247426 287 299 287 c 0
 384.381917851 287 454 356.168933232 454 441 c 0
 454 525.956579948 385.067123476 594 299 594 c 0
 213.801947455 594 146 526.198052545 146 441 c 0
299 679 m 0
 434.279362767 679 538 574.845385205 538 439 c 0
 538 373.463630904 506.326445014 303.824467921 389.5 112.5 c 0
 366.500000006 74.8333333431 342.333333339 37.3333333431 317 0 c 1
 213 0 l 1
 226.5 19 l 2
 274.131601005 86.0370680807 316.346809282 149.275786456 352 207 c 1
 335.333333333 203 317.666666667 201 299 201 c 0
 167.403161739 201 60 308.852547353 60 441 c 0
 60 573.704626274 165.737791263 679 299 679 c 0
EndSplineSet
Substitution2: "'tnum' Tabular Numbers lookup 14 subtable" nine.tf
Substitution2: "'aalt' Access All Alternates lookup 0 subtable" nine.tf
EndChar

StartChar: A
Encoding: 65 65 15
Width: 626
GlyphClass: 2
Flags: W
HStem: 0 21G<10 116.986 509.014 616> 146 81<190 436> 574 95<261 366>
DStem2: 10 0 110 0 0.351277 0.936272<35.1277 189.738 275.763 643.857> 366 669 313 574 0.350049 -0.936731<70.4369 438.539 524.565 679.181>
AnchorPoint: "Anchor-2" 615 0 basechar 0
AnchorPoint: "Anchor-1" 313 0 basechar 0
AnchorPoint: "Anchor-0" 313 668 basechar 0
LayerCount: 2
Fore
SplineSet
190 227 m 1
 436 227 l 1
 313 574 l 1
 190 227 l 1
10 0 m 1
 261 669 l 1
 366 669 l 1
 616 0 l 1
 516 0 l 1
 465 146 l 1
 161 146 l 1
 110 0 l 1
 10 0 l 1
EndSplineSet
Substitution2: "Single Substitution lookup 12 subtable" ordfeminine
Substitution2: "'aalt' Access All Alternates lookup 0 subtable" ordfeminine
EndChar

StartChar: B
Encoding: 66 66 16
Width: 619
GlyphClass: 1
Flags: W
HStem: 0 79<170 434.519> 308 74<170 418.857> 589 79<170 416.112>
VStem: 76 94<79 308 382 589> 457 95<419.523 550.519> 484 97<126.073 263.746>
AnchorPoint: "Anchor-0" 290 668 basechar 0
LayerCount: 2
Fore
SplineSet
484 195 m 0xf4
 484 261.887662743 437.479588962 308 370 308 c 2
 170 308 l 1
 170 79 l 1
 371 79 l 2
 436.329592379 79 484 127.935993664 484 195 c 0xf4
457 484 m 0xf8
 457 545.081650437 414.336460425 589 355 589 c 2
 170 589 l 1
 170 382 l 1
 355 382 l 2
 415.10420437 382 457 423.89579563 457 484 c 0xf8
581 192 m 0xf4
 581 79.2896249506 490.147304744 0 361 0 c 2
 76 0 l 1
 76 668 l 1
 345 668 l 2
 471.522410512 668 552 603.462416159 552 502 c 0xf8
 552 446.865886432 526.211317484 392.709653148 482 355 c 1
 544.093784975 322.711231812 581 261.946453538 581 192 c 0xf4
EndSplineSet
EndChar

StartChar: C
Encoding: 67 67 17
Width: 656
GlyphClass: 2
Flags: W
HStem: -12 79<268.837 455.715> 499 21G<516.03 586.667> 601 79<267.145 453.105>
VStem: 50 96<207.043 461.973>
AnchorPoint: "Anchor-1" 348 0 basechar 0
AnchorPoint: "Anchor-0" 353 668 basechar 0
LayerCount: 2
Fore
SplineSet
618 139 m 1
 571.105381875 42.6055071888 475.274524888 -12 353 -12 c 0
 168.530901207 -12 50 123.743309303 50 335 c 0
 50 543.813848349 172.76490772 680 361 680 c 0
 476.291088866 680 569.612714643 624.302112679 614 529 c 1
 532 499 l 1
 500.060894517 564.329988487 436.787149161 601 356 601 c 0
 227.638219164 601 146 497.591589059 146 335 c 0
 146 171.680594139 229.197636387 67 359 67 c 0
 440.490153237 67 503.015890356 103.031780713 536 169 c 1
 618 139 l 1
EndSplineSet
EndChar

StartChar: D
Encoding: 68 68 18
Width: 673
GlyphClass: 2
Flags: W
HStem: 0 79<170 398.755> 589 79<170 398.626>
VStem: 76 94<79 589> 527 96<201.678 467.33>
AnchorPoint: "Anchor-1" 337 0 basechar 0
AnchorPoint: "Anchor-0" 327 668 basechar 0
LayerCount: 2
Fore
SplineSet
527 335 m 0
 527 516.263163648 449.394950191 589 256 589 c 2
 170 589 l 1
 170 79 l 1
 256 79 l 2
 449.687739872 79 527 152.032983737 527 335 c 0
623 335 m 0
 623 108.524047454 504.757381133 0 258 0 c 2
 76 0 l 1
 76 668 l 1
 258 668 l 2
 504.695800126 668 623 560.067675183 623 335 c 0
EndSplineSet
EndChar

StartChar: E
Encoding: 69 69 19
Width: 567
GlyphClass: 2
Flags: W
HStem: 0 81<170 529> 303 81<170 435> 587 81<170 529>
VStem: 76 94<81 303 384 587>
AnchorPoint: "Anchor-2" 506 0 basechar 0
AnchorPoint: "Anchor-1" 284 0 basechar 0
AnchorPoint: "Anchor-0" 304 668 basechar 0
LayerCount: 2
Fore
SplineSet
76 0 m 1
 76 668 l 1
 529 668 l 1
 529 587 l 1
 170 587 l 1
 170 384 l 1
 435 384 l 1
 435 303 l 1
 170 303 l 1
 170 81 l 1
 529 81 l 1
 529 0 l 1
 76 0 l 1
EndSplineSet
EndChar

StartChar: F
Encoding: 70 70 20
Width: 548
GlyphClass: 1
Flags: W
HStem: 0 21G<76 170> 303 81<170 510> 587 81<170 510>
VStem: 76 94<0 303 384 587>
AnchorPoint: "Anchor-0" 305 668 basechar 0
LayerCount: 2
Fore
SplineSet
76 0 m 1
 76 668 l 1
 510 668 l 1
 510 587 l 1
 170 587 l 1
 170 384 l 1
 510 384 l 1
 510 303 l 1
 170 303 l 1
 170 0 l 1
 76 0 l 1
EndSplineSet
EndChar

StartChar: G
Encoding: 71 71 21
Width: 710
GlyphClass: 2
Flags: W
HStem: -12 79<263.577 461.926> 0 21G<582.048 642> 264 81<358 553> 499 21G<516.03 587.333> 601 79<267.145 452.999>
VStem: 50 96<206.681 461.973> 553 89<152.259 264> 588 54<0 23.52>
AnchorPoint: "Anchor-1" 355 0 basechar 0
AnchorPoint: "Anchor-0" 359 668 basechar 0
LayerCount: 2
Fore
SplineSet
563 84 m 1x7d
 523.43113271 20.9371177574 451.038092639 -12 352 -12 c 0
 167.107274025 -12 50 122.5570334 50 335 c 0
 50 543.813848349 172.76490772 680 361 680 c 0
 475.922628141 680 569.185253848 624.556470545 615 529 c 1
 532 499 l 1
 500.060894517 564.329988487 436.787149161 601 356 601 c 0
 227.638219164 601 146 497.591589059 146 335 c 0
 146 171.114905164 227.582574942 67 356 67 c 0
 480.868834716 67 553 131.075908247 553 242 c 2
 553 264 l 1xbe
 358 264 l 1
 358 345 l 1
 642 345 l 1
 642 0 l 1
 588 0 l 1
 563 84 l 1x7d
EndSplineSet
EndChar

StartChar: H
Encoding: 72 72 22
Width: 690
GlyphClass: 2
Flags: W
HStem: 0 21G<76 170 520 614> 303 81<170 520> 648 20G<76 170 520 614>
VStem: 76 94<0 303 384 668> 520 94<0 303 384 668>
AnchorPoint: "Anchor-1" 345 0 basechar 0
AnchorPoint: "Anchor-0" 345 668 basechar 0
LayerCount: 2
Fore
SplineSet
76 0 m 1
 76 668 l 1
 170 668 l 1
 170 384 l 1
 520 384 l 1
 520 668 l 1
 614 668 l 1
 614 0 l 1
 520 0 l 1
 520 303 l 1
 170 303 l 1
 170 0 l 1
 76 0 l 1
EndSplineSet
EndChar

StartChar: I
Encoding: 73 73 23
Width: 414
GlyphClass: 2
Flags: W
HStem: 0 74<66 160 254 348> 594 74<66 160 254 348>
VStem: 160 94<74 594>
AnchorPoint: "Anchor-2" 273 0 basechar 0
AnchorPoint: "Anchor-1" 207 0 basechar 0
AnchorPoint: "Anchor-0" 207 668 basechar 0
LayerCount: 2
Fore
SplineSet
66 0 m 1
 66 74 l 1
 160 74 l 1
 160 594 l 1
 66 594 l 1
 66 668 l 1
 348 668 l 1
 348 594 l 1
 254 594 l 1
 254 74 l 1
 348 74 l 1
 348 0 l 1
 66 0 l 1
EndSplineSet
EndChar

StartChar: J
Encoding: 74 74 24
Width: 510
GlyphClass: 1
Flags: W
HStem: -12 77<155.418 293.574> 648 20G<340 434>
VStem: 15 87<122.086 189> 340 94<116.765 668>
AnchorPoint: "Anchor-0" 388 668 basechar 0
LayerCount: 2
Fore
SplineSet
434 212 m 2
 434 69.2197750987 357.856460845 -12 224 -12 c 0
 95.0831690653 -12 21.5122601201 58.754797598 15 189 c 1
 102 214 l 1
 99.6055333738 123.010268179 147.103873762 65 224 65 c 0
 299.909705041 65 340 116.149686671 340 213 c 2
 340 668 l 1
 434 668 l 1
 434 212 l 2
EndSplineSet
EndChar

StartChar: K
Encoding: 75 75 25
Width: 627
GlyphClass: 2
Flags: W
HStem: 0 21G<76 170 487.5 617> 648 20G<76 170 453.083 588>
VStem: 76 94<0 210 332 668> 471 117<551 668> 502 115<0 115>
DStem2: 170 332 270 320 0.674116 0.738625<0 58.5481 151.983 451.087> 333 389 270 320 0.589652 -0.807657<18.5803 413.83>
AnchorPoint: "Anchor-1" 314 0 basechar 0
AnchorPoint: "Anchor-0" 314 668 basechar 0
LayerCount: 2
Fore
SplineSet
76 0 m 1xe8
 76 668 l 1
 170 668 l 1
 170 332 l 1
 471 668 l 1
 588 668 l 1xf0
 333 389 l 1
 617 0 l 1
 502 0 l 1
 270 320 l 1
 170 210 l 1
 170 0 l 1
 76 0 l 1xe8
EndSplineSet
EndChar

StartChar: L
Encoding: 76 76 26
Width: 539
GlyphClass: 2
Flags: W
HStem: 0 81<170 529> 648 20G<76 170>
VStem: 76 94<81 668>
AnchorPoint: "Anchor-1" 305 0 basechar 0
AnchorPoint: "Anchor-0" 135 668 basechar 0
LayerCount: 2
Fore
SplineSet
76 0 m 1
 76 668 l 1
 170 668 l 1
 170 81 l 1
 529 81 l 1
 529 0 l 1
 76 0 l 1
EndSplineSet
EndChar

StartChar: M
Encoding: 77 77 27
Width: 820
GlyphClass: 1
Flags: W
HStem: 0 122<303 518> 648 20G<76 238.52 581.48 744>
VStem: 76 94<0 570> 650 94<0 570>
DStem2: 410 122 457 0 0.320711 0.947177<0 501.306>
AnchorPoint: "Anchor-0" 410 668 basechar 0
LayerCount: 2
Fore
SplineSet
76 0 m 1
 76 668 l 1
 232 668 l 1
 410 122 l 1
 588 668 l 1
 744 668 l 1
 744 0 l 1
 650 0 l 1
 650 570 l 1
 457 0 l 1
 364 0 l 1
 170 570 l 1
 170 0 l 1
 76 0 l 1
EndSplineSet
EndChar

StartChar: N
Encoding: 78 78 28
Width: 689
GlyphClass: 2
Flags: W
HStem: 0 21G<76 170 464.317 613> 648 20G<76 225.704 519 613>
VStem: 76 94<0 571> 519 94<100 668>
DStem2: 215 668 170 571 0.471149 -0.882053<64.3575 644.236>
AnchorPoint: "Anchor-1" 311 0 basechar 0
AnchorPoint: "Anchor-0" 362 668 basechar 0
LayerCount: 2
Fore
SplineSet
76 0 m 1
 76 668 l 1
 215 668 l 1
 519 100 l 1
 519 668 l 1
 613 668 l 1
 613 0 l 1
 475 0 l 1
 170 571 l 1
 170 0 l 1
 76 0 l 1
EndSplineSet
EndChar

StartChar: O
Encoding: 79 79 29
Width: 727
GlyphClass: 2
Flags: W
HStem: -12 79<270.515 456.008> 601 79<270.495 456.029>
VStem: 50 96<208.053 461.132> 581 96<207.85 461.334>
AnchorPoint: "Anchor-2" 654 10 basechar 0
AnchorPoint: "Anchor-1" 364 0 basechar 0
AnchorPoint: "Anchor-0" 364 668 basechar 0
LayerCount: 2
Fore
SplineSet
146 335 m 0
 146 173.159250728 231.957303761 67 363 67 c 0
 495.060132262 67 581 172.650846577 581 335 c 0
 581 496.482912912 495.343139153 601 363 601 c 0
 231.675083448 601 146 495.978929967 146 335 c 0
677 335 m 0
 677 126.70475004 551.486191607 -12 363 -12 c 0
 175.524711585 -12 50 127.15998377 50 335 c 0
 50 541.390933742 175.752573156 680 363 680 c 0
 551.257821474 680 677 541.843784741 677 335 c 0
EndSplineSet
Substitution2: "Single Substitution lookup 12 subtable" ordmasculine
Substitution2: "'aalt' Access All Alternates lookup 0 subtable" ordmasculine
EndChar

StartChar: P
Encoding: 80 80 30
Width: 601
GlyphClass: 1
Flags: W
HStem: 1 21G<76 170> 266 81<170 418.434> 589 79<170 416.71>
VStem: 76 94<1 266 347 589> 467 96<389.419 543.768>
AnchorPoint: "Anchor-0" 294 668 basechar 0
LayerCount: 2
Fore
SplineSet
467 466 m 0
 467 556.111267454 420.474475911 589 293 589 c 2
 170 589 l 1
 170 347 l 1
 293 347 l 2
 422.892864195 347 467 377.165225062 467 466 c 0
563 466 m 0
 563 323.691435828 482.808904199 266 285 266 c 2
 170 266 l 1
 170 1 l 1
 76 1 l 1
 76 668 l 1
 285 668 l 2
 482.035697893 668 563 609.169823649 563 466 c 0
EndSplineSet
EndChar

StartChar: Q
Encoding: 81 81 31
Width: 753
GlyphClass: 1
Flags: W
HStem: -12 79<270.515 458.77> 601 79<270.495 456.029>
VStem: 50 96<208.053 461.132> 581 96<208.22 461.334>
DStem2: 393 362 329 294 0.729032 -0.68448<0 227.798 331.804 493.692>
LayerCount: 2
Fore
SplineSet
146 335 m 0
 146 173.159250728 231.957303761 67 363 67 c 0
 421.666666667 67 470 86.6666666665 508 126 c 1
 329 294 l 1
 393 362 l 1
 559 206 l 1
 573.575142783 241.775350467 581 285.312013238 581 335 c 0
 581 496.482912912 495.343139153 601 363 601 c 0
 231.675083448 601 146 495.978929967 146 335 c 0
677 335 m 0
 677 261.001222682 660.99290131 194.248215379 630 139 c 1
 753 24 l 1
 689 -44 l 1
 572 65 l 1
 518.842880167 14.568886312 446.727331606 -12 363 -12 c 0
 175.524711585 -12 50 127.15998377 50 335 c 0
 50 541.390933742 175.752573156 680 363 680 c 0
 551.257821474 680 677 541.843784741 677 335 c 0
EndSplineSet
EndChar

StartChar: R
Encoding: 82 82 32
Width: 618
GlyphClass: 2
Flags: W
HStem: 0 21G<76 170 458.552 588> 281 79<170 270> 589 79<170 422.119>
VStem: 76 94<0 281 360 589> 470 96<400.858 546.192> 473 115<0 115>
DStem2: 381 288 270 281 0.583636 -0.812015<0 287.555>
AnchorPoint: "Anchor-1" 309 0 basechar 0
AnchorPoint: "Anchor-0" 303 668 basechar 0
LayerCount: 2
Fore
SplineSet
470 474 m 0xf8
 470 558.512014351 423.60523923 589 295 589 c 2
 170 589 l 1
 170 360 l 1
 295 360 l 2
 424.560375233 360 470 389.600669848 470 474 c 0xf8
566 476 m 0
 566 361.400344751 511.942515262 306.466252152 381 288 c 1
 588 0 l 1
 473 0 l 1xf4
 270 281 l 1
 170 281 l 1
 170 0 l 1
 76 0 l 1
 76 668 l 1
 288 668 l 2
 487.402421022 668 566 613.716779986 566 476 c 0
EndSplineSet
EndChar

StartChar: S
Encoding: 83 83 33
Width: 596
GlyphClass: 2
Flags: W
HStem: -12 79<201.951 393.737> 601 79<197.405 381.666>
VStem: 46 97<442.017 553.071> 457 99<122.38 241.096>
DStem2: 286 392 238 313 0.975916 -0.218146<-126.854 168.178>
AnchorPoint: "Anchor-1" 298 0 basechar 0
AnchorPoint: "Anchor-0" 298 668 basechar 0
LayerCount: 2
Fore
SplineSet
556 182 m 0
 556 70.9181857948 444.872534502 -12 296 -12 c 0
 170.688240319 -12 72.4578000486 48.6265998544 40 146 c 1
 127 172 l 1
 148.555357499 107.333927502 215.010304717 67 300 67 c 0
 393.781936864 67 457 114.91687588 457 186 c 0
 457 240.03559885 421.387256372 268.738407147 323 294 c 2
 238 313 l 1
 101.027136268 348.732051408 46 402.612789004 46 501 c 0
 46 603.679668543 150.460788866 680 291 680 c 0
 397.084129092 680 485.117965057 632.567976312 523 555 c 1
 437 530 l 1
 413.547836197 573.201354374 354.818303185 601 287 601 c 0
 202.046413792 601 143 558.355367817 143 497 c 0
 143 442.947459411 178.645648553 416.774081103 286 392 c 2
 359 376 l 2
 497.393182673 343.436898195 556 285.722570472 556 182 c 0
EndSplineSet
EndChar

StartChar: T
Encoding: 84 84 34
Width: 558
GlyphClass: 2
Flags: W
HStem: 0 21G<232 326> 587 81<10 232 326 548>
VStem: 232 94<0 587>
AnchorPoint: "Anchor-1" 279 0 basechar 0
AnchorPoint: "Anchor-0" 279 668 basechar 0
LayerCount: 2
Fore
SplineSet
232 0 m 1
 232 587 l 1
 10 587 l 1
 10 668 l 1
 548 668 l 1
 548 587 l 1
 326 587 l 1
 326 0 l 1
 232 0 l 1
EndSplineSet
EndChar

StartChar: U
Encoding: 85 85 35
Width: 690
GlyphClass: 2
Flags: W
HStem: -12 81<249.1 441.018> 648 20G<76 170 520 614>
VStem: 76 94<155.501 668> 520 94<155.217 668>
AnchorPoint: "Anchor-2" 427 0 basechar 0
AnchorPoint: "Anchor-1" 345 0 basechar 0
AnchorPoint: "Anchor-0" 345 668 basechar 0
LayerCount: 2
Fore
SplineSet
614 279 m 2
 614 76.8442712274 531.8724778 -12 345 -12 c 0
 158.763902454 -12 76 77.5326974504 76 279 c 2
 76 668 l 1
 170 668 l 1
 170 272 l 2
 170 131.923923958 224.244762033 69 345 69 c 0
 465.755237967 69 520 131.923923958 520 272 c 2
 520 668 l 1
 614 668 l 1
 614 279 l 2
EndSplineSet
EndChar

StartChar: V
Encoding: 86 86 36
Width: 589
GlyphClass: 1
Flags: W
HStem: 0 21G<232.144 355.886> 648 20G<10 119.487 469.477 579>
VStem: 10 103<565 668> 476 103<565 668>
DStem2: 113 668 10 668 0.324288 -0.945958<0 586.541> 294 110 349 0 0.325554 0.945523<0 586.853>
LayerCount: 2
Fore
SplineSet
239 0 m 1
 10 668 l 1
 113 668 l 1
 294 110 l 1
 476 668 l 1
 579 668 l 1
 349 0 l 1
 239 0 l 1
EndSplineSet
EndChar

StartChar: W
Encoding: 87 87 37
Width: 840
GlyphClass: 1
Flags: W
HStem: 0 21G<172.97 295.674 544.326 668> 552 116<307 533>
VStem: 10 103<565 668> 727 103<565 668>
DStem2: 113 668 10 668 0.243902 -0.9698<0 567.037> 243 116 291 0 0.227564 0.973763<0 464.84> 597 116 663 0 0.242536 0.970143<0 567.048>
AnchorPoint: "Anchor-0" 420 668 basechar 0
LayerCount: 2
Fore
SplineSet
178 0 m 1
 10 668 l 1
 113 668 l 1
 243 116 l 1
 365 668 l 1
 475 668 l 1
 597 116 l 1
 727 668 l 1
 830 668 l 1
 663 0 l 1
 549 0 l 1
 420 552 l 1
 291 0 l 1
 178 0 l 1
EndSplineSet
EndChar

StartChar: X
Encoding: 88 88 38
Width: 623
GlyphClass: 1
Flags: W
HStem: 0 21G<10 137.189 485.736 613> 648 20G<24 150.286 471.714 599>
VStem: 10 113<0 113> 24 112<556 668> 486 113<555 668> 500 113<0 113>
DStem2: 10 0 123 0 0.580315 0.814392<65.5756 390.489 519.163 820.244> 136 668 24 668 0.581123 -0.813816<0 301.081 429.664 755.158>
LayerCount: 2
Fore
SplineSet
10 0 m 1xe4
 255 344 l 1
 24 668 l 1
 136 668 l 1
 311 423 l 1
 486 668 l 1
 599 668 l 1xd8
 368 344 l 1
 613 0 l 1
 500 0 l 1
 311 265 l 1
 123 0 l 1
 10 0 l 1xe4
EndSplineSet
EndChar

StartChar: Y
Encoding: 89 89 39
Width: 595
GlyphClass: 2
Flags: W
HStem: 0 21G<251 345> 648 20G<10 124.455 470.607 585>
VStem: 251 94<0 259>
DStem2: 113 668 10 668 0.507664 -0.861555<0 372.2> 298 345 345 259 0.506098 0.862476<0 371.702>
AnchorPoint: "Anchor-1" 298 0 basechar 0
AnchorPoint: "Anchor-0" 298 668 basechar 0
LayerCount: 2
Fore
SplineSet
251 0 m 1
 251 259 l 1
 10 668 l 1
 113 668 l 1
 298 345 l 1
 482 668 l 1
 585 668 l 1
 345 259 l 1
 345 0 l 1
 251 0 l 1
EndSplineSet
EndChar

StartChar: Z
Encoding: 90 90 40
Width: 607
GlyphClass: 2
Flags: W
HStem: 0 81<156 563> 587 81<59 438>
DStem2: 44 81 156 81 0.614372 0.789016<68.8097 641.305>
AnchorPoint: "Anchor-1" 304 0 basechar 0
AnchorPoint: "Anchor-0" 304 668 basechar 0
LayerCount: 2
Fore
SplineSet
44 0 m 1
 44 81 l 1
 438 587 l 1
 59 587 l 1
 59 668 l 1
 548 668 l 1
 548 587 l 1
 156 81 l 1
 563 81 l 1
 563 0 l 1
 44 0 l 1
EndSplineSet
EndChar

StartChar: a
Encoding: 97 97 41
Width: 526
GlyphClass: 2
Flags: W
HStem: -12 67<158.281 315.063> 0 21G<392.118 475> 239 67<242.515 373> 437 67<186.969 334.758>
VStem: 38 93<79.7216 179.191> 373 85<304.736 397.623> 380 78<119.455 239>
AnchorPoint: "Anchor-2" 475 0 basechar 0
AnchorPoint: "Anchor-1" 263 0 basechar 0
AnchorPoint: "Anchor-0" 263 496 basechar 0
LayerCount: 2
Fore
SplineSet
131 133 m 0xba
 131 85.0487929902 167.983129834 55 227 55 c 0
 325.239721474 55 380 109.760278526 380 208 c 2
 380 239 l 1
 195.689945353 219.598941616 131 192.06025002 131 133 c 0xba
378 68 m 1
 346.301934176 14.6896165684 289.920119175 -12 209 -12 c 0
 107.506633088 -12 38 46.1254300093 38 131 c 0
 38 232.11928399 128.441674496 279.364934846 373 306 c 1xbc
 375.766956678 393.15913533 338.2846907 437 261 437 c 0
 201.869310656 437 161.892495405 409.016229324 151 360 c 1
 70 384 l 1
 96.1671422311 458.576355359 168.087912913 504 260 504 c 0
 396.637540164 504 458 441.707805924 458 303 c 2
 458 187 l 2
 458 116.925352344 463.320892057 58.3955397164 475 0 c 1
 398 0 l 1x7a
 378 68 l 1
EndSplineSet
Substitution2: "Single Substitution lookup 12 subtable" ordfeminine
Substitution2: "'aalt' Access All Alternates lookup 0 subtable" ordfeminine
EndChar

StartChar: b
Encoding: 98 98 42
Width: 566
GlyphClass: 1
Flags: W
HStem: -12 72<221.777 366.449> 0 21G<70 137.867> 432 72<220.583 366.557> 648 20G<70 154>
VStem: 70 84<132.781 359.499 418 668> 70 62<0 23.8636> 434 94<136.178 355.963>
AnchorPoint: "Anchor-0" 315 496 basechar 0
LayerCount: 2
Fore
SplineSet
293 432 m 0xb2
 204.979070851 432 152 362.112715047 152 246 c 0
 152 130.529446602 205.465870811 60 293 60 c 0
 380.534129189 60 434 130.529446602 434 246 c 0
 434 362.112715047 381.020929149 432 293 432 c 0xb2
528 246 m 0
 528 94.5011898068 440.074599113 -12 315 -12 c 0
 242.148116625 -12 186.839968154 17.8870119067 154 75 c 1xba
 132 0 l 1
 70 0 l 1x76
 70 668 l 1
 154 668 l 1
 154 418 l 1x7a
 187.212985705 474.317671414 242.781065965 504 315 504 c 0
 440.074599113 504 528 397.498810193 528 246 c 0
EndSplineSet
EndChar

StartChar: c
Encoding: 99 99 43
Width: 500
GlyphClass: 2
Flags: W
HStem: -12 74<201.365 347.89> 430 74<197.093 346.217>
VStem: 38 91<144.887 350.71>
AnchorPoint: "Anchor-1" 270 0 basechar 0
AnchorPoint: "Anchor-0" 275 496 basechar 0
LayerCount: 2
Fore
SplineSet
467 99 m 1
 426.726158899 29.9591295405 351.880144043 -12 269 -12 c 0
 130.535981009 -12 38 91.3518748932 38 246 c 0
 38 399.381867908 135.319192644 504 278 504 c 0
 358.515025548 504 428.404736444 462.140921816 465 392 c 1
 388 364 l 1
 366.196919142 404.880776609 322.047981061 430 272 430 c 0
 184.609162103 430 129 358.835827518 129 247 c 0
 129 136.014235373 186.211003559 62 272 62 c 0
 322.839812603 62 366.646022479 86.1305393385 390 127 c 1
 467 99 l 1
EndSplineSet
EndChar

StartChar: d
Encoding: 100 100 44
Width: 564
GlyphClass: 2
Flags: W
HStem: -12 72<199.594 344.747> 0 21G<428.133 513> 432 72<199.486 345.947> 648 20G<412 496>
VStem: 38 94<136.25 355.891> 412 84<132.781 359.499 418 668>
AnchorPoint: "Anchor-1" 282 0 basechar 0
AnchorPoint: "Anchor-0" 251 496 basechar 0
LayerCount: 2
Fore
SplineSet
273 432 m 0xbc
 184.979070851 432 132 362.112715047 132 246 c 0
 132 130.529446602 185.465870811 60 273 60 c 0
 360.534129189 60 414 130.529446602 414 246 c 0
 414 362.112715047 361.020929149 432 273 432 c 0xbc
412 75 m 1
 380.625637012 17.9557036575 325.190369324 -12 251 -12 c 0xbc
 126.20152692 -12 38 94.8356523257 38 246 c 0
 38 397.164347674 126.20152692 504 251 504 c 0
 324.557921681 504 380.276364755 474.237353389 412 418 c 1
 412 668 l 1
 496 668 l 1
 496 187 l 2
 496 112.483589689 500.580598282 62.0970085832 513 0 c 1
 434 0 l 1x7c
 412 75 l 1
EndSplineSet
EndChar

StartChar: e
Encoding: 101 101 45
Width: 539
GlyphClass: 2
Flags: W
HStem: -12 74<202.287 366.751> 225 67<129 421> 432 72<196.489 355.189>
VStem: 38 90<140.73 225 292 356.925>
AnchorPoint: "Anchor-2" 364 0 basechar 0
AnchorPoint: "Anchor-1" 270 0 basechar 0
AnchorPoint: "Anchor-0" 281 496 basechar 0
LayerCount: 2
Fore
SplineSet
421 292 m 1
 421 370.21018 358.327468286 432 279 432 c 0
 191.113680674 432 136.091691473 380.646143412 129 292 c 1
 421 292 l 1
478 87 m 1
 438.282169064 23.745676659 367.151883187 -12 281 -12 c 0
 134.662684707 -12 38 91.0273059221 38 247 c 0
 38 398.617419217 136.821797544 504 279 504 c 0
 421.997487203 504 521.945893833 383.28309329 510 225 c 1
 128 225 l 1
 131.172562657 126.650557616 191.856828395 62 281 62 c 0
 332.557718763 62 372.015951291 78.6677016714 397 111 c 1
 478 87 l 1
EndSplineSet
EndChar

StartChar: f
Encoding: 102 102 46
Width: 311
GlyphClass: 1
Flags: W
HStem: 0 21G<99 183> 429 67<15 99 183 286> 635 71<188.355 286>
VStem: 99 84<0 429 496 629.834>
AnchorPoint: "Anchor-0" 90 668 basechar 0
LayerCount: 2
Fore
SplineSet
234 635 m 2
 193.107742963 635 183 622.315773537 183 571 c 2
 183 496 l 1
 286 496 l 1
 286 429 l 1
 183 429 l 1
 183 0 l 1
 99 0 l 1
 99 429 l 1
 15 429 l 1
 15 496 l 1
 99 496 l 1
 99 570 l 2
 99 677.747794635 126.628994953 706 232 706 c 2
 286 706 l 1
 286 635 l 1
 234 635 l 2
EndSplineSet
EndChar

StartChar: g
Encoding: 103 103 47
Width: 560
GlyphClass: 2
Flags: W
HStem: -192 74<197.943 361.7> 9 70<196.855 340.973> 432 72<196.857 340.955> 476 20G<423.103 490>
VStem: 38 91<154.186 357.7> 406 84<-72.1214 94 144.379 367.338> 429 61<472.261 496>
AnchorPoint: "Anchor-1" 280 -251 basechar 0
AnchorPoint: "Anchor-0" 268 496 basechar 0
LayerCount: 2
Fore
SplineSet
129 256 m 0xe8
 129 147.303237996 183.025159997 79 269 79 c 0
 356.848929489 79 409 144.933853431 409 256 c 0
 409 367.24635525 357.491418949 432 269 432 c 0
 182.775617401 432 129 364.396366696 129 256 c 0xe8
490 47 m 2xdc
 490 -120.567612876 425.441859336 -192 274 -192 c 0
 176.784598003 -192 103.888497457 -148.186799672 81 -76 c 1
 165 -53 l 1
 180.269366469 -95.536092306 217.939611679 -118 274 -118 c 0
 368.492467268 -118 406 -76.5143956145 406 28 c 2
 406 94 l 1
 372.319186113 36.8890547121 320.478355001 9 248 9 c 0
 124.536404858 9 38 110.783295238 38 256 c 0
 38 401.369517227 124.904844283 504 248 504 c 0
 319.960448295 504 371.980457283 475.685311564 406 418 c 1xec
 429 496 l 1
 490 496 l 1xda
 490 47 l 2xdc
EndSplineSet
EndChar

StartChar: h
Encoding: 104 104 48
Width: 546
GlyphClass: 2
Flags: W
HStem: 0 21G<70 154 394 478> 432 72<218.193 357.504> 648 20G<70 154>
VStem: 70 84<0 369.542 421 668> 394 84<0 392.605>
AnchorPoint: "Anchor-1" 273 0 basechar 0
AnchorPoint: "Anchor-0" 114 668 basechar 0
LayerCount: 2
Fore
SplineSet
285 432 m 0
 201.230763844 432 154 373.231950331 154 269 c 2
 154 0 l 1
 70 0 l 1
 70 668 l 1
 154 668 l 1
 154 421 l 1
 187.226774908 476.37795818 240.47408444 504 314 504 c 0
 423.289478082 504 478 440.615858754 478 314 c 2
 478 0 l 1
 394 0 l 1
 394 289 l 2
 394 392.167243024 363.637968459 432 285 432 c 0
EndSplineSet
EndChar

StartChar: i
Encoding: 105 105 49
Width: 278
GlyphClass: 1
Flags: W
HStem: 0 21G<114 198> 429 67<45 114> 590 125<109.173 203.712>
VStem: 94 125<605.417 699.918> 114 84<0 429>
AnchorPoint: "Anchor-2" 198 0 basechar 0
LayerCount: 2
Fore
SplineSet
114 0 m 1xe8
 114 429 l 1
 45 429 l 1
 45 496 l 1
 198 496 l 1
 198 0 l 1
 114 0 l 1xe8
219 653 m 0xf0
 219 617.984736205 191.015263795 590 156 590 c 0
 121.918069704 590 94 618.368361151 94 653 c 0
 94 687.350063519 121.649936481 715 156 715 c 0
 191.285808629 715 219 687.725716429 219 653 c 0xf0
EndSplineSet
Substitution2: "Single Substitution lookup 4 subtable" dotlessi
Substitution2: "Single Substitution lookup 3 subtable" dotlessi
EndChar

StartChar: j
Encoding: 106 106 50
Width: 254
GlyphClass: 1
Flags: W
HStem: -161 74<-58 72.9763> 476 20G<90 174> 590 125<84.2882 179.044>
VStem: 69 125<605.288 700.044> 90 84<-69.3666 496>
LayerCount: 2
Fore
SplineSet
174 7 m 2xe8
 174 -121.607907031 132.497616337 -161 -3 -161 c 1
 -58 -159 l 1
 -58 -86 l 1
 -11 -87 l 2
 73.1360068748 -87 90 -70.4699473327 90 12 c 2
 90 496 l 1
 174 496 l 1
 174 7 l 2xe8
194 653 m 0xf0
 194 617.714191371 166.725716429 590 132 590 c 0
 96.9847362049 590 69 617.984736205 69 653 c 0
 69 687.725716428 96.7141913714 715 132 715 c 0
 166.990637197 715 194 687.990637197 194 653 c 0xf0
EndSplineSet
EndChar

StartChar: k
Encoding: 107 107 51
Width: 490
GlyphClass: 2
Flags: W
HStem: 0 21G<70 154 362.59 480> 476 20G<336.063 455> 648 20G<70 154>
VStem: 70 84<0 166 273 668> 354 101<395 496> 377 103<0 103>
DStem2: 154 273 212 229 0.673898 0.738825<0 6.57778 90.1232 299.537> 268 291 212 229 0.588832 -0.808255<17.1372 299.385>
AnchorPoint: "Anchor-1" 251 0 basechar 0
AnchorPoint: "Anchor-0" 304 668 basechar 0
LayerCount: 2
Fore
SplineSet
70 0 m 1xf4
 70 668 l 1
 154 668 l 1
 154 273 l 1
 354 496 l 1
 455 496 l 1xf8
 268 291 l 1
 480 0 l 1
 377 0 l 1
 212 229 l 1
 154 166 l 1
 154 0 l 1
 70 0 l 1xf4
EndSplineSet
EndChar

StartChar: l
Encoding: 108 108 52
Width: 239
GlyphClass: 2
Flags: W
HStem: 0 74<158.416 224> 647 20G<70 154>
VStem: 70 84<78.6045 667>
AnchorPoint: "Anchor-1" 145 0 basechar 0
AnchorPoint: "Anchor-0" 117 668 basechar 0
LayerCount: 2
Fore
SplineSet
154 138 m 2
 154 84.3579050217 162.253955564 74 205 74 c 2
 224 74 l 1
 224 0 l 1
 187 0 l 2
 91.8331703648 0 70 23.1394284208 70 124 c 2
 70 667 l 1
 154 667 l 1
 154 138 l 2
EndSplineSet
EndChar

StartChar: m
Encoding: 109 109 53
Width: 841
GlyphClass: 2
Flags: W
HStem: 0 21G<70 154 380 464 689 773> 432 72<215.817 344.274 516.588 651.806> 476 20G<70 137.867>
VStem: 70 84<0 371.954> 70 62<472.136 496> 380 84<0 372.117> 689 84<0 392.015>
AnchorPoint: "Anchor-1" 421 0 basechar 0
AnchorPoint: "Anchor-0" 433 496 basechar 0
LayerCount: 2
Fore
SplineSet
274 432 m 0xd6
 198.425006681 432 154 371.656032591 154 269 c 2
 154 0 l 1
 70 0 l 1xd6
 70 496 l 1
 132 496 l 1xae
 154 421 l 1
 186.636114089 475.393523483 237.989909281 504 303 504 c 0
 375.347658846 504 423.475298342 474.719547999 446 417 c 1
 483.876894375 475.077904709 539.394019819 504 613 504 c 0
 718.420307474 504 773 439.186615126 773 314 c 2
 773 0 l 1
 689 0 l 1
 689 289 l 2
 689 390.107681914 657.946953027 432 583 432 c 0
 507.777523492 432 464 372.035829167 464 269 c 2
 464 0 l 1
 380 0 l 1
 380 289 l 2
 380 390.107681914 348.946953027 432 274 432 c 0xd6
EndSplineSet
EndChar

StartChar: n
Encoding: 110 110 54
Width: 546
GlyphClass: 2
Flags: W
HStem: 0 21G<70 154 394 478> 432 72<218.193 357.504> 476 20G<70 137.867>
VStem: 70 84<0 369.542> 70 62<472.136 496> 394 84<0 392.605>
AnchorPoint: "Anchor-1" 257 0 basechar 0
AnchorPoint: "Anchor-0" 288 496 basechar 0
LayerCount: 2
Fore
SplineSet
285 432 m 0xd4
 201.230763844 432 154 373.231950331 154 269 c 2
 154 0 l 1
 70 0 l 1xd4
 70 496 l 1
 132 496 l 1xac
 154 421 l 1
 187.226774908 476.37795818 240.47408444 504 314 504 c 0
 423.289478082 504 478 440.615858754 478 314 c 2
 478 0 l 1
 394 0 l 1
 394 289 l 2
 394 392.167243024 363.637968459 432 285 432 c 0xd4
EndSplineSet
EndChar

StartChar: o
Encoding: 111 111 55
Width: 552
GlyphClass: 2
Flags: W
HStem: -12 74<202.215 350.059> 430 74<202.215 350.059>
VStem: 38 90<145.299 346.701> 424 90<144.968 347.032>
AnchorPoint: "Anchor-2" 497 10 basechar 0
AnchorPoint: "Anchor-1" 276 0 basechar 0
AnchorPoint: "Anchor-0" 276 496 basechar 0
LayerCount: 2
Fore
SplineSet
128 246 m 0
 128 136.72821897 188.107480476 62 276 62 c 0
 364.145512623 62 424 136.413687009 424 246 c 0
 424 355.586312991 364.145512623 430 276 430 c 0
 188.107480475 430 128 355.271781031 128 246 c 0
514 246 m 0
 514 91.954920046 418.103600888 -12 276 -12 c 0
 135.066991643 -12 38 93.2238816972 38 246 c 0
 38 398.776118303 135.066991643 504 276 504 c 0
 418.103600888 504 514 400.045079954 514 246 c 0
EndSplineSet
Substitution2: "Single Substitution lookup 12 subtable" ordmasculine
Substitution2: "'aalt' Access All Alternates lookup 0 subtable" ordmasculine
EndChar

StartChar: p
Encoding: 112 112 56
Width: 566
GlyphClass: 1
Flags: W
HStem: -161 21G<70 154> -12 72<221.777 366.408> 432 72<220.583 366.557> 476 20G<70 136.897>
VStem: 70 84<-161 75 132.781 359.499> 70 61<472.261 496> 434 94<136.246 355.963>
AnchorPoint: "Anchor-0" 306 496 basechar 0
LayerCount: 2
Fore
SplineSet
293 432 m 0xe2
 204.979070851 432 152 362.112715047 152 246 c 0
 152 130.529446602 205.465870811 60 293 60 c 0
 380.534129189 60 434 130.529446602 434 246 c 0
 434 362.112715047 381.020929149 432 293 432 c 0xe2
315 -12 m 0
 242.148116625 -12 186.839968154 17.8870119067 154 75 c 1
 154 -161 l 1
 70 -161 l 1xea
 70 496 l 1
 131 496 l 1xd6
 154 418 l 1xda
 187.212985705 474.317671414 242.781065965 504 315 504 c 0
 440.074599113 504 528 397.498810193 528 246 c 0
 528 94.8181294914 439.812939606 -12 315 -12 c 0
EndSplineSet
EndChar

StartChar: q
Encoding: 113 113 57
Width: 576
GlyphClass: 1
Flags: W
HStem: -173 79<512.724 626.778> -12 72<199.898 344.572> 432 72<198.925 344.494> 476 20G<429.103 496>
VStem: 38 93<136.124 355.771> 412 84<-76.0056 75 132.781 359.499> 435 61<472.261 496>
LayerCount: 2
Fore
SplineSet
628 -159 m 1xdc
 599.175353647 -168.102519901 569.440653045 -173 543 -173 c 0
 457.14443361 -173 412 -122.686356435 412 -27 c 2
 412 75 l 1
 380.768240825 18.2149833179 324.505858095 -12 250 -12 c 0
 126.197567733 -12 38 95.3347758258 38 246 c 0
 38 396.983208795 125.936278044 504 250 504 c 0
 323.867384048 504 380.423612603 473.976323113 412 418 c 1xec
 435 496 l 1
 496 496 l 1xda
 496 -24 l 2
 496 -67.495765416 522.882866507 -94 567 -94 c 0
 584.333333333 -94 604.666666667 -89.6666666667 628 -81 c 1
 628 -159 l 1xdc
273 432 m 256
 184.637431947 432 131 361.742518717 131 246 c 0
 131 187.333333333 144 141.666666667 170 109 c 0
 196 76.3333333333 230.333333333 60 273 60 c 256
 360.534129189 60 414 130.529446602 414 246 c 0
 414 362.112715047 361.020929149 432 273 432 c 256
EndSplineSet
EndChar

StartChar: r
Encoding: 114 114 58
Width: 340
GlyphClass: 2
Flags: W
HStem: 0 21G<70 154> 417 87<240.086 335> 476 20G<70 136.87>
VStem: 70 84<0 333.561> 70 61<472.148 496>
AnchorPoint: "Anchor-1" 113 0 basechar 0
AnchorPoint: "Anchor-0" 199 496 basechar 0
LayerCount: 2
Fore
SplineSet
70 0 m 1xd0
 70 496 l 1
 131 496 l 1xa8
 158 404 l 1
 195.491613581 468.889331199 257.63749736 504 335 504 c 1
 335 417 l 1
 320.5 417 l 2
 208.978554267 417 154 349.638888466 154 213 c 2
 154 0 l 1
 70 0 l 1xd0
EndSplineSet
EndChar

StartChar: s
Encoding: 115 115 59
Width: 471
GlyphClass: 2
Flags: W
HStem: -12 71<157.799 320.887> 434 71<150.377 305.652>
VStem: 41 85<325.463 410.053> 356 85<90.2805 182.837>
DStem2: 218 299 177 231 0.980031 -0.198847<-87.386 145.017>
AnchorPoint: "Anchor-1" 230 0 basechar 0
AnchorPoint: "Anchor-0" 240 496 basechar 0
LayerCount: 2
Fore
SplineSet
441 136 m 0
 441 50.7229266484 355.391681196 -12 239 -12 c 0
 141.791068446 -12 61.9167814901 35.6173633775 31 112 c 1
 112 142 l 1
 124.821918597 90.712325611 173.345597544 59 239 59 c 0
 304.622247409 59 356 91.4953306986 356 133 c 0
 356 177.894904326 325.652249613 201.069550076 246 217 c 2
 177 231 l 2
 81.543398145 252.21257819 41 292.755976335 41 367 c 0
 41 446.548792855 121.899859165 505 232 505 c 0
 321.206500546 505 391.393712186 466.887589378 418 404 c 1
 339 375 l 1
 323.366002497 411.078455777 279.465417799 434 226 434 c 0
 167.671122925 434 126 406.49705887 126 368 c 0
 126 332.145933646 152.197242926 312.498001451 218 299 c 2
 283 286 l 2
 395.171511921 263.565697616 441 220.057639313 441 136 c 0
EndSplineSet
EndChar

StartChar: t
Encoding: 116 116 60
Width: 324
GlyphClass: 2
Flags: W
HStem: 0 74<192.338 284> 429 67<20 104 188 284>
VStem: 104 84<78.6045 429 496 621>
AnchorPoint: "Anchor-1" 183 0 basechar 0
AnchorPoint: "Anchor-0" 145 621 basechar 0
LayerCount: 2
Fore
SplineSet
188 138 m 2
 188 83.5661189421 195.623001032 74 239 74 c 2
 284 74 l 1
 284 0 l 1
 221 0 l 2
 125.833170365 0 104 23.1394284208 104 124 c 2
 104 429 l 1
 20 429 l 1
 20 496 l 1
 104 496 l 1
 104 621 l 1
 188 621 l 1
 188 496 l 1
 284 496 l 1
 284 429 l 1
 188 429 l 1
 188 138 l 2
EndSplineSet
EndChar

StartChar: u
Encoding: 117 117 61
Width: 536
GlyphClass: 2
Flags: W
HStem: -12 74<188.525 321.164> 0 21G<397.167 466> 477 20G<68 152 382 466>
VStem: 68 84<100.977 497> 382 84<121.032 497> 403 63<0 24>
AnchorPoint: "Anchor-2" 466 0 basechar 0
AnchorPoint: "Anchor-1" 268 0 basechar 0
AnchorPoint: "Anchor-0" 267 496 basechar 0
LayerCount: 2
Fore
SplineSet
256 62 m 0xb8
 336.52261424 62 382 120.470924549 382 224 c 2
 382 497 l 1
 466 497 l 1xb8
 466 0 l 1
 403 0 l 1x74
 382 72 l 1
 348.669584321 14.8621445504 299.102531877 -12 227 -12 c 0
 121.863583973 -12 68 53.0428183826 68 180 c 2
 68 497 l 1
 152 497 l 1
 152 200 l 2
 152 103.070176761 182.951437559 62 256 62 c 0xb8
EndSplineSet
EndChar

StartChar: v
Encoding: 118 118 62
Width: 441
GlyphClass: 1
Flags: W
HStem: 0 21G<169.863 271.137> 476 20G<0 97.7358 343.316 441>
DStem2: 91 496 0 496 0.336096 -0.941828<0 407.238> 221 110 264 0 0.336096 0.941828<0 406.902>
LayerCount: 2
Fore
SplineSet
177 0 m 1
 0 496 l 1
 91 496 l 1
 221 110 l 1
 350 496 l 1
 441 496 l 1
 264 0 l 1
 177 0 l 1
EndSplineSet
EndChar

StartChar: w
Encoding: 119 119 63
Width: 654
GlyphClass: 1
Flags: W
HStem: 0 21G<137.234 224.414 429.586 517.726> 399 97<235.5 419.5>
VStem: 0 90<406 496> 564 90<406 496>
DStem2: 90 496 0 496 0.277023 -0.960863<0 378.954> 185 129 219 0 0.261275 0.965265<0 297.722> 371 496 327 399 0.261275 -0.965265<82.1346 379.857> 469 129 512 0 0.275233 0.961378<0 378.973>
AnchorPoint: "Anchor-0" 327 496 basechar 0
LayerCount: 2
Fore
SplineSet
143 0 m 1
 0 496 l 1
 90 496 l 1
 185 129 l 1
 284 496 l 1
 371 496 l 1
 469 129 l 1
 564 496 l 1
 654 496 l 1
 512 0 l 1
 435 0 l 1
 327 399 l 1
 219 0 l 1
 143 0 l 1
EndSplineSet
EndChar

StartChar: x
Encoding: 120 120 64
Width: 461
GlyphClass: 1
Flags: W
HStem: 0 21G<0 113.162 347.73 461> 476 20G<9 122.186 338.698 452>
VStem: 0 99<0 99> 9 99<397 496> 353 99<397 496> 362 99<0 99>
DStem2: 0 0 99 0 0.579839 0.814731<57.4041 284.088 397.336 608.79> 108 496 9 496 0.579839 -0.814731<0 210.874 324.122 551.386>
LayerCount: 2
Fore
SplineSet
0 0 m 1xe4
 181 255 l 1
 9 496 l 1
 108 496 l 1
 230 324 l 1
 353 496 l 1
 452 496 l 1xd8
 280 255 l 1
 461 0 l 1
 362 0 l 1
 230 185 l 1
 99 0 l 1
 0 0 l 1xe4
EndSplineSet
EndChar

StartChar: y
Encoding: 121 121 65
Width: 429
GlyphClass: 2
Flags: W
HStem: -161 74<37 148.622> 475 20G<0 99.3874 330.613 429>
VStem: 0 93<402 495> 337 92<403 495>
DStem2: 179 -1 253 -22 0.322264 0.94665<-89.7929 0 119.52 520.456>
AnchorPoint: "Anchor-1" 215 0 basechar 0
AnchorPoint: "Anchor-0" 220 496 basechar 0
LayerCount: 2
Fore
SplineSet
37 -161 m 1
 37 -87 l 1
 71 -87 l 2
 142.625573891 -87 157.544080779 -75.1204482189 179 -1 c 1
 0 495 l 1
 93 495 l 1
 215 113 l 1
 337 495 l 1
 429 495 l 1
 253 -22 l 2
 214.112336159 -136.502565756 183.622723754 -161 80 -161 c 2
 37 -161 l 1
EndSplineSet
EndChar

StartChar: z
Encoding: 122 122 66
Width: 460
GlyphClass: 2
Flags: W
HStem: 0 74<135 430> 422 74<49 325>
DStem2: 40 74 135 74 0.633601 0.77366<60.1921 449.81>
AnchorPoint: "Anchor-1" 230 0 basechar 0
AnchorPoint: "Anchor-0" 237 496 basechar 0
LayerCount: 2
Fore
SplineSet
40 0 m 1
 40 74 l 1
 325 422 l 1
 49 422 l 1
 49 496 l 1
 420 496 l 1
 420 422 l 1
 135 74 l 1
 430 74 l 1
 430 0 l 1
 40 0 l 1
EndSplineSet
EndChar

StartChar: circumflex
Encoding: 258 710 67
Width: 429
GlyphClass: 1
Flags: W
HStem: 575 120
VStem: 53 323
DStem2: 53 575 147 575 0.742634 0.669697<69.8076 160.416> 376 575 214 636 0.742634 -0.669697<-161.158 -69.8076>
LayerCount: 2
Fore
SplineSet
53 575 m 1
 165 676 l 2
 178.333333333 688.666666667 194.999999999 695 215 695 c 0
 234.333333333 695 250.666666668 688.666666666 264 676 c 2
 376 575 l 1
 282 575 l 1
 214 636 l 1
 147 575 l 1
 53 575 l 1
EndSplineSet
EndChar

StartChar: caron
Encoding: 259 711 68
Width: 429
GlyphClass: 1
Flags: W
HStem: 569 120
VStem: 53 323
DStem2: 147 689 53 689 0.742634 -0.669697<0 90.608> 214 628 264 588 0.742634 0.669697<0 91.3507>
LayerCount: 2
Fore
SplineSet
215 569 m 0
 194.999999999 569 178.333333333 575.333333333 165 588 c 2
 53 689 l 1
 147 689 l 1
 214 628 l 1
 282 689 l 1
 376 689 l 1
 264 588 l 2
 250.666666668 575.333333334 234.333333333 569 215 569 c 0
EndSplineSet
EndChar

StartChar: breve
Encoding: 260 728 69
Width: 399
GlyphClass: 1
Flags: W
HStem: 569 67<145.113 254.529>
VStem: 53 294
LayerCount: 2
Fore
SplineSet
347 689 m 1
 333.363163793 619.452135343 271.559297998 569 200 569 c 0
 128.489924576 569 68.281414855 618.149803854 53 689 c 1
 122 689 l 1
 134.595899446 656.810479193 165.22264241 636 200 636 c 0
 233.434190555 636 263.980916936 656.756108951 278 689 c 1
 347 689 l 1
EndSplineSet
EndChar

StartChar: dotaccent
Encoding: 261 729 70
Width: 214
GlyphClass: 1
Flags: W
HStem: 590 108<64.3726 150.41>
VStem: 53 108<601.373 687.41>
LayerCount: 2
Fore
SplineSet
161 644 m 0
 161 613.707428502 137.292571498 590 107 590 c 0
 77.3553160648 590 53 614.355316065 53 644 c 0
 53 674.292571497 76.7074285027 698 107 698 c 0
 137.931487911 698 161 674.931487911 161 644 c 0
EndSplineSet
EndChar

StartChar: ring
Encoding: 262 730 71
Width: 253
GlyphClass: 1
Flags: W
HStem: 559 58<82.2257 166.087> 719 58<82.1609 166.087>
VStem: 15 57<627.25 708.812> 176 57<626.952 709.048>
LayerCount: 2
Fore
SplineSet
72 668 m 0
 72 639.342977221 94.7810748136 617 124 617 c 0
 153.218925186 617 176 639.342977222 176 668 c 0
 176 696.657022779 153.218925186 719 124 719 c 0
 94.7810748143 719 72 696.657022778 72 668 c 0
233 668 m 0
 233 606.829576597 186.048030313 559 126 559 c 0
 65.1785531448 559 15 608.27443507 15 668 c 0
 15 728.027450719 64.8711281669 777 126 777 c 0
 186.048030313 777 233 729.170423403 233 668 c 0
EndSplineSet
EndChar

StartChar: ogonek
Encoding: 263 731 72
Width: 263
GlyphClass: 1
Flags: W
HStem: -173 58<127.204 209.157> -20 20G<108.957 210>
VStem: 53 70<-108.851 -35.0635>
LayerCount: 2
Fore
SplineSet
172 -115 m 0
 183.999999998 -115 196.666666665 -112.333333333 210 -107 c 1
 210 -161 l 1
 187.333333333 -169 166.333333333 -173 147 -173 c 0
 91.9810997837 -173 53 -138.995210827 53 -91 c 0
 53 -47.9981386916 84.9132944945 -11.6967662041 133 0 c 1
 210 0 l 1
 149.885598554 -22.3955613236 123 -45.5728014561 123 -75 c 0
 123 -99.9098862326 141.485389365 -115 172 -115 c 0
EndSplineSet
EndChar

StartChar: quoteleft
Encoding: 264 8216 73
Width: 235
GlyphClass: 1
Flags: W
HStem: 418 250<120 127.825>
DStem2: 58 507 128 546 0.359367 0.933196<61.5504 172.525>
LayerCount: 2
Fore
SplineSet
182 482 m 0
 182 446.313475603 153.686524397 418 118 418 c 0
 71.8025588526 418 41.2180723997 463.366988238 58 507 c 2
 120 668 l 1
 175 668 l 1
 128 546 l 1
 159.402865464 540.538632094 182 513.756843014 182 482 c 0
EndSplineSet
EndChar

StartChar: quoteright
Encoding: 265 8217 74
Width: 235
GlyphClass: 1
Flags: W
HStem: 429 251<107.237 115>
DStem2: 60 429 115 429 0.357433 0.933939<19.6588 131.674>
LayerCount: 2
Fore
SplineSet
117 680 m 0
 163.646756246 680 193.945148185 635.057385291 177 591 c 2
 115 429 l 1
 60 429 l 1
 107 552 l 1
 75.310831903 557.511159669 53 583.540463556 53 615 c 0
 53 650.970324572 81.5830650367 680 117 680 c 0
EndSplineSet
EndChar

StartChar: quotesinglbase
Encoding: 266 8218 75
Width: 235
GlyphClass: 1
Flags: W
HStem: -134 251<107.237 115>
DStem2: 60 -134 115 -134 0.357433 0.933939<19.6588 131.674>
LayerCount: 2
Fore
SplineSet
117 117 m 0
 163.646756246 117 193.945148185 72.0573852904 177 28 c 2
 115 -134 l 1
 60 -134 l 1
 107 -11 l 1
 75.3108319028 -5.48884033091 53 20.5404635557 53 52 c 0
 53 87.9703245719 81.5830650369 117 117 117 c 0
EndSplineSet
EndChar

StartChar: quotedblleft
Encoding: 267 8220 76
Width: 398
GlyphClass: 1
Flags: W
HStem: 418 250<120 127.825 283 290.825>
DStem2: 61 515 128 546 0.359796 0.933031<53.0303 163.982> 224 515 291 546 0.359796 0.933031<53.0303 163.982>
LayerCount: 2
Fore
SplineSet
345 482 m 0
 345 446.313475603 316.686524397 418 281 418 c 0
 229.661945585 418 203.207552074 463.018880186 224 515 c 2
 283 668 l 1
 338 668 l 1
 291 546 l 1
 322.402865464 540.538632094 345 513.756843014 345 482 c 0
182 482 m 0
 182 446.313475603 153.686524397 418 118 418 c 0
 66.6619455846 418 40.2075520739 463.018880185 61 515 c 2
 120 668 l 1
 175 668 l 1
 128 546 l 1
 159.402865464 540.538632094 182 513.756843014 182 482 c 0
EndSplineSet
EndChar

StartChar: quotedblright
Encoding: 268 8221 77
Width: 398
GlyphClass: 1
Flags: W
HStem: 429 251<-56.7629 -49 106.996 115>
DStem2: 60 429 115 429 0.357433 0.933939<19.6588 131.674> 223 429 279 429 0.352389 0.935854<19.7338 131.672>
LayerCount: 2
Fore
SplineSet
281 680 m 0
 327.147490376 680 356.943591761 635.05333859 340 591 c 2
 279 429 l 1
 223 429 l 1
 270 552 l 1
 238.310831903 557.511159669 216 583.540463556 216 615 c 0
 216 651.351721852 244.648278148 680 281 680 c 0
117 680 m 0
 163.646756246 680 193.945148185 635.057385291 177 591 c 2
 115 429 l 1
 60 429 l 1
 107 552 l 1
 75.310831903 557.511159669 53 583.540463556 53 615 c 0
 53 650.970324572 81.5830650367 680 117 680 c 0
EndSplineSet
EndChar

StartChar: quotedblbase
Encoding: 269 8222 78
Width: 398
GlyphClass: 1
Flags: W
HStem: -134 251<-56.7629 -49 106.996 115>
DStem2: 60 -134 115 -134 0.357433 0.933939<19.6588 131.674> 223 -134 279 -134 0.352389 0.935854<19.7338 131.672>
LayerCount: 2
Fore
SplineSet
281 117 m 0
 327.147490377 117 356.943591762 72.0533385892 340 28 c 2
 279 -134 l 1
 223 -134 l 1
 270 -11 l 1
 238.310831903 -5.48884033089 216 20.5404635558 216 52 c 0
 216 88.3517218522 244.648278148 117 281 117 c 0
117 117 m 0
 163.646756246 117 193.945148185 72.0573852904 177 28 c 2
 115 -134 l 1
 60 -134 l 1
 107 -11 l 1
 75.3108319028 -5.48884033091 53 20.5404635557 53 52 c 0
 53 87.9703245719 81.5830650369 117 117 117 c 0
EndSplineSet
EndChar

StartChar: dagger
Encoding: 270 8224 79
Width: 541
GlyphClass: 1
Flags: W
HStem: 0 21G<230 311> 416 80<40 230 311 501> 648 20G<230 311>
VStem: 230 81<0 416 496 668>
LayerCount: 2
Fore
SplineSet
230 0 m 1
 230 416 l 1
 40 416 l 1
 40 496 l 1
 230 496 l 1
 230 668 l 1
 311 668 l 1
 311 496 l 1
 501 496 l 1
 501 416 l 1
 311 416 l 1
 311 0 l 1
 230 0 l 1
EndSplineSet
EndChar

StartChar: daggerdbl
Encoding: 271 8225 80
Width: 541
GlyphClass: 1
Flags: W
HStem: 0 21G<230 311> 172 79<40 230 311 501> 416 80<40 230 311 501> 648 20G<230 311>
VStem: 230 81<0 172 251 416 496 668>
LayerCount: 2
Fore
SplineSet
230 0 m 1
 230 172 l 1
 40 172 l 1
 40 251 l 1
 230 251 l 1
 230 416 l 1
 40 416 l 1
 40 496 l 1
 230 496 l 1
 230 668 l 1
 311 668 l 1
 311 496 l 1
 501 496 l 1
 501 416 l 1
 311 416 l 1
 311 251 l 1
 501 251 l 1
 501 172 l 1
 311 172 l 1
 311 0 l 1
 230 0 l 1
EndSplineSet
EndChar

StartChar: bullet
Encoding: 272 8226 81
Width: 438
GlyphClass: 1
Flags: W
HStem: 88 332<139.932 298.068>
VStem: 53 332<174.932 336.705>
LayerCount: 2
Fore
SplineSet
385 254 m 0
 385 162.450618631 310.549381369 88 219 88 c 0
 127.450618631 88 53 162.450618631 53 254 c 0
 53 345.852822905 127.147177095 420 219 420 c 0
 310.852822905 420 385 345.852822905 385 254 c 0
EndSplineSet
EndChar

StartChar: ellipsis
Encoding: 273 8230 82
Width: 696
GlyphClass: 1
Flags: W
HStem: -12 129<69.7337 165.139 300.507 396.139 530.861 626.266>
VStem: 53 129<4.73368 100.139> 284 129<4.60128 100.273> 514 129<4.73368 100.139>
LayerCount: 2
Fore
SplineSet
413 52 m 0
 413 16.5830650368 383.970324572 -12 348 -12 c 0
 312.313475602 -12 284 16.3134756022 284 52 c 0
 284 88.6236613215 311.939779622 117 348 117 c 0
 384.351721852 117 413 88.3517218522 413 52 c 0
182 52 m 0
 182 16.5830650367 152.970324572 -12 117 -12 c 0
 81.9611627389 -12 53 16.9611627389 53 52 c 0
 53 87.9703245719 81.5830650369 117 117 117 c 0
 153.351721852 117 182 88.3517218522 182 52 c 0
643 52 m 0
 643 16.9611627389 614.038837261 -12 579 -12 c 0
 543.029675428 -12 514 16.5830650368 514 52 c 0
 514 88.3517218521 542.648278148 117 579 117 c 0
 614.416934963 117 643 87.9703245719 643 52 c 0
EndSplineSet
EndChar

StartChar: perthousand
Encoding: 274 8240 83
Width: 1328
GlyphClass: 1
Flags: W
HStem: -12 74<644.215 771.204 1045.22 1172.2> 0 21G<186 288.012> 277 74<644.045 771.373 1045.05 1172.37> 316 75<156.326 283.232> 605 75<156.326 283.232> 648 20G<639.988 742>
VStem: 38 74<434.625 561.375> 186 88<0 88> 327 74<434.596 561.404> 526 74<105.688 232.955> 654 88<580 668> 815 74<105.796 232.846> 927 74<105.688 232.955> 1216 74<105.796 232.846>
DStem2: 186 0 274 0 0.573791 0.819001<50.4936 815.627>
LayerCount: 2
Fore
SplineSet
1001 169 m 0xa3fc
 1001 109.35777944 1048.80037551 62 1109 62 c 0
 1168.26581933 62 1216 109.734180668 1216 169 c 0
 1216 229.19962449 1168.64222056 277 1109 277 c 0
 1048.42200616 277 1001 229.577993839 1001 169 c 0xa3fc
600 169 m 0
 600 109.357779442 647.800375511 62 708 62 c 0
 767.265819333 62 815 109.734180667 815 169 c 0
 815 229.199624489 767.642220559 277 708 277 c 0
 647.422006164 277 600 229.577993836 600 169 c 0
1290 169 m 0
 1290 68.8340229113 1209.16597709 -12 1109 -12 c 0
 1008.1431103 -12 927 68.6972690362 927 169 c 0
 927 270.297908481 1007.70209152 351 1109 351 c 0
 1209.60481116 351 1290 270.160638844 1290 169 c 0
889 169 m 0
 889 68.8340229141 808.165977086 -12 708 -12 c 0
 607.143110305 -12 526 68.6972690396 526 169 c 0
 526 270.29790848 606.70209152 351 708 351 c 0
 808.604811158 351 889 270.160638844 889 169 c 0
112 498 m 0
 112 438.996521931 160.445087557 391 220 391 c 0
 279.265819333 391 327 438.734180667 327 498 c 0
 327 557.265819333 279.265819333 605 220 605 c 0x1bfc
 160.445087556 605 112 557.003478069 112 498 c 0
186 0 m 1x47fc
 654 668 l 1
 742 668 l 1
 274 0 l 1
 186 0 l 1x47fc
401 498 m 0
 401 397.143110305 320.302730961 316 220 316 c 0
 119.004858426 316 38 397.004858426 38 498 c 0
 38 598.995141574 119.004858426 680 220 680 c 0x1bfc
 320.30273096 680 401 598.856889695 401 498 c 0
EndSplineSet
EndChar

StartChar: guilsinglleft
Encoding: 275 8249 84
Width: 353
GlyphClass: 1
Flags: W
VStem: 201 99<40 139 362 461>
DStem2: 53 250 151 250 0.576835 0.816861<56.5298 257.729> 151 250 53 250 0.578664 -0.815566<0 200.202>
LayerCount: 2
Fore
SplineSet
201 40 m 1
 53 250 l 1
 201 461 l 1
 300 461 l 1
 151 250 l 1
 300 40 l 1
 201 40 l 1
EndSplineSet
EndChar

StartChar: guilsinglright
Encoding: 276 8250 85
Width: 353
GlyphClass: 1
Flags: W
VStem: 53 100<40 140 361 461>
DStem2: 153 461 53 461 0.576835 -0.816861<0 200.623> 53 40 153 40 0.578664 0.815566<57.8664 257.49>
LayerCount: 2
Fore
SplineSet
53 40 m 1
 202 250 l 1
 53 461 l 1
 153 461 l 1
 300 250 l 1
 153 40 l 1
 53 40 l 1
EndSplineSet
EndChar

StartChar: fraction
Encoding: 277 8260 86
Width: 586
GlyphClass: 1
Flags: W
HStem: 0 21G<15 117.012> 648 20G<468.988 571>
VStem: 15 88<0 88> 483 88<580 668>
DStem2: 15 0 103 0 0.573791 0.819001<50.4936 815.627>
LayerCount: 2
Fore
SplineSet
15 0 m 1
 483 668 l 1
 571 668 l 1
 103 0 l 1
 15 0 l 1
EndSplineSet
EndChar

StartChar: ordfeminine
Encoding: 170 170 87
Width: 371
GlyphClass: 1
Flags: W
HStem: 397 51<126.724 223.351> 527 49<134.103 239> 643 49<136.409 232.034>
VStem: 53 70<453.328 510.534> 239 68<463.357 530 578 635.42> 260 58<403 425.75>
LayerCount: 2
Fore
SplineSet
123 483 m 0xf8
 123 461.094648747 141.332508245 448 172 448 c 0
 214.483828191 448 239 473.979823858 239 519 c 2
 239 530 l 1
 217 527 l 2
 144.759167182 517.458757929 123 507.273615844 123 483 c 0xf8
248 442 m 1
 233.308936475 413.747954762 197.579966316 397 152 397 c 0
 91.6654560077 397 53 428.635373097 53 478 c 0
 53 536.048858345 103.772477847 565.490886919 222 576 c 1
 239 578 l 1
 239 627.383761019 226.266758985 643 186 643 c 0
 154.55140165 643 135.268823591 630.821529647 129 607 c 1
 68 625 l 1
 83.3835715321 666.955195088 128.613741597 692 189 692 c 0
 266.920013982 692 307 651.580353084 307 573 c 2
 307 491 l 2xf8
 307 468.150515943 307.844673752 461.393125925 318 403 c 1
 260 403 l 1xf4
 248 442 l 1
EndSplineSet
EndChar

StartChar: guillemotleft
Encoding: 171 171 88
Width: 562
GlyphClass: 1
Flags: W
VStem: 201 99<40 139 362 461> 409 100<40 140 361 461>
DStem2: 53 251 151 251 0.578664 0.815566<56.709 256.911> 151 251 53 251 0.576835 -0.816861<0 201.199> 262 251 359 251 0.581238 0.813733<56.3801 256.326> 359 251 262 251 0.57941 -0.815036<0 200.943>
LayerCount: 2
Fore
SplineSet
201 40 m 1
 53 251 l 1
 201 461 l 1
 300 461 l 1
 151 251 l 1
 300 40 l 1
 201 40 l 1
409 40 m 1
 262 251 l 1
 409 461 l 1
 509 461 l 1
 359 251 l 1
 509 40 l 1
 409 40 l 1
EndSplineSet
EndChar

StartChar: logicalnot
Encoding: 172 172 89
Width: 602
GlyphClass: 1
Flags: W
HStem: 317 79<53 468>
VStem: 468 81<90 317>
LayerCount: 2
Fore
SplineSet
468 90 m 1
 468 317 l 1
 53 317 l 1
 53 396 l 1
 549 396 l 1
 549 90 l 1
 468 90 l 1
EndSplineSet
EndChar

StartChar: registered
Encoding: 174 174 90
Width: 798
GlyphClass: 1
Flags: W
HStem: -12 61<295.521 502.479> 301 58<340 382> 469 61<340 460.966> 619 61<295.477 502.523>
VStem: 53 62<229.67 437.039> 264 76<162 301 359 469> 474 76<372.055 456.395> 484 86<162 248> 683 62<229.67 437.039>
DStem2: 462 311 382 301 0.586879 -0.809675<0 133.553>
LayerCount: 2
Fore
SplineSet
474 413 m 0xfe80
 474 452.366837964 448.456215444 469 388 469 c 2
 340 469 l 1
 340 359 l 1
 393 359 l 2
 447.665631475 359 474 376.556245684 474 413 c 0xfe80
550 414 m 0
 550 362.43471528 520.53167417 327.943379365 462 311 c 1
 570 162 l 1
 484 162 l 1xfd80
 382 301 l 1
 340 301 l 1
 340 162 l 1
 264 162 l 1
 264 530 l 1
 376 530 l 2
 503.180880961 530 550 498.787253974 550 414 c 0
115 333 m 0
 115 175.995201378 241.995201378 49 399 49 c 0
 556.004798622 49 683 175.995201378 683 333 c 0
 683 490.646812765 555.544387501 619 399 619 c 0
 242.455612499 619 115 490.646812765 115 333 c 0
745 333 m 0
 745 142.816416201 589.734840564 -12 399 -12 c 0
 208.265159436 -12 53 142.816416201 53 333 c 0
 53 525.039443813 207.513983979 680 399 680 c 0
 590.486016021 680 745 525.039443813 745 333 c 0
EndSplineSet
EndChar

StartChar: macron
Encoding: 175 175 91
Width: 382
GlyphClass: 1
Flags: W
HStem: 601 67<53 329>
VStem: 53 276<601 668>
LayerCount: 2
Fore
SplineSet
53 601 m 1
 53 668 l 1
 329 668 l 1
 329 601 l 1
 53 601 l 1
EndSplineSet
EndChar

StartChar: degree
Encoding: 176 176 92
Width: 352
GlyphClass: 1
Flags: W
HStem: 408 63<125.341 226.843> 617 63<125.157 228.561>
VStem: 40 63<493.341 594.843> 249 63<493.157 596.561>
LayerCount: 2
Fore
SplineSet
103 544 m 0
 103 503.590403604 135.590403604 471 176 471 c 0
 217.056099642 471 249 502.943900358 249 544 c 0
 249 585.695957253 217.695957253 617 176 617 c 0
 134.943900357 617 103 585.056099643 103 544 c 0
312 544 m 0
 312 469.076832169 250.923167831 408 176 408 c 0
 101.381047159 408 40 469.381047159 40 544 c 0
 40 618.923167831 101.076832169 680 176 680 c 0
 251.227147311 680 312 619.227147311 312 544 c 0
EndSplineSet
EndChar

StartChar: plusminus
Encoding: 177 177 93
Width: 579
GlyphClass: 1
Flags: W
HStem: 0 79<53 526> 270 79<53 250 329 526> 476 20G<250 329>
VStem: 250 79<124 270 349 496>
LayerCount: 2
Fore
SplineSet
53 0 m 1
 53 79 l 1
 526 79 l 1
 526 0 l 1
 53 0 l 1
250 124 m 1
 250 270 l 1
 53 270 l 1
 53 349 l 1
 250 349 l 1
 250 496 l 1
 329 496 l 1
 329 349 l 1
 526 349 l 1
 526 270 l 1
 329 270 l 1
 329 124 l 1
 250 124 l 1
EndSplineSet
EndChar

StartChar: uni00B2
Encoding: 178 178 94
Width: 382
GlyphClass: 1
Flags: W
HStem: 403 58<134 329> 677 21G<65 131.316> 736 50<143.687 239.583>
VStem: 65 64<693.031 720.204> 250 70<622.116 725.733>
LayerCount: 2
Fore
SplineSet
320 686 m 0
 320 618.351068857 262.157141777 548.379869394 134 461 c 1
 329 461 l 1
 329 403 l 1
 53 403 l 1
 53 458 l 1
 204.103649877 577.897461315 250 630.084174146 250 682 c 0
 250 715.889129997 228.771859441 736 193 736 c 0
 157.441018921 736 133.631302171 714.050417371 129 677 c 1
 65 695 l 1
 80.094536008 752.63368294 128.127366062 786 196 786 c 0
 271.497117576 786 320 746.884772239 320 686 c 0
EndSplineSet
EndChar

StartChar: uni00B3
Encoding: 179 179 95
Width: 383
GlyphClass: 1
Flags: W
HStem: 397 51<135.206 245.543> 484 20G<53 121.489> 572 54<151 239.489> 736 50<135.505 241.304>
VStem: 58 61<698.934 717.888> 252 69<639.725 724.532> 261 69<464.035 556.1>
LayerCount: 2
Fore
SplineSet
330 511 m 0xfa
 330 442.136517605 273.381385812 397 187 397 c 0
 121.799165661 397 72.1708679366 429.96207834 53 486 c 1
 115 504 l 1
 127.977561583 466.689510451 152.34067342 448 188 448 c 0
 231.318386937 448 261 472.802443793 261 509 c 0xfa
 261 551.257748383 233.014422422 572 176 572 c 2
 151 572 l 1
 151 626 l 1
 172 626 l 2
 224.242420654 626 252 645.777275284 252 683 c 0
 252 715.720352006 228.276638196 736 190 736 c 0
 153.333333333 736 129.666666667 718.333333333 119 683 c 1
 58 701 l 1
 75.5567271799 755.020699015 125.123608757 786 194 786 c 0
 270.296788878 786 321 745.676973832 321 685 c 0xfc
 321 650.794978803 300.754061932 619.089075791 268 602 c 1
 306.77044946 586.99208408 330 552.89709861 330 511 c 0xfa
EndSplineSet
EndChar

StartChar: acute
Encoding: 180 180 96
Width: 268
GlyphClass: 1
Flags: W
HStem: 571 136<141.867 147.81>
VStem: 53 162
LayerCount: 2
Fore
SplineSet
177 707 m 0
 199.175181272 707 215 691.175181272 215 669 c 0
 215 651.2593401 200.484328976 634.941723707 142.5 587.5 c 0
 131.5 578.5 125 573 123 571 c 2
 53 571 l 1
 103.595332229 638.460442973 139.630494029 684.630494029 149 694 c 0
 155.666666667 702.666666667 165 707 177 707 c 0
EndSplineSet
EndChar

StartChar: uni03BC
Encoding: 278 956 97
Width: 538
GlyphClass: 1
Flags: W
HStem: -162 21G<70 154> -12 74<187.944 329.075> 0 21G<399.167 468> 477 20G<70 154 384 468>
VStem: 70 84<-162 41 96.8914 497> 384 84<121.032 497> 405 63<0 24>
LayerCount: 2
Fore
SplineSet
254 -12 m 0xdc
 214.503019372 -12 180.639959473 5.94742174653 154 41 c 1
 154 -162 l 1
 70 -162 l 1
 70 497 l 1
 154 497 l 1
 154 191 l 2
 154 101.180549159 185.587419477 62 258 62 c 0
 338.52261424 62 384 120.470924549 384 224 c 2
 384 497 l 1
 468 497 l 1xdc
 468 0 l 1
 405 0 l 1xba
 384 72 l 1
 346.955705882 8.49549579777 315.236486195 -12 254 -12 c 0xdc
EndSplineSet
EndChar

StartChar: paragraph
Encoding: 182 182 98
Width: 508
GlyphClass: 1
Flags: W
HStem: -161 21G<187 268 362 443> 601 67<268 362 443 483>
VStem: 38 230<393.085 565.199> 187 81<-161 299.416> 362 81<-161 601>
LayerCount: 2
Fore
SplineSet
38 479 m 0xe8
 38 583.737102571 122.262897429 668 227 668 c 2
 483 668 l 1
 483 601 l 1
 443 601 l 1
 443 -161 l 1
 362 -161 l 1
 362 601 l 1
 268 601 l 1
 268 -161 l 1
 187 -161 l 1
 187 294 l 1xd8
 99.9858537604 312.64588848 38 389.608190129 38 479 c 0xe8
EndSplineSet
EndChar

StartChar: periodcentered
Encoding: 183 183 99
Width: 235
GlyphClass: 1
Flags: W
HStem: 183 129<69.7337 165.139>
VStem: 53 129<199.861 295.266>
LayerCount: 2
Fore
SplineSet
182 248 m 0
 182 211.648278148 153.351721852 183 117 183 c 0
 81.5830650367 183 53 212.029675428 53 248 c 0
 53 283.038837261 81.9611627389 312 117 312 c 0
 152.970324572 312 182 283.416934963 182 248 c 0
EndSplineSet
EndChar

StartChar: cedilla
Encoding: 184 184 100
Width: 291
GlyphClass: 1
Flags: W
HStem: -181 41<81.361 191.573>
VStem: 196 62<-134.115 -83.1107>
DStem2: 104 -57 159 -45 0.528136 0.84916<39.2374 96.566>
LayerCount: 2
Fore
SplineSet
258 -102 m 0
 258 -147.994400606 217.474137453 -181 161 -181 c 0
 136.37087713 -181 108.575399703 -174.682846039 73 -161 c 1
 87 -126 l 1
 109.666666666 -135.333333333 129 -140 145 -140 c 0
 174.815052354 -140 196 -125.87670157 196 -106 c 0
 196 -90.3872733418 182.482326388 -81 160 -81 c 0
 135.977085156 -81 120.123874145 -93.8489492024 108.5 -83 c 0
 100.48036171 -75.5150042627 98.536621415 -64.28450478 104 -57 c 2
 155 25 l 1
 189 4 l 1
 159 -45 l 1
 215.366800139 -30.9082999652 258 -55.4546877638 258 -102 c 0
EndSplineSet
EndChar

StartChar: uni00B9
Encoding: 185 185 101
Width: 256
GlyphClass: 1
Flags: W
HStem: 683 47<53 129.215>
VStem: 136 67<403 683> 147 56<749.015 779>
LayerCount: 2
Fore
SplineSet
53 730 m 1xc0
 104.447409824 730 135.230984681 746.046757106 147 779 c 1
 203 779 l 1xa0
 203 403 l 1
 136 403 l 1
 136 683 l 1
 53 683 l 1
 53 730 l 1xc0
EndSplineSet
EndChar

StartChar: ordmasculine
Encoding: 186 186 102
Width: 381
GlyphClass: 1
Flags: W
HStem: 398 54<147.678 240.984> 638 54<147.678 240.984>
VStem: 57 69<473.883 616.117> 263 69<474.406 615.594>
LayerCount: 2
Fore
SplineSet
126 545 m 0
 126 488.194506804 152.464800674 452 194 452 c 0
 236.498100002 452 263 487.719952171 263 545 c 0
 263 602.280047828 236.498100002 638 194 638 c 0
 152.464800674 638 126 601.805493196 126 545 c 0
332 545 m 0
 332 456.197686585 277.365437084 398 194 398 c 0
 111.654047697 398 57 456.643394244 57 545 c 0
 57 633.356605756 111.654047697 692 194 692 c 0
 277.365437084 692 332 633.802313415 332 545 c 0
EndSplineSet
EndChar

StartChar: guillemotright
Encoding: 187 187 103
Width: 562
GlyphClass: 1
Flags: W
VStem: 53 100<40 140 361 461> 262 99<40 139 362 461>
DStem2: 153 461 53 461 0.578664 -0.815566<0 199.623> 53 40 153 40 0.576835 0.816861<57.6835 258.306> 361 461 262 461 0.578664 -0.815566<0 200.202> 262 40 361 40 0.576835 0.816861<57.1067 258.306>
LayerCount: 2
Fore
SplineSet
53 40 m 1
 202 251 l 1
 53 461 l 1
 153 461 l 1
 300 251 l 1
 153 40 l 1
 53 40 l 1
262 40 m 1
 411 251 l 1
 262 461 l 1
 361 461 l 1
 509 251 l 1
 361 40 l 1
 262 40 l 1
EndSplineSet
EndChar

StartChar: onequarter
Encoding: 188 188 104
Width: 826
GlyphClass: 1
Flags: W
HStem: 0 21G<115 217.982 640 708> 86 57<528 640 708 773> 571 48<53 129.215> 648 20G<141.115 204 568.988 671>
VStem: 115 89<0 89> 136 68<292 571> 147 57<638.015 668> 583 88<580 668> 640 68<0 86 143 289>
DStem2: 115 0 204 0 0.573791 0.819001<51.0674 815.627> 455 140 528 143 0.618997 0.785394<47.5429 231.538>
LayerCount: 2
Fore
SplineSet
528 143 m 1xf080
 640 143 l 1
 640 289 l 1
 528 143 l 1xf080
640 0 m 1
 640 86 l 1
 455 86 l 1
 455 140 l 1
 641 376 l 1
 708 376 l 1
 708 143 l 1
 773 143 l 1
 773 86 l 1
 708 86 l 1
 708 0 l 1
 640 0 l 1
53 619 m 1
 104.447409824 619 135.230984681 635.046757106 147 668 c 1
 204 668 l 1xf2
 204 292 l 1
 136 292 l 1
 136 571 l 1xf4
 53 571 l 1
 53 619 l 1
115 0 m 1xf9
 583 668 l 1
 671 668 l 1
 204 0 l 1
 115 0 l 1xf9
EndSplineSet
Ligature2: "'frac' Diagonal Fractions lookup 10 subtable" one slash four
EndChar

StartChar: onehalf
Encoding: 189 189 105
Width: 812
GlyphClass: 1
Flags: W
HStem: 0 58<565 759> 332 50<574.621 671.977> 571 48<53 129.215> 648 20G<141.115 203 568.988 671>
VStem: 115 88<0 88> 136 67<292 571> 147 56<638.015 668> 495 64<289.922 316.469> 583 88<580 668> 681 70<217.403 321.968>
DStem2: 115 0 203 0 0.573791 0.819001<50.4936 815.627>
LayerCount: 2
Fore
SplineSet
751 283 m 0xf1c0
 751 214.015852915 692.932531099 143.772946987 565 58 c 1
 759 58 l 1
 759 0 l 1
 484 0 l 1
 484 54 l 1
 638.20985005 178.038357649 681 226.69314744 681 278 c 0
 681 311.889129997 659.771859441 332 624 332 c 0
 588.782783068 332 564.820212322 310.249358862 559 273 c 1
 495 292 l 1
 510.155036325 348.486953576 559.307504413 382 627 382 c 0
 702.069738273 382 751 342.934710395 751 283 c 0xf1c0
53 619 m 1
 104.447409824 619 135.230984681 635.046757106 147 668 c 1
 203 668 l 1xf3c0
 203 292 l 1
 136 292 l 1
 136 571 l 1xf5c0
 53 571 l 1
 53 619 l 1
115 0 m 1xf9c0
 583 668 l 1
 671 668 l 1
 203 0 l 1
 115 0 l 1xf9c0
EndSplineSet
LCarets2: 2 0 0
Ligature2: "'frac' Diagonal Fractions lookup 10 subtable" one slash two
EndChar

StartChar: threequarters
Encoding: 190 190 106
Width: 868
GlyphClass: 1
Flags: W
HStem: 0 21G<157 259.042 682 751> 86 57<570 682 751 815> 291 51<135.003 245.543> 466 53<151 239.118> 629 51<137.172 240.812> 648 20G<611.958 714>
VStem: 58 61<591.934 611.031> 157 88<0 88> 252 69<532.949 617.626> 261 69<358.035 450.448> 626 88<580 668> 682 69<0 86 143 289>
DStem2: 157 0 245 0 0.574613 0.818425<50.5659 816.202> 497 140 570 143 0.618997 0.785394<47.5429 231.538>
LayerCount: 2
Fore
SplineSet
570 143 m 1xf310
 682 143 l 1
 682 289 l 1
 570 143 l 1xf310
682 0 m 1
 682 86 l 1
 497 86 l 1
 497 140 l 1
 683 376 l 1
 751 376 l 1
 751 143 l 1
 815 143 l 1
 815 86 l 1
 751 86 l 1
 751 0 l 1
 682 0 l 1
157 0 m 1
 626 668 l 1
 714 668 l 1xf720
 245 0 l 1
 157 0 l 1
330 405 m 0xfb40
 330 336.136517605 273.381385812 291 187 291 c 0
 121.799165661 291 72.1708679366 323.96207834 53 380 c 1
 115 398 l 1
 127.512704375 360.461886876 151.579092624 342 188 342 c 0
 231.318386937 342 261 366.802443793 261 403 c 0xfb40
 261 446.601811073 232.980393772 466 170 466 c 2
 151 466 l 1
 151 519 l 1
 169 519 l 2
 224.333333333 519 252 538 252 576 c 0
 252 608.030157264 227.469240573 629 190 629 c 0
 154.292907657 629 130.20637095 611.019909219 119 576 c 1
 58 594 l 1
 75.6932019272 648.440621314 125.601056594 680 194 680 c 0
 270.37109072 680 321 639.337411445 321 578 c 0xfb80
 321 543.136055759 301.385033803 512.418278506 268 495 c 1
 306.531548458 481.327515063 330 447.260407986 330 405 c 0xfb40
EndSplineSet
LCarets2: 2 0 0
Ligature2: "'frac' Diagonal Fractions lookup 10 subtable" three slash four
EndChar

StartChar: less
Encoding: 60 60 107
Width: 553
GlyphClass: 1
Flags: W
HStem: 0 21G<468.587 513> 476 20G<468.587 513>
VStem: 40 105<160.5 335.5>
DStem2: 145 248 40 213 0.911813 -0.410605<0 400.423>
LayerCount: 2
Fore
SplineSet
513 0 m 1
 40 213 l 1
 40 283 l 1
 513 496 l 1
 513 406 l 1
 145 248 l 1
 513 90 l 1
 513 0 l 1
EndSplineSet
EndChar

StartChar: equal
Encoding: 61 61 108
Width: 602
GlyphClass: 1
Flags: W
HStem: 121 79<53 549> 307 79<53 549>
LayerCount: 2
Fore
SplineSet
53 121 m 1
 53 200 l 1
 549 200 l 1
 549 121 l 1
 53 121 l 1
53 307 m 1
 53 386 l 1
 549 386 l 1
 549 307 l 1
 53 307 l 1
EndSplineSet
EndChar

StartChar: greater
Encoding: 62 62 109
Width: 553
GlyphClass: 1
Flags: W
HStem: 0 21G<40 84.4131> 476 20G<40 84.4131>
VStem: 408 105<160.5 335.5>
DStem2: 40 90 40 0 0.911813 0.410605<0 400.423>
LayerCount: 2
Fore
SplineSet
40 0 m 1
 40 90 l 1
 408 248 l 1
 40 406 l 1
 40 496 l 1
 513 283 l 1
 513 213 l 1
 40 0 l 1
EndSplineSet
EndChar

StartChar: question
Encoding: 63 63 110
Width: 520
GlyphClass: 1
Flags: W
HStem: -12 129<178.842 274.266> 501 21G<50.6957 128.748> 610 70<176.006 338.189>
VStem: 40 82<522.037 554.02> 162 129<4.73368 100.145> 182 86<190 285.629> 382 88<445.185 568.648>
LayerCount: 2
Fore
SplineSet
291 52 m 0xfa
 291 16.9611627389 262.038837261 -12 227 -12 c 0
 190.975654353 -12 162 16.5298750554 162 52 c 0
 162 88.3517218522 190.648278148 117 227 117 c 0
 262.431706892 117 291 87.9853273124 291 52 c 0xfa
261 680 m 0
 386.372209024 680 470 614.378192727 470 516 c 0
 470 444.468683646 429.377842941 383.37295943 345 328 c 0
 280.926666238 286.809999724 268 269.350606364 268 224 c 2
 268 190 l 1
 182 190 l 1
 182 227 l 2xf6
 182 295.416603816 207.369399601 331.022778695 296 387 c 0
 355.263654487 424.862890366 382 462.480306728 382 508 c 0
 382 570.270680521 333.312108481 610 257 610 c 0
 183.576837293 610 135.495994494 571.17917137 122 501 c 1
 40 524 l 1
 59.8745893982 619.398029111 145.727381491 680 261 680 c 0
EndSplineSet
EndChar

StartChar: at
Encoding: 64 64 111
Width: 780
GlyphClass: 1
Flags: W
HStem: -12 61<288.532 502.722> 155 74<322.786 419.328 536.894 628.432> 445 74<338.693 450.544> 618 62<292.479 502.18>
VStem: 50 62<226.324 438.189> 218 84<248.297 404.821> 451 81<262.18 444.043> 668 62<273.979 461.438>
LayerCount: 2
Fore
SplineSet
451 441 m 1
 437.915505654 443.61689887 422.355617939 445 406 445 c 0
 336.048178776 445 302 401.785003862 302 313 c 0
 302 262.044958832 328.357288592 229 369 229 c 0
 416.144469166 229 451 275.332351963 451 338 c 2
 451 441 l 1
532 16 m 1
 489.902861344 -2.41749816158 444.043745403 -12 398 -12 c 0
 204.538537575 -12 50 142.094461318 50 335 c 0
 50 525.183583799 205.265159436 680 396 680 c 0
 579.931906319 680 730 538.918019713 730 366 c 0
 730 237.025840788 669.744050606 155 575 155 c 0
 528.167386447 155 486.109515377 178.91526002 473 213 c 1
 442.310119924 175.916394909 400.477330106 155 357 155 c 0
 275.722883719 155 218 222.689424793 218 318 c 0
 218 446.934621648 287.914173028 519 413 519 c 0
 450.1548292 519 491.282378958 512.087806763 532 499 c 1
 532 273 l 2
 532 245.863892717 548.480622428 229 575 229 c 0
 630.041935725 229 668 284.91671834 668 366 c 0
 668 504.223720336 545.19385687 618 396 618 c 0
 238.79052176 618 112 491.655923739 112 335 c 0
 112 175.345610127 237.462074392 49 396 49 c 0
 444 49 489.333333333 60.9999999999 532 85 c 1
 532 16 l 1
EndSplineSet
EndChar

StartChar: colon
Encoding: 58 58 112
Width: 205
GlyphClass: 1
Flags: W
HStem: -12 129<54.7337 150.139> 375 129<54.7337 150.139>
VStem: 38 129<4.73368 100.139 391.861 487.266>
LayerCount: 2
Fore
SplineSet
167 52 m 0
 167 16.5830650367 137.970324572 -12 102 -12 c 0
 66.9611627389 -12 38 16.9611627389 38 52 c 0
 38 87.9703245719 66.5830650369 117 102 117 c 0
 138.351721852 117 167 88.3517218522 167 52 c 0
167 440 m 0
 167 403.648278148 138.351721852 375 102 375 c 0
 66.5830650368 375 38 404.029675428 38 440 c 0
 38 475.038837261 66.9611627389 504 102 504 c 0
 137.970324572 504 167 475.416934963 167 440 c 0
EndSplineSet
EndChar

StartChar: semicolon
Encoding: 59 59 113
Width: 205
GlyphClass: 1
Flags: W
HStem: 375 129<54.7337 150.139>
VStem: 38 129<28 100.266 391.861 487.266>
DStem2: 45 -133 100 -133 0.359367 0.933196<19.7652 130.74>
LayerCount: 2
Fore
SplineSet
102 117 m 0
 148.646756246 117 178.945148185 72.0573852904 162 28 c 2
 100 -133 l 1
 45 -133 l 1
 92 -11 l 1
 60.5971345359 -5.53863209319 38 21.2431569864 38 53 c 0
 38 88.0388372611 66.9611627389 117 102 117 c 0
167 440 m 0
 167 403.648278148 138.351721852 375 102 375 c 0
 66.5830650367 375 38 404.029675428 38 440 c 0
 38 475.038837261 66.9611627389 504 102 504 c 0
 137.970324572 504 167 475.416934963 167 440 c 0
EndSplineSet
EndChar

StartChar: bracketleft
Encoding: 91 91 114
Width: 315
GlyphClass: 1
Flags: W
HStem: -161 74<157 282> 594 74<157 282>
VStem: 76 206<-161 -87 594 668> 76 81<-87 594>
LayerCount: 2
Fore
SplineSet
76 -161 m 1xe0
 76 668 l 1
 282 668 l 1
 282 594 l 1xe0
 157 594 l 1
 157 -87 l 1xd0
 282 -87 l 1
 282 -161 l 1
 76 -161 l 1xe0
EndSplineSet
EndChar

StartChar: backslash
Encoding: 92 92 115
Width: 377
GlyphClass: 1
Flags: W
HStem: 0 21G<267.216 362> 648 20G<15 109.784>
DStem2: 102 668 15 668 0.362716 -0.9319<0 685.259>
LayerCount: 2
Fore
SplineSet
275 0 m 1
 15 668 l 1
 102 668 l 1
 362 0 l 1
 275 0 l 1
EndSplineSet
EndChar

StartChar: bracketright
Encoding: 93 93 116
Width: 315
GlyphClass: 1
Flags: W
HStem: -161 74<33 158> 594 74<33 158>
VStem: 33 206<-161 -87 594 668> 158 81<-87 594>
LayerCount: 2
Fore
SplineSet
33 -161 m 1xe0
 33 -87 l 1xe0
 158 -87 l 1
 158 594 l 1xd0
 33 594 l 1
 33 668 l 1
 239 668 l 1
 239 -161 l 1
 33 -161 l 1xe0
EndSplineSet
EndChar

StartChar: asciicircum
Encoding: 94 94 117
Width: 552
GlyphClass: 1
Flags: W
HStem: 569 99<188.5 363.5>
DStem2: 53 311 142 311 0.460099 0.887867<40.9488 331.672> 314 668 276 569 0.460099 -0.887867<70.4151 361.138>
LayerCount: 2
Fore
SplineSet
53 311 m 1
 238 668 l 1
 314 668 l 1
 499 311 l 1
 410 311 l 1
 276 569 l 1
 142 311 l 1
 53 311 l 1
EndSplineSet
EndChar

StartChar: underscore
Encoding: 95 95 118
Width: 396
GlyphClass: 1
Flags: W
HStem: -79 79<10 386>
LayerCount: 2
Fore
SplineSet
10 -79 m 1
 10 0 l 1
 386 0 l 1
 386 -79 l 1
 10 -79 l 1
EndSplineSet
EndChar

StartChar: grave
Encoding: 96 96 119
Width: 268
GlyphClass: 1
Flags: W
HStem: 571 136
VStem: 53 162
LayerCount: 2
Fore
SplineSet
53 669 m 0
 53 690.528804758 69.4711952422 707 91 707 c 0
 104.196277176 707 114.036729289 702.238490913 122 692 c 2
 215 571 l 1
 145 571 l 1
 56.1986676643 645.780069335 53 649.18734576 53 669 c 0
EndSplineSet
EndChar

StartChar: exclam
Encoding: 33 33 120
Width: 281
GlyphClass: 1
Flags: W
HStem: -12 129<92.7337 188.139> 648 20G<96 185>
VStem: 76 129<4.73368 100.139> 96 89<378.944 668>
LayerCount: 2
Fore
SplineSet
205 52 m 0xe0
 205 16.5830650367 175.970324572 -12 140 -12 c 0
 104.961162739 -12 76 16.9611627389 76 52 c 0
 76 87.9703245718 104.583065037 117 140 117 c 0
 176.351721852 117 205 88.3517218522 205 52 c 0xe0
114 195 m 1
 96 496 l 1
 96 668 l 1
 185 668 l 1
 185 496 l 1xd0
 167 195 l 1
 114 195 l 1
EndSplineSet
EndChar

StartChar: quotedbl
Encoding: 34 34 121
Width: 301
GlyphClass: 1
Flags: W
HStem: 447 221<54 106 195 247>
VStem: 54 52<447 557.5> 195 52<447 557.5>
LayerCount: 2
Fore
SplineSet
54 447 m 1
 40 668 l 1
 120 668 l 1
 106 447 l 1
 54 447 l 1
195 447 m 1
 181 668 l 1
 261 668 l 1
 247 447 l 1
 195 447 l 1
EndSplineSet
EndChar

StartChar: numbersign
Encoding: 35 35 122
Width: 655
GlyphClass: 1
Flags: W
HStem: 0 21G<137 221.791 342 426.791> 172 81<49 162 255 366 460 572> 415 81<83 196 289 400 494 606> 648 20G<228.209 313 433.209 518>
VStem: 137 82<0 82> 231 82<586 668> 342 82<0 82> 436 82<586 668>
DStem2: 137 0 219 0 0.139346 0.990244<11.4263 173.806 266.974 419.173 512.341 674.581> 342 0 424 0 0.139346 0.990244<11.4263 173.666 266.974 419.033 512.341 674.581>
LayerCount: 2
Fore
SplineSet
255 253 m 1
 378 253 l 1
 400 415 l 1
 277 415 l 1
 255 253 l 1
137 0 m 1
 162 172 l 1
 38 172 l 1
 49 253 l 1
 173 253 l 1
 196 415 l 1
 72 415 l 1
 83 496 l 1
 207 496 l 1
 231 668 l 1
 313 668 l 1
 289 496 l 1
 412 496 l 1
 436 668 l 1
 518 668 l 1
 494 496 l 1
 617 496 l 1
 606 415 l 1
 482 415 l 1
 460 253 l 1
 583 253 l 1
 572 172 l 1
 448 172 l 1
 424 0 l 1
 342 0 l 1
 366 172 l 1
 243 172 l 1
 219 0 l 1
 137 0 l 1
EndSplineSet
EndChar

StartChar: dollar
Encoding: 36 36 123
Width: 594
GlyphClass: 1
Flags: W
HStem: -11 80<197.748 267 317 402.051> 600 79<192.239 267 317 385.026>
VStem: 47 96<444.281 555.874> 267 50<-87 -12 69 297 398 599 677.195 742> 457 97<118.277 240.819>
DStem2: 252 401 231 315 0.978791 -0.204863<-89.3349 15.2964 84.9272 196.197>
LayerCount: 2
Fore
SplineSet
317 68 m 1
 403.527673248 73.1658312386 457 115.94369264 457 180 c 0
 457 240.181469189 415.673054883 274.718987608 317 297 c 1
 317 68 l 1
267 600 m 1
 192.231390987 594.248568535 143 555.736915908 143 503 c 0
 143 450.612824012 181.218727996 414.84850974 252 401 c 2
 267 398 l 1
 267 600 l 1
554 188 m 0
 554 74.5094685686 459.528986862 -5.21290538758 317 -12 c 1
 317 -87 l 1
 267 -87 l 1
 267 -11 l 1
 154.079270483 -0.495746091592 73.9952341744 54.8927724127 40 146 c 1
 127 172 l 1
 149.666666667 112.666666666 196.333333334 78.3333333332 267 69 c 1
 267 308 l 1
 231 315 l 2
 113.409780562 338.006782064 47 404.055639905 47 498 c 0
 47 596.713353318 134.641729727 668.818594594 267 679 c 1
 267 742 l 1
 317 742 l 1
 317 679 l 1
 415.39631872 671.656991141 488.52896297 627.635399457 523 555 c 1
 437 530 l 1
 414.46130091 567.959914255 371.263918124 592.798409357 317 599 c 1
 317 386 l 1
 329 383 l 2
 498.158328281 338.484650453 554 290.088534963 554 188 c 0
EndSplineSet
EndChar

StartChar: percent
Encoding: 37 37 124
Width: 927
GlyphClass: 1
Flags: W
HStem: -12 74<644.244 771.175> 0 21G<186 288.012> 277 75<644.187 771.232> 317 74<156.354 283.204> 606 74<156.045 283.373> 648 20G<639.988 742>
VStem: 38 74<434.825 561.955> 186 88<0 88> 327 74<434.796 561.846> 526 74<106.244 233.512> 654 88<580 668> 815 74<106.354 233.404>
DStem2: 186 0 274 0 0.573791 0.819001<50.4936 815.627>
LayerCount: 2
Fore
SplineSet
600 170 m 0xa3f0
 600 110.064089399 648.064089399 62 708 62 c 0
 767.003478069 62 815 110.445087557 815 170 c 0
 815 229.265819333 767.265819333 277 708 277 c 0
 647.800375511 277 600 229.642220559 600 170 c 0xa3f0
889 170 m 0
 889 69.1431103045 808.302730961 -12 708 -12 c 0
 607.004858426 -12 526 69.0048584258 526 170 c 0
 526 270.995141574 607.004858426 352 708 352 c 0
 808.30273096 352 889 270.856889695 889 170 c 0
112 498 m 0
 112 438.996521931 160.445087557 391 220 391 c 0
 279.265819333 391 327 438.734180667 327 498 c 0
 327 558.199624489 279.642220559 606 220 606 c 0x1bf0
 159.422006164 606 112 558.577993836 112 498 c 0
186 0 m 1x47f0
 654 668 l 1
 742 668 l 1
 274 0 l 1
 186 0 l 1x47f0
401 498 m 0
 401 397.834022914 320.165977086 317 220 317 c 0
 119.143110305 317 38 397.697269039 38 498 c 0
 38 599.29790848 118.70209152 680 220 680 c 0x1bf0
 320.604811158 680 401 599.160638844 401 498 c 0
EndSplineSet
EndChar

StartChar: ampersand
Encoding: 38 38 125
Width: 705
GlyphClass: 1
Flags: W
HStem: -12 74<186.923 361.557> 0 21G<557.149 695> 606 74<246.414 387.049>
VStem: 38 90<118.045 260.828> 135 90<477.795 583.73> 409 82<472.377 583.896> 521 87<252.726 361> 576 119<0 119>
DStem2: 276.5 441 209 387 0.68836 -0.725369<-95.8355 -7.2944 107.862 305.932 406.499 526.052>
LayerCount: 2
Fore
SplineSet
128 187 m 0xbc
 128 115.264668909 185.525842421 62 263 62 c 0
 332.575019226 62 393.817883116 90.0263953395 440 143 c 1
 259 334 l 1
 170.462980528 303.012043185 128 255.362744425 128 187 c 0xbc
319 606 m 0
 261.461986672 606 225 580.399030635 225 540 c 0
 225 510.378815116 243.414907505 474.979284184 276.5 441 c 0
 288.833333339 428.333333328 296.666666668 419.666666666 300 415 c 1
 371.170804926 441.14437732 409 481.402970243 409 531 c 0
 409 579.294633959 376.953560751 606 319 606 c 0
494 87 m 1
 433.133932444 21.8874626147 354.063186343 -12 263 -12 c 0
 130.390199063 -12 38 68.0715058547 38 183 c 0
 38 278.551547811 97.2856304366 349.278264823 209 387 c 1
 158.064511434 443.927898986 135 490.991969613 135 538 c 0
 135 622.982989542 208.078140165 680 317 680 c 0
 424.716877067 680 491 625.14500171 491 536 c 0
 491 459.950105101 444.157364906 402.065991735 351 363 c 1
 487 219 l 1
 505.931302319 264.143874761 517.295439441 311.605859212 521 361 c 1
 608 361 l 1xbe
 602.460127217 286.211717436 580.83516031 215.058600515 546 157 c 1
 695 0 l 1
 576 0 l 1x7d
 494 87 l 1
EndSplineSet
EndChar

StartChar: quotesingle
Encoding: 39 39 126
Width: 160
GlyphClass: 1
Flags: W
HStem: 447 221<54 106>
VStem: 54 52<447 557.5>
LayerCount: 2
Fore
SplineSet
54 447 m 1
 40 668 l 1
 120 668 l 1
 106 447 l 1
 54 447 l 1
EndSplineSet
EndChar

StartChar: parenleft
Encoding: 40 40 127
Width: 300
GlyphClass: 1
Flags: W
HStem: -161 21G<101.949 265> 648 20G<81.6586 235>
LayerCount: 2
Fore
SplineSet
265 -161 m 1
 189 -161 l 1
 14.8971934271 86.2764499171 3.31710120937 417.307361935 160 668 c 1
 235 668 l 1
 75.8735604187 440.676514881 89.0160939771 77.5045042157 265 -161 c 1
EndSplineSet
EndChar

StartChar: parenright
Encoding: 41 41 128
Width: 300
GlyphClass: 1
Flags: W
HStem: -161 21G<35 198.428> 648 20G<66 218.795>
LayerCount: 2
Fore
SplineSet
112 -161 m 1
 35 -161 l 1
 211.81489471 78.6307125674 225.503663027 444.694871757 66 668 c 1
 141 668 l 1
 296.589302408 423.502524787 284.856887287 88.1172787346 112 -161 c 1
EndSplineSet
EndChar

StartChar: asterisk
Encoding: 42 42 129
Width: 433
GlyphClass: 1
Flags: W
HStem: 388 280
VStem: 187 57<562 668>
DStem2: 86 595 68 540 0.950549 -0.310575<0 105.916> 107 422 153 388 0.584802 0.811176<0 105.34> 261 508 215 474 0.590957 -0.806703<0.243887 106.607> 244 562 261 508 0.954146 0.29934<0.0561263 106.247>
LayerCount: 2
Fore
SplineSet
153 388 m 1
 107 422 l 1
 169 508 l 1
 68 540 l 1
 86 595 l 1
 187 562 l 1
 187 668 l 1
 244 668 l 1
 244 562 l 1
 345 595 l 1
 363 540 l 1
 261 508 l 1
 324 422 l 1
 278 388 l 1
 215 474 l 1
 153 388 l 1
EndSplineSet
EndChar

StartChar: plus
Encoding: 43 43 130
Width: 602
GlyphClass: 1
Flags: W
HStem: 0 21G<261 341> 208 80<53 261 341 549> 476 20G<261 341>
VStem: 261 80<0 208 288 496>
LayerCount: 2
Fore
SplineSet
261 0 m 1
 261 208 l 1
 53 208 l 1
 53 288 l 1
 261 288 l 1
 261 496 l 1
 341 496 l 1
 341 288 l 1
 549 288 l 1
 549 208 l 1
 341 208 l 1
 341 0 l 1
 261 0 l 1
EndSplineSet
EndChar

StartChar: comma
Encoding: 44 44 131
Width: 205
GlyphClass: 1
Flags: W
HStem: -133 250<92.3244 100>
DStem2: 45 -133 100 -133 0.359367 0.933196<19.7652 130.74>
LayerCount: 2
Fore
SplineSet
102 117 m 0
 148.646756246 117 178.945148185 72.0573852904 162 28 c 2
 100 -133 l 1
 45 -133 l 1
 92 -11 l 1
 60.5971345359 -5.53863209319 38 21.2431569864 38 53 c 0
 38 88.0388372611 66.9611627389 117 102 117 c 0
EndSplineSet
EndChar

StartChar: hyphen
Encoding: 45 45 132
Width: 368
GlyphClass: 1
Flags: W
HStem: 208 81<38 330>
VStem: 38 292<208 289>
LayerCount: 2
Fore
SplineSet
38 208 m 1
 38 289 l 1
 330 289 l 1
 330 208 l 1
 38 208 l 1
EndSplineSet
EndChar

StartChar: period
Encoding: 46 46 133
Width: 205
GlyphClass: 1
Flags: W
HStem: -12 129<54.7337 150.139>
VStem: 38 129<4.73368 100.139>
LayerCount: 2
Fore
SplineSet
167 52 m 0
 167 16.5830650367 137.970324572 -12 102 -12 c 0
 66.9611627389 -12 38 16.9611627389 38 52 c 0
 38 87.9703245719 66.5830650369 117 102 117 c 0
 138.351721852 117 167 88.3517218522 167 52 c 0
EndSplineSet
EndChar

StartChar: slash
Encoding: 47 47 134
Width: 377
GlyphClass: 1
Flags: W
HStem: 0 21G<15 109.784> 648 20G<267.216 362>
DStem2: 15 0 102 0 0.362716 0.9319<31.5563 716.815>
LayerCount: 2
Fore
SplineSet
15 0 m 1
 275 668 l 1
 362 668 l 1
 102 0 l 1
 15 0 l 1
EndSplineSet
EndChar

StartChar: braceleft
Encoding: 123 123 135
Width: 319
GlyphClass: 1
Flags: W
HStem: -161 71<197.685 285> 220 67<38 92.7878> 597 71<197.612 285>
VStem: 108 84<-84.9501 205.648 301.352 592.039>
CounterMasks: 1 e0
LayerCount: 2
Fore
SplineSet
192 -26 m 2
 192 -78.6501839999 201.044384625 -90 243 -90 c 2
 285 -90 l 1
 285 -161 l 1
 242 -161 l 2
 135.550888399 -161 108 -133.037904311 108 -25 c 2
 108 125 l 2
 108 196.612855964 90.7673675525 220 38 220 c 1
 38 287 l 1
 90.7673675525 287 108 310.387144036 108 382 c 2
 108 532 l 2
 108 640.25986288 135.332193927 668 242 668 c 2
 285 668 l 1
 285 597 l 1
 243 597 l 2
 201.496125909 597 192 585.083292977 192 533 c 2
 192 380 l 2
 192 306.176724993 169.047355611 269.568709892 113 254 c 1
 113 253 l 1
 169.312814487 238.180838293 192 201.996213298 192 127 c 2
 192 -26 l 2
EndSplineSet
EndChar

StartChar: bar
Encoding: 124 124 136
Width: 233
GlyphClass: 1
Flags: W
HStem: -161 21G<76 157> 648 20G<76 157>
VStem: 76 81<-161 668>
LayerCount: 2
Fore
SplineSet
76 -161 m 1
 76 668 l 1
 157 668 l 1
 157 -161 l 1
 76 -161 l 1
EndSplineSet
EndChar

StartChar: braceright
Encoding: 125 125 137
Width: 319
GlyphClass: 1
Flags: W
HStem: -161 71<34 121.315> 220 67<226.478 281> 597 71<34 121.388>
VStem: 127 84<-84.9501 204.126 301.649 592.039>
CounterMasks: 1 e0
LayerCount: 2
Fore
SplineSet
211 -25 m 2
 211 -133.037904312 183.449111601 -161 77 -161 c 2
 34 -161 l 1
 34 -90 l 1
 76 -90 l 2
 117.955615375 -90 127 -78.650184 127 -26 c 2
 127 127 l 2
 127 201.064655181 150.088071515 237.888667977 206 253 c 1
 206 254 l 1
 149.952644389 269.568709892 127 306.176724993 127 380 c 2
 127 533 l 2
 127 585.083292977 117.503874091 597 76 597 c 2
 34 597 l 1
 34 668 l 1
 77 668 l 2
 183.667806072 668 211 640.259862879 211 532 c 2
 211 382 l 2
 211 311.348096985 228.940703041 287 281 287 c 1
 281 220 l 1
 228.940703042 220 211 195.651903015 211 125 c 2
 211 -25 l 2
EndSplineSet
EndChar

StartChar: asciitilde
Encoding: 126 126 138
Width: 555
GlyphClass: 1
Flags: W
HStem: 195 73<291.392 427.546> 249 74<128.103 263.635>
LayerCount: 2
Fore
SplineSet
515 297 m 1x80
 499.874668432 233.748613441 448.20985051 195 379 195 c 0x80
 304.259754875 195 253.740245125 249 179 249 c 0
 144.239333694 249 121.437160427 231.185802135 115 199 c 1
 40 221 l 1
 55.1985922592 284.557749448 106.831811138 323 177 323 c 0x40
 254.2704247 323 300.7295753 268 378 268 c 0
 410.765776916 268 434.670247641 287.351238206 441 319 c 1
 515 297 l 1x80
EndSplineSet
EndChar

StartChar: exclamdown
Encoding: 161 161 139
Width: 281
GlyphClass: 1
Flags: W
HStem: -161 21G<96 185> 390 129<92.7337 188.139>
VStem: 76 129<406.734 502.139> 96 89<-161 127.667>
LayerCount: 2
Fore
SplineSet
96 -161 m 1xd0
 96 11 l 1
 114 311 l 1
 167 311 l 1
 185 11 l 1
 185 -161 l 1
 96 -161 l 1xd0
205 454 m 0xe0
 205 418.583065037 175.970324572 390 140 390 c 0
 104.961162739 390 76 418.961162739 76 454 c 0
 76 489.970324572 104.583065037 519 140 519 c 0
 176.351721852 519 205 490.351721852 205 454 c 0xe0
EndSplineSet
EndChar

StartChar: cent
Encoding: 162 162 140
Width: 500
GlyphClass: 1
Flags: W
HStem: -12 74<286 345.71> 425 76<193.294 236 286 354.639>
VStem: 38 91<142.408 352.612> 236 50<-87 -10 67 425 504 571>
LayerCount: 2
Fore
SplineSet
236 425 m 1
 168.483236799 406.586337308 129 341.272945593 129 248 c 0
 129 195.333333333 139.5 154.166666667 160.5 124.5 c 0
 181.5 94.8333333337 206.666666667 75.6666666668 236 67 c 1
 236 425 l 1
467 99 m 1
 431.969715372 35.9454876691 364.246643953 -5.58634065957 286 -12 c 1
 286 -87 l 1
 236 -87 l 1
 236 -10 l 1
 114.947881246 5.87568770552 38 105.75248306 38 247 c 0
 38 383.494021749 115.771383118 483.261351608 236 501 c 1
 236 571 l 1
 286 571 l 1
 286 504 l 1
 329.333333333 502.666666667 366.166666667 491.166666667 396.5 469.5 c 0
 426.833333334 447.833333332 449.666666667 422.333333332 465 393 c 1
 388 365 l 1
 366.666666667 403 332.666666667 424.666666667 286 430 c 1
 286 62 l 1
 330.487724577 66.9430805084 368.052722542 90.4212042365 390 127 c 1
 467 99 l 1
EndSplineSet
EndChar

StartChar: sterling
Encoding: 163 163 141
Width: 586
GlyphClass: 1
Flags: W
HStem: -12 78<328.381 522.84> 26 76<194.537 340.569> 318 51<70 156 272 453> 609 71<245.081 413.136>
VStem: 112 89<425.371 569.404> 202 88<160.686 315.291>
LayerCount: 2
Fore
SplineSet
235 26 m 0x7c
 194.847148951 26 150.807437846 13.5111267016 101 -12 c 1xbc
 73 55 l 1
 153.262241195 89.3981033694 202 154.003969693 202 226 c 0
 202 254.752240187 194.001168792 286.747565017 179 318 c 1
 70 318 l 1
 70 369 l 1
 156 369 l 1
 120.173294815 445.131748518 112 471.509199968 112 511 c 0
 112 614.9150481 197.111090946 680 333 680 c 0
 442.077943759 680 519.78993272 629.286542415 546 541 c 1
 463 516 l 1
 447.652465551 577.390137799 402.107072702 609 329 609 c 0
 249.443485656 609 201 570.7750621 201 508 c 0
 201 472.248491872 206.286631578 456.939287927 249 369 c 1
 453 369 l 1
 453 318 l 1
 272 318 l 1
 284.057825438 291.472784036 290 265.063119316 290 238 c 0
 290 178.162980119 256.57133641 126.627123752 194 90 c 1
 213.672946576 98.1006250608 233.169821272 102 254 102 c 0x7c
 326.501701627 102 349.498298373 66 422 66 c 0
 456.091880471 66 490.877601442 73.9783763695 531 91 c 1
 556 18 l 1
 509.654679351 -2.04121974024 468.159761602 -12 431 -12 c 0xbc
 347.170219398 -12 318.829780602 26 235 26 c 0x7c
EndSplineSet
EndChar

StartChar: currency
Encoding: 164 164 142
Width: 580
GlyphClass: 1
Flags: W
HStem: 103 75<215.457 364.021> 463 76<216.236 364.29>
VStem: 72 76<246.041 395.678> 432 76<246.506 395.29>
DStem2: 89 558 53 522 0.7063 -0.707913<0.0580521 96.5551 523.578 619.483> 53 119 89 84 0.7063 0.707913<0.649861 96.8892 523.902 620.075>
LayerCount: 2
Fore
SplineSet
148 321 m 0
 148 241.955208047 211.50796883 178 290 178 c 0
 368.797611607 178 432 241.647475635 432 321 c 0
 432 399.657738289 368.657738289 463 290 463 c 0
 211.64910784 463 148 399.35089216 148 321 c 0
290 103 m 0
 240.933146192 103 194.253483048 118.905662997 155 149 c 1
 89 84 l 1
 53 119 l 1
 119 185 l 1
 87.6666666666 225.666666667 72 271 72 321 c 0
 72 369.818003638 88.7059345966 417.803134926 119 456 c 1
 53 522 l 1
 89 558 l 1
 155 492 l 1
 193.550917357 522.840733885 239.965830666 539 290 539 c 0
 340.755482659 539 388.143461446 522.501962941 425 492 c 1
 491 558 l 1
 527 522 l 1
 461 456 l 1
 491.501962941 419.143461445 508 371.755482659 508 321 c 0
 508 270.597872318 491.665372182 223.331715227 461 185 c 1
 527 119 l 1
 491 84 l 1
 425 149 l 1
 387.501459071 119.259777885 339.782545713 103 290 103 c 0
EndSplineSet
EndChar

StartChar: yen
Encoding: 165 165 143
Width: 595
GlyphClass: 1
Flags: W
HStem: 0 21G<251 345> 86 51<101 251 345 494> 223 51<101 242 353 494> 648 20G<10 124.455 470.607 585>
VStem: 251 94<0 86 137 223>
DStem2: 113 668 10 668 0.507402 -0.861709<0 372.202> 298 345 353 274 0.507402 0.861709<0 371.694>
LayerCount: 2
Fore
SplineSet
251 0 m 1
 251 86 l 1
 101 86 l 1
 101 137 l 1
 251 137 l 1
 251 223 l 1
 101 223 l 1
 101 274 l 1
 242 274 l 1
 10 668 l 1
 113 668 l 1
 298 345 l 1
 482 668 l 1
 585 668 l 1
 353 274 l 1
 494 274 l 1
 494 223 l 1
 345 223 l 1
 345 137 l 1
 494 137 l 1
 494 86 l 1
 345 86 l 1
 345 0 l 1
 251 0 l 1
EndSplineSet
EndChar

StartChar: brokenbar
Encoding: 166 166 144
Width: 233
GlyphClass: 1
Flags: W
HStem: -161 21G<76 157> 648 20G<76 157>
VStem: 76 81<-161 149 358 668>
LayerCount: 2
Fore
SplineSet
76 -161 m 1
 76 149 l 1
 157 149 l 1
 157 -161 l 1
 76 -161 l 1
76 358 m 1
 76 668 l 1
 157 668 l 1
 157 358 l 1
 76 358 l 1
EndSplineSet
EndChar

StartChar: section
Encoding: 167 167 145
Width: 530
GlyphClass: 1
Flags: W
HStem: -173 70<187.775 339.663> 610 70<178.997 329.475>
VStem: 31 84<240.979 341.884> 76 86<507.103 591.475> 363 86<-81.5058 16.8906> 416 84<176.435 280.408>
DStem2: 201 195 160 124 0.879543 -0.475819<-100.28 153.232> 257 456 218 387 0.88025 -0.47451<-21.2985 226.023>
LayerCount: 2
Fore
SplineSet
218 387 m 1xe4
 155.260470195 368.700970473 115 332.349283792 115 294 c 0
 115 254.491385144 135.279673547 231.146179549 201 195 c 2
 323 129 l 1
 382.635683249 153.555869573 416 188.3552107 416 226 c 0
 416 262.787616232 392.980764173 293.041469033 346 318 c 2
 218 387 l 1xe4
449 -23 m 0xc8
 449 -113.5797855 374.526664493 -173 261 -173 c 0
 162.193384285 -173 91.1199497148 -125.73982959 67 -44 c 1
 150 -20 l 1
 164.261305229 -75.6190903936 201.538929151 -103 263 -103 c 0
 325.478706609 -103 363 -77.860733428 363 -36 c 0
 363 6.27483927772 331.170854729 39.2720265772 254 77 c 2
 160 124 l 2
 74.5008623465 167.556164465 31 223.19680235 31 289 c 0xe8
 31 348.916666128 75.9605970542 399.497337814 151 424 c 1
 100.600233898 458.75845938 76 500.086852329 76 550 c 0
 76 626.397652584 150.630960633 680 257 680 c 0
 345.366124706 680 411.442455961 641.515982895 439 574 c 1
 358 550 l 1
 343.383907223 588.976247404 306.59234018 610 253 610 c 0
 196.472501605 610 162 588.02851546 162 552 c 0
 162 520.104462836 191.30729473 490.488670267 257 456 c 2
 371 398 l 2
 457.906378169 352.937433541 500 302.033518769 500 242 c 0xd4
 500 177.906118024 458.414307044 123.302295099 385 91 c 1
 429.231998389 57.4446908784 449 22.2329380084 449 -23 c 0xc8
EndSplineSet
EndChar

StartChar: dieresis
Encoding: 168 168 146
Width: 425
GlyphClass: 1
Flags: W
HStem: 590 107<63.7804 150.41 275.503 361.41>
VStem: 53 108<601.373 686.497> 265 107<600.702 686.574>
LayerCount: 2
Fore
SplineSet
372 644 m 0
 372 613.707428502 348.292571498 590 318 590 c 0
 288.640977983 590 265 614.087034171 265 644 c 0
 265 673.620828901 288.379171099 697 318 697 c 0
 348.557142186 697 372 673.991269182 372 644 c 0
161 644 m 0
 161 613.707428502 137.292571498 590 107 590 c 0
 77.3553160648 590 53 614.355316065 53 644 c 0
 53 673.359022017 77.0870341712 697 107 697 c 0
 137.557142186 697 161 673.991269182 161 644 c 0
EndSplineSet
EndChar

StartChar: copyright
Encoding: 169 169 147
Width: 798
GlyphClass: 1
Flags: W
HStem: -12 62<295.298 502.702> 150 59<342.468 465.358> 473 58<341.195 460.031> 618 62<295.298 502.702>
VStem: 53 62<230.298 437.702> 227 76<251.344 431.004> 683 62<230.298 437.702>
LayerCount: 2
Fore
SplineSet
550 230 m 1
 521.148601069 178.371180859 468.307276719 150 401 150 c 0
 290.857056163 150 227 220.462958525 227 342 c 0
 227 459.814980604 293.28869531 531 403 531 c 0
 469.070721531 531 519.890173636 502.260723637 548 449 c 1
 481 424 l 1
 463.666666667 456.666666667 437 473 401 473 c 0
 338.624599169 473 303 425.379362335 303 342 c 0
 303 258.022608922 339.121922364 209 401 209 c 0
 440.028129068 209 468.6768755 224.532452885 484 254 c 1
 550 230 l 1
115 334 m 0
 115 176.331302459 241.331302459 50 399 50 c 0
 556.668697541 50 683 176.331302459 683 334 c 0
 683 491.668697541 556.668697541 618 399 618 c 0
 241.331302459 618 115 491.668697541 115 334 c 0
745 334 m 0
 745 142.800581292 590.199418708 -12 399 -12 c 0
 207.800581292 -12 53 142.800581292 53 334 c 0
 53 525.199418708 207.800581292 680 399 680 c 0
 590.199418708 680 745 525.199418708 745 334 c 0
EndSplineSet
EndChar

StartChar: questiondown
Encoding: 191 191 148
Width: 520
GlyphClass: 1
Flags: W
HStem: -174 70<180.897 342.45> 390 129<244.861 340.266>
VStem: 49 88<-62.5862 63.1216> 228 129<406.861 502.266> 251 86<221.439 316> 397 82<-48.156 -16.0366>
LayerCount: 2
Fore
SplineSet
479 -18 m 1xec
 459.016493359 -113.920831877 373.904338518 -174 258 -174 c 0
 133.054510524 -174 49 -108.043350594 49 -10 c 0
 49 61.3859783666 90.8808094437 124.37471577 174 178 c 0
 238.891890352 220.515376438 251 236.869186871 251 282 c 2
 251 316 l 1
 337 316 l 1
 337 279 l 2
 337 211.036583758 314.150934725 178.967720214 223 119 c 0
 164.13108705 83.0245531969 137 44.8517446733 137 -2 c 0
 137 -64.2706805206 185.687891519 -104 262 -104 c 0
 335.54817659 -104 386.568313274 -62.8059637145 397 5 c 1
 479 -18 l 1xec
357 455 m 0xf4
 357 419.029675428 328.416934963 390 293 390 c 0
 256.648278148 390 228 418.648278148 228 455 c 0
 228 490.416934963 257.029675428 519 293 519 c 0
 328.038837261 519 357 490.038837261 357 455 c 0xf4
EndSplineSet
EndChar

StartChar: germandbls
Encoding: 223 223 149
Width: 597
GlyphClass: 1
Flags: W
HStem: -12 74<302 407.126> 0 21G<76 160> 330 76<279 384.519> 611 69<217.361 392.16>
VStem: 76 84<0 553.853> 435 85<451.729 570.897> 469 90<118.435 272.08>
LayerCount: 2
Fore
SplineSet
520 521 m 0x7c
 520 452.072926545 487.119996623 404.396921648 420 376 c 1
 512.208217053 352.557232953 559 292.300188726 559 197 c 0
 559 65.3083746035 469.115143404 -12 316 -12 c 2
 302 -12 l 1
 279 65 l 1
 293 63 306 62 318 62 c 0
 414.402610548 62 469 110.089091372 469 195 c 0xba
 469 284.404076346 408.880930293 330 291 330 c 2
 279 330 l 1
 279 406 l 1
 285 406 l 2
 378.389024401 406 435 445.627682919 435 511 c 0
 435 570.826016966 385.184261037 611 311 611 c 0
 203.994081918 611 160 564.966457331 160 453 c 2
 160 0 l 1
 76 0 l 1
 76 453 l 2
 76 607.984415657 150.870827775 680 312 680 c 0
 436.11399562 680 520 615.875602421 520 521 c 0x7c
EndSplineSet
EndChar

StartChar: AE
Encoding: 198 198 150
Width: 998
GlyphClass: 1
Flags: W
HStem: 0 81<600 960> 145 81<279 506> 303 81<600 866> 587 81<600 960>
VStem: 10 109<0 109> 506 94<81 145 226 303 384 546>
DStem2: 10 0 119 0 0.588316 0.808631<64.1264 242.563 341.008 341.008>
AnchorPoint: "Anchor-0" 659 668 basechar 0
LayerCount: 2
Fore
SplineSet
279 226 m 1
 506 226 l 1
 506 546 l 1
 279 226 l 1
10 0 m 1
 496 668 l 1
 960 668 l 1
 960 587 l 1
 600 587 l 1
 600 384 l 1
 866 384 l 1
 866 303 l 1
 600 303 l 1
 600 81 l 1
 960 81 l 1
 960 0 l 1
 506 0 l 1
 506 145 l 1
 223 145 l 1
 119 0 l 1
 10 0 l 1
EndSplineSet
EndChar

StartChar: florin
Encoding: 279 402 151
Width: 321
GlyphClass: 1
Flags: W
HStem: -173 80<25.6785 97.318> 429 67<25 109 193 296> 635 71<198.355 296>
VStem: 109 84<-79.5813 429 496 629.834>
LayerCount: 2
Fore
SplineSet
193 -27 m 2
 193 -122.505630195 153.918741179 -173 80 -173 c 0
 61.6861317603 -173 43.9921596564 -170.42633133 25 -165 c 1
 25 -90 l 1
 35 -92 43.6666666667 -93 51 -93 c 0
 89.8298823822 -93 109 -70.1941704202 109 -24 c 2
 109 429 l 1
 25 429 l 1
 25 496 l 1
 109 496 l 1
 109 570 l 2
 109 677.747794635 136.628994953 706 242 706 c 2
 296 706 l 1
 296 635 l 1
 244 635 l 2
 203.107742963 635 193 622.315773537 193 571 c 2
 193 496 l 1
 296 496 l 1
 296 429 l 1
 193 429 l 1
 193 -27 l 2
EndSplineSet
EndChar

StartChar: integral
Encoding: 280 8747 152
Width: 458
GlyphClass: 1
Flags: W
HStem: -173 112<68.74 142.203> 569 112<315.825 389.26>
VStem: 53 99<-126.761 -70.2232> 189 84<-92.6785 611.044> 305 100<578.215 634.761>
LayerCount: 2
Fore
SplineSet
273 44 m 0
 273 -101.261413744 228.370003942 -173 138 -173 c 0
 83.3153304992 -173 53 -150.887641283 53 -111 c 0
 53 -83.3801691687 75.3801691687 -61 103 -61 c 0
 130.760974543 -61 152 -83.1059244554 152 -112 c 2
 152 -119.5 l 2
 152 -121.833333331 151.333333333 -124.333333331 150 -127 c 1
 176.809371493 -122.531771419 189 -92.5240704785 189 -31 c 0
 189 185.157266811 185 247.842733189 185 464 c 0
 185 608.290368158 230.234102759 681 320 681 c 0
 374.684669501 681 405 658.887641283 405 619 c 0
 405 590.740272279 383.259727721 569 355 569 c 0
 327.349460568 569 305 591.349460568 305 619 c 0
 305 625 306 630.333333333 308 635 c 1
 281.203148643 630.533858108 269 600.182437124 269 538 c 0
 269 321.845272023 273 260.154727977 273 44 c 0
EndSplineSet
EndChar

StartChar: approxequal
Encoding: 281 8776 153
Width: 581
GlyphClass: 1
Flags: W
HStem: 97 73<304.392 440.546> 151 74<141.103 276.635> 283 73<306.557 440.638> 337 74<141.933 277.443>
VStem: 53 75<120.947 137.43 306.947 323.559> 454 74<184.631 201.081 370.631 387.081>
LayerCount: 2
Fore
SplineSet
192 151 m 0x4c
 157.239333694 151 134.437160427 133.185802135 128 101 c 1
 53 123 l 1
 68.1985922592 186.557749448 119.831811138 225 190 225 c 0x4c
 267.2704247 225 313.7295753 170 391 170 c 0
 423.765776916 170 447.670247641 189.351238206 454 221 c 1
 528 199 l 1
 512.874668432 135.748613441 461.20985051 97 392 97 c 0x8c
 317.259754875 97 266.740245125 151 192 151 c 0x4c
192 337 m 0x1c
 157.239333694 337 134.437160427 319.185802135 128 287 c 1
 53 309 l 1
 69.74923979 373.205419194 121.253619515 411 192 411 c 0x1c
 269.269034 411 314.730966 356 392 356 c 0
 424.41230676 356 447.617653881 375.088269406 454 407 c 1
 528 385 l 1
 512.874668432 321.748613441 461.20985051 283 392 283 c 0x2c
 317.259754875 283 266.740245125 337 192 337 c 0x1c
EndSplineSet
EndChar

StartChar: notequal
Encoding: 282 8800 154
Width: 602
GlyphClass: 1
Flags: W
HStem: 0 21G<77 191.05> 121 79<53 162 317 549> 307 80<53 292 448 549> 476 20G<410.872 524>
VStem: 77 100<0 100> 425 99<397 496>
DStem2: 77 0 177 0 0.574348 0.818611<57.4348 147.872 301.566 374.798 529.886 605.904>
LayerCount: 2
Fore
SplineSet
77 0 m 1
 162 121 l 1
 53 121 l 1
 53 200 l 1
 218 200 l 1
 292 307 l 1
 53 307 l 1
 53 387 l 1
 348 387 l 1
 425 496 l 1
 524 496 l 1
 448 387 l 1
 549 387 l 1
 549 307 l 1
 392 307 l 1
 317 200 l 1
 549 200 l 1
 549 121 l 1
 262 121 l 1
 177 0 l 1
 77 0 l 1
EndSplineSet
EndChar

StartChar: lessequal
Encoding: 283 8804 155
Width: 579
GlyphClass: 1
Flags: W
HStem: 0 80<53 526> 100 90<436 526> 414 91<435 526>
VStem: 53 105<214.5 389.5>
LayerCount: 2
Fore
SplineSet
53 0 m 1
 53 80 l 1
 526 80 l 1
 526 0 l 1
 53 0 l 1
526 100 m 1
 53 267 l 1
 53 337 l 1
 526 505 l 1
 526 414 l 1
 158 302 l 1
 526 190 l 1
 526 100 l 1
EndSplineSet
EndChar

StartChar: greaterequal
Encoding: 284 8805 156
Width: 579
GlyphClass: 1
Flags: W
HStem: 0 80<53 526> 100 90<53 143> 414 91<53 144>
VStem: 421 105<214.5 389.5>
LayerCount: 2
Fore
SplineSet
53 0 m 1
 53 80 l 1
 526 80 l 1
 526 0 l 1
 53 0 l 1
53 100 m 1
 53 190 l 1
 421 302 l 1
 53 414 l 1
 53 505 l 1
 526 337 l 1
 526 267 l 1
 53 100 l 1
EndSplineSet
EndChar

StartChar: lozenge
Encoding: 285 9674 157
Width: 561
GlyphClass: 1
Flags: W
VStem: 53 87<271.5 358.5> 421 87<271.5 358.5>
DStem2: 53 315 140 315 0.506632 0.862163<44.077 321.569> 140 315 53 315 0.506632 -0.862163<0 277.492> 281 703 281 554 0.504977 -0.863133<128.607 405.592> 281 76 281 -73 0.504977 0.863133<0 276.986>
LayerCount: 2
Fore
SplineSet
281 76 m 1
 421 315 l 1
 281 554 l 1
 140 315 l 1
 281 76 l 1
281 -73 m 1
 53 315 l 1
 281 703 l 1
 508 315 l 1
 281 -73 l 1
EndSplineSet
EndChar

StartChar: summation
Encoding: 286 8721 158
Width: 587
GlyphClass: 1
Flags: W
HStem: -161 81<154 534> 587 81<154 534>
DStem2: 154 587 53 587 0.594187 -0.804327<0 353.998> 53 -80 154 -80 0.593035 0.805177<59.8965 414.816>
LayerCount: 2
Fore
SplineSet
53 -161 m 1
 53 -80 l 1
 299 254 l 1
 53 587 l 1
 53 668 l 1
 534 668 l 1
 534 587 l 1
 154 587 l 1
 399 254 l 1
 154 -80 l 1
 534 -80 l 1
 534 -161 l 1
 53 -161 l 1
EndSplineSet
EndChar

StartChar: minus
Encoding: 287 8722 159
Width: 602
GlyphClass: 1
Flags: W
HStem: 209 79<53 549>
LayerCount: 2
Fore
SplineSet
53 209 m 1
 53 288 l 1
 549 288 l 1
 549 209 l 1
 53 209 l 1
EndSplineSet
EndChar

StartChar: uni2215
Encoding: 288 8725 160
Width: 598
GlyphClass: 1
Flags: W
HStem: 0 21G<15 128.991> 649 20G<469.009 583>
VStem: 15 100<0 100> 483 100<569 669>
DStem2: 15 0 115 0 0.573216 0.819405<57.3216 816.447>
LayerCount: 2
Fore
SplineSet
15 0 m 1
 483 669 l 1
 583 669 l 1
 115 0 l 1
 15 0 l 1
EndSplineSet
EndChar

StartChar: uni2219
Encoding: 289 8729 161
Width: 235
GlyphClass: 1
Flags: W
HStem: 191 129<69.7271 165.176>
VStem: 53 129<208.087 303.266>
LayerCount: 2
Fore
SplineSet
182 256 m 0
 182 220.675524087 152.781022437 191 118 191 c 0
 81.3128697802 191 53 218.877287168 53 255 c 0
 53 291.351721852 81.6482781478 320 118 320 c 0
 153.038837261 320 182 291.038837261 182 256 c 0
EndSplineSet
EndChar

StartChar: radical
Encoding: 290 8730 162
Width: 582
GlyphClass: 1
Flags: W
HStem: -161 21G<271.157 381.639> 145 80<53 159> 649 20G<437.516 529>
VStem: 441 88<581 669>
DStem2: 215 225 159 145 0.365088 -0.930973<54.033 281.519> 318 -37 378 -161 0.17899 0.983851<0 716.615>
LayerCount: 2
Fore
SplineSet
279 -161 m 1
 159 145 l 1
 53 145 l 1
 53 225 l 1
 215 225 l 1
 318 -37 l 1
 441 669 l 1
 529 669 l 1
 378 -161 l 1
 279 -161 l 1
EndSplineSet
EndChar

StartChar: infinity
Encoding: 291 8734 163
Width: 773
GlyphClass: 1
Flags: W
HStem: 104 76<158.495 283.809 490.898 614.505> 198 119<327.5 446.5> 330 76<157.871 284.294 489.369 615.129>
VStem: 53 81<204.643 306.695> 639 81<204.643 306.695>
LayerCount: 2
Fore
SplineSet
435 256 m 1
 481.431583358 200.28209997 513.722821468 180 556 180 c 0
 603.008815256 180 639 212.955783621 639 256 c 0
 639 300.191166552 604.357301669 330 553 330 c 0
 512.630492802 330 480.364609326 309.765462905 435 256 c 1
134 256 m 0
 134 212.955783621 169.991184744 180 217 180 c 0
 260.38923191 180 294.8591436 201.473059741 339 256 c 1
 293.357661562 310.094623334 261.34766395 330 220 330 c 0
 168.642698331 330 134 300.191166552 134 256 c 0
560 104 m 0
 499.640110523 104 447.190392127 132.49869092 387 198 c 1
 326.546531832 132.212402287 274.323574406 104 213 104 c 0
 118.004223482 104 53 165.754012308 53 256 c 0
 53 344.543490472 121.011870544 406 219 406 c 0
 278.617220982 406 331.000710635 378.249222743 387 317 c 1
 443.430014794 378.720328681 494.617712662 406 554 406 c 0
 651.988129456 406 720 344.543490472 720 256 c 0
 720 165.754012308 654.995776518 104 560 104 c 0
EndSplineSet
EndChar

StartChar: uni03A9
Encoding: 292 937 164
Width: 687
GlyphClass: 1
Flags: W
HStem: 0 173<234.779 286 401 452.221> 0 81<50 201 486 637> 606 74<248.299 438.089>
VStem: 50 73<289.48 480.239> 201 85<81 143.253> 401 85<81 143.109> 564 73<289.176 480.249>
LayerCount: 2
Fore
SplineSet
123 385 m 0xbe
 123 285.233666145 188.573628596 199.94771975 286 173 c 1
 286 0 l 1xbe
 50 0 l 1
 50 81 l 1
 201 81 l 1
 201 130 l 1
 107.135897797 183.236356474 50 279.724130899 50 385 c 0
 50 548.622133613 180.487168988 680 343 680 c 0
 505.625210122 680 637 548.178357095 637 385 c 0
 637 278.636600563 580.133717068 182.604136008 486 130 c 1
 486 81 l 1
 637 81 l 1
 637 0 l 1x7e
 401 0 l 1
 401 173 l 1
 498.426371404 199.947719751 564 285.233666145 564 385 c 0
 564 506.992013989 464.992013989 606 343 606 c 0
 222.001395604 606 123 506.548598052 123 385 c 0xbe
EndSplineSet
EndChar

StartChar: estimated
Encoding: 293 8494 165
Width: 622
GlyphClass: 1
Flags: W
HStem: -12 32<229.789 393.552> 248 31<159 463> 472 32<229.198 393.562>
VStem: 53 106<149.688 248 279 351.109> 463 106<279 347.821>
LayerCount: 2
Fore
SplineSet
311 472 m 0
 253.462630484 472 199.965866468 451.234808704 159 413 c 1
 159 279 l 1
 463 279 l 1
 463 413 l 1
 422.034133531 451.234808705 368.537369516 472 311 472 c 0
514 87 m 1
 465.227325935 24.2922762022 390.809830288 -12 311 -12 c 0
 163.960426089 -12 53 103.261217798 53 256 c 0
 53 389.591348051 172.021904044 504 311 504 c 0
 453.906394397 504 569 389.79859289 569 248 c 1
 159 248 l 1
 159 78 l 1
 200.690425026 40.4786174765 254.358525999 20 311 20 c 0
 376.069726169 20 437.407118617 47.7822306971 481 97 c 1
 514 87 l 1
EndSplineSet
EndChar

StartChar: partialdiff
Encoding: 294 8706 166
Width: 582
GlyphClass: 1
Flags: W
HStem: -12 73<216.816 364.092> 430 74<216.794 364.875> 598 82<142 308.635>
VStem: 53 89<146.727 345.031> 439 91<144.992 344.686>
LayerCount: 2
Fore
SplineSet
142 246 m 0
 142 136.507252701 202.813949473 61 291 61 c 0
 379.198812965 61 439 135.751483794 439 246 c 0
 439 355.586312991 379.145512623 430 291 430 c 0
 202.86648404 430 142 354.836019709 142 246 c 0
530 277 m 0
 530 92.2702470509 443.769588079 -12 291 -12 c 0
 148.896399113 -12 53 91.9549200466 53 246 c 0
 53 400.24438159 148.712547215 504 291 504 c 0
 345.617387558 504 396.429379025 483.213276218 423 450 c 1
 388.879485087 559.185647722 305.895701831 602.89240901 142 598 c 1
 142 680 l 1
 415.960184558 680 530 561.551428807 530 277 c 0
EndSplineSet
EndChar

StartChar: uni0394
Encoding: 295 916 167
Width: 759
GlyphClass: 1
Flags: W
HStem: 0 78<178 580> 660 20G<369.412 388.618>
DStem2: 53 0 178 78 0.4323 0.90173<124.372 589.991> 379 680 379 498 0.433377 -0.901213<164.021 629.639>
LayerCount: 2
Fore
SplineSet
178 78 m 1
 580 78 l 1
 379 498 l 1
 178 78 l 1
53 0 m 1
 379 680 l 1
 706 0 l 1
 53 0 l 1
EndSplineSet
EndChar

StartChar: product
Encoding: 296 8719 168
Width: 585
GlyphClass: 1
Flags: W
HStem: -161 21G<53 134 450 532> 587 81<134 450>
VStem: 53 81<-161 587> 450 82<-161 587>
LayerCount: 2
Fore
SplineSet
53 -161 m 1
 53 668 l 1
 532 668 l 1
 532 -161 l 1
 450 -161 l 1
 450 587 l 1
 134 587 l 1
 134 -161 l 1
 53 -161 l 1
EndSplineSet
EndChar

StartChar: pi
Encoding: 297 960 169
Width: 591
GlyphClass: 1
Flags: W
HStem: 0 74<471.338 551> 414 82<20 104 185 383 467 551>
VStem: 104 81<0 414> 383 84<78.6045 414>
LayerCount: 2
Fore
SplineSet
500 0 m 2
 404.833170365 0 383 23.1394284209 383 124 c 2
 383 414 l 1
 185 414 l 1
 185 0 l 1
 104 0 l 1
 104 414 l 1
 20 414 l 1
 20 496 l 1
 551 496 l 1
 551 414 l 1
 467 414 l 1
 467 139 l 2
 467 83.5016120369 474.455110983 74 518 74 c 2
 551 74 l 1
 551 0 l 1
 500 0 l 2
EndSplineSet
EndChar

StartChar: hungarumlaut
Encoding: 298 733 170
Width: 414
GlyphClass: 1
Flags: W
HStem: 572 136
VStem: 53 308
LayerCount: 2
Fore
SplineSet
323 708 m 0
 343.238603557 708 361 690.238603557 361 670 c 0
 361 657.693822009 357.703867523 649.60331502 350 643 c 2
 269 572 l 1
 199 572 l 1
 295 695 l 2
 301.666666667 703.666666667 311 708 323 708 c 0
177 708 m 0
 198.528804758 708 215 691.528804758 215 670 c 0
 215 657.693822009 211.703867523 649.60331502 204 643 c 2
 123 572 l 1
 53 572 l 1
 149 695 l 2
 155.666666667 703.666666667 165 708 177 708 c 0
EndSplineSet
EndChar

StartChar: tilde
Encoding: 299 732 171
Width: 435
GlyphClass: 1
Flags: W
HStem: 575 63<222.551 316.637> 618 63<123.921 220.799>
VStem: 53 65<577 611.459>
LayerCount: 2
Fore
SplineSet
382 649 m 0xa0
 382 613.39388275 331.672883422 575 285 575 c 0xa0
 241.129814037 575 203.870185963 618 160 618 c 0
 135.333333333 618 121.333333333 604.333333333 118 577 c 1
 53 577 l 1
 64.3688707407 643.950016585 102.131353837 681 159 681 c 0x60
 214.652082353 681 227.347917647 638 283 638 c 0
 321.791289695 638 312.208710305 680 351 680 c 0
 368.520291768 680 382 666.520291768 382 649 c 0xa0
EndSplineSet
EndChar

StartChar: endash
Encoding: 300 8211 172
Width: 480
GlyphClass: 1
InSpiro: 1
Flags: W
HStem: 208 79<41 439>
LayerCount: 2
Fore
SplineSet
41 208 m 1
 41 287 l 1
 439 287 l 1
 439 208 l 1
 41 208 l 1
EndSplineSet
EndChar

StartChar: emdash
Encoding: 301 8212 173
Width: 800
GlyphClass: 1
Flags: W
HStem: 208 79<41 759>
LayerCount: 2
Fore
SplineSet
41 208 m 1
 41 287 l 1
 759 287 l 1
 759 208 l 1
 41 208 l 1
EndSplineSet
EndChar

StartChar: trademark
Encoding: 302 8482 174
Width: 848
GlyphClass: 1
Flags: W
HStem: 292 92<512 676> 608 60<53 171 238 356>
VStem: 171 67<292 608> 393 67<292 571> 728 67<292 571>
DStem2: 501 668 460 571 0.311204 -0.950343<79.4239 298.839> 594 384 630 292 0.311204 0.950343<0 219.415>
LayerCount: 2
Fore
SplineSet
171 292 m 1
 171 608 l 1
 53 608 l 1
 53 668 l 1
 356 668 l 1
 356 608 l 1
 238 608 l 1
 238 292 l 1
 171 292 l 1
393 292 m 1
 393 668 l 1
 501 668 l 1
 594 384 l 1
 687 668 l 1
 795 668 l 1
 795 292 l 1
 728 292 l 1
 728 571 l 1
 630 292 l 1
 558 292 l 1
 460 571 l 1
 460 292 l 1
 393 292 l 1
EndSplineSet
EndChar

StartChar: uni2113
Encoding: 303 8467 175
Width: 450
GlyphClass: 1
Flags: W
HStem: -12 73<221.172 336.082> 610 70<217.218 299.769>
VStem: 53 151<138 227> 119 85<79.8993 188 344 598.867> 312 82<441.054 598.679>
DStem2: 53 227 119 188 0.790478 0.61249<0 28.2845 191.024 311.985>
LayerCount: 2
Fore
SplineSet
259 610 m 0xd8
 218.789841529 610 204 585.260628715 204 518 c 2
 204 344 l 1
 275.605721761 393.868270512 312 458.232225545 312 535 c 0
 312 584.451191489 293.945508652 610 259 610 c 0xd8
397 42 m 1
 359.678285485 7.92365196444 309.500199056 -12 261 -12 c 0
 161.122744888 -12 119 37.8353601493 119 156 c 2
 119 188 l 1xd8
 53 138 l 1
 53 227 l 1xe8
 119 278 l 1
 119 507 l 2
 119 623.768834573 166.130167554 680 264 680 c 0
 344.279080895 680 394 625.689457593 394 538 c 0
 394 431.519600282 342.539773435 353.787573839 204 251 c 1xd8
 204 151 l 2xe8
 204 88.6606554914 224.59182131 61 271 61 c 0
 300.329042518 61 328.18035065 73.2045058106 360 100 c 1
 397 42 l 1
EndSplineSet
EndChar

StartChar: Lslash
Encoding: 304 321 176
Width: 573
GlyphClass: 1
Flags: W
HStem: 0 81<204 563> 216 71<20 91> 434 71<313 384> 649 20G<110 204>
VStem: 110 94<81 270 397 669>
DStem2: 20 287 20 216 0.857909 0.513802<0 68.4771 214.373 387.808>
LayerCount: 2
Fore
SplineSet
110 0 m 1
 110 270 l 1
 20 216 l 1
 20 287 l 1
 110 340 l 1
 110 669 l 1
 204 669 l 1
 204 397 l 1
 384 505 l 1
 384 434 l 1
 204 326 l 1
 204 81 l 1
 563 81 l 1
 563 0 l 1
 110 0 l 1
EndSplineSet
EndChar

StartChar: lslash
Encoding: 305 322 177
Width: 237
GlyphClass: 1
Flags: W
HStem: 0 74<160.091 222> 365 71<151 222> 648 20G<68 152>
VStem: 68 154<25.8781 74 365 394> 68 84<78.549 273 394 668>
AnchorPoint: "Anchor-1" 145 0 basechar 0
AnchorPoint: "Anchor-0" 117 668 basechar 0
LayerCount: 2
Fore
SplineSet
152 139 m 2xe8
 152 84.3315982644 160.265278658 73.9999999416 204 74 c 2
 222 74 l 1
 222 0 l 1xf0
 185 0 l 2
 89.6851454216 0 67.9999968185 22.9825506562 68 124 c 2
 68 273 l 1
 15 242 l 1
 15 312 l 1
 68 344 l 1
 68 668 l 1
 152 668 l 1
 152 394 l 1xe8
 222 436 l 1
 222 365 l 1xf0
 152 323 l 1
 152 139 l 2xe8
EndSplineSet
EndChar

StartChar: oslash
Encoding: 248 248 178
Width: 552
GlyphClass: 1
Flags: W
HStem: -12 74<202.811 350.059> 430 74<201.828 349.601>
VStem: 38 89<147.859 344.99> 424 90<144.968 348.614>
DStem2: 45 24 83 -9 0.648973 0.760811<0 65.1433 159.663 483.31 570.125 634.403>
AnchorPoint: "Anchor-0" 276 496 basechar 0
LayerCount: 2
Fore
SplineSet
178 103 m 1
 204.545876221 76.4541237787 239.094757448 62 276 62 c 0
 364.145512623 62 424 136.413687009 424 246 c 0
 424 290.954929295 415.03334878 328.482025142 397 359 c 1
 178 103 l 1
276 430 m 0
 187.86648404 430 127 354.836019709 127 246 c 0
 127 207.551280184 134.078911791 173.842176419 148 146 c 1
 364 398 l 1
 340.733387819 418.817495109 309.981499368 430 276 430 c 0
514 246 m 0
 514 91.954920046 418.103600888 -12 276 -12 c 0
 218.185662599 -12 164.868652065 6.36082481967 125 40 c 1
 83 -9 l 1
 45 24 l 1
 89 77 l 1
 55.2514143824 122.487224093 38 179.653675674 38 246 c 0
 38 400.045079953 133.896399113 504 276 504 c 0
 328.917952748 504 377.109866621 488.853969926 416 460 c 1
 457 507 l 1
 495 474 l 1
 454 425 l 1
 493.559110959 379.58028001 514 318.598294372 514 246 c 0
EndSplineSet
EndChar

StartChar: Oslash
Encoding: 216 216 179
Width: 727
GlyphClass: 1
Flags: W
HStem: -12 79<268.771 455.779> 599 81<270.4 457.74> 653 20G<599.175 640.375>
VStem: 50 96<206.435 459.614> 581 96<206.978 459.046>
DStem2: 65 27 103 -6 0.649047 0.760749<0 86.7641 186.561 669.115 766.742 849.068>
AnchorPoint: "Anchor-0" 364 668 basechar 0
LayerCount: 2
Fore
SplineSet
363 67 m 0x98
 494.396988574 67 581 172.6715644 581 333 c 0
 581 399.83153355 566.396797853 457.565123435 538 503 c 1
 217 127 l 1
 255.666666667 86.9999999997 304.333333333 67 363 67 c 0x98
363 599 m 0xd8
 231.420798196 599 146 494.29063447 146 333 c 0
 146 266.999999998 159.333333333 212.333333331 186 169 c 1
 506 543 l 1
 467.333333332 580.333333334 419.666666667 599 363 599 c 0xd8
677 333 m 0
 677 126.443545711 550.996309121 -12 363 -12 c 0
 284.29360826 -12 213.983279923 12.9376534003 160 60 c 1
 103 -6 l 1
 65 27 l 1
 125 97 l 1
 76.3095276204 157.863090474 50 240.650404053 50 333 c 0
 50 540.84001623 175.524711585 680 363 680 c 0xd8
 441.831742309 680 510.12268882 656.098168721 563 610 c 1
 616 673 l 1xb8
 655 641 l 1
 599 574 l 1
 650.279574845 511.924725188 677 429.36546285 677 333 c 0
EndSplineSet
EndChar

StartChar: Thorn
Encoding: 222 222 180
Width: 576
GlyphClass: 1
Flags: W
HStem: 0 21G<76 160> 163 81<160 407.159> 447 81<160 401.26> 648 20G<76 160>
VStem: 76 84<0 163 244 447 528 668> 441 97<275.698 411.727>
LayerCount: 2
Fore
SplineSet
441 344 m 0
 441 418.995693382 401.576461558 447 296 447 c 2
 160 447 l 1
 160 244 l 1
 296 244 l 2
 404.395346976 244 441 269.244588293 441 344 c 0
538 345 m 0
 538 216.032472115 464.861810435 163 287 163 c 2
 160 163 l 1
 160 0 l 1
 76 0 l 1
 76 668 l 1
 160 668 l 1
 160 528 l 1
 287 528 l 2
 464.875631502 528 538 474.68621739 538 345 c 0
EndSplineSet
EndChar

StartChar: ae
Encoding: 230 230 181
Width: 874
GlyphClass: 1
Flags: W
HStem: -12 74<536.686 701.767> -12 66<158.345 319> 225 67<198.101 373 465 757> 436 68<185.751 335.588 536.395 682.649>
VStem: 38 93<79.4387 180.818> 373 92<292 367.009> 380 83<138.476 225>
AnchorPoint: "Anchor-0" 433 496 basechar 0
LayerCount: 2
Fore
SplineSet
131 133 m 0x7a
 131 84.7148608644 168.324387886 54 227 54 c 0
 328.496588876 54 380 106.176658328 380 209 c 2
 380 225 l 1
 303.999999998 225 243.499999998 218.166666667 198.5 204.5 c 0
 153.5 190.833333333 131 167 131 133 c 0x7a
757 292 m 1
 754.730162368 371.444317122 692.876857715 432 614 432 c 0
 526.105281488 432 472.143837789 381.297972364 465 292 c 1x3c
 757 292 l 1
417 88 m 1
 379.691419228 23.8292410711 305.1665978 -12 209 -12 c 0
 107.506633088 -12 38 46.1254300093 38 131 c 0
 38 236.423606636 153.640321596 292 373 292 c 1
 373 319 l 2x7c
 373 396.172581205 334.87460765 436 261 436 c 0
 201.869310656 436 161.892495405 408.016229324 151 359 c 1
 70 383 l 1
 96.1153929066 456.371818166 170.903447026 504 260 504 c 0
 346.666666666 504 404.333333333 477.333333333 433 424 c 1
 477.933548115 475.741661466 541.868039049 504 614 504 c 0
 757.188297622 504 856.961833981 383.494300241 845 225 c 1
 463 225 l 1
 466.588399842 150.839736597 497.509523625 98.6603402126 551 76.5 c 0
 574.333333333 66.8333333333 596.333333333 62 617 62 c 0
 667.219122448 62 706.477086228 78.5831053898 733 111 c 1
 814 87 l 1
 772.747881878 23.6485328854 701.810902298 -12 617 -12 c 0xba
 529.440769802 -12 459.367369451 23.0367001755 417 88 c 1
EndSplineSet
EndChar

StartChar: eth
Encoding: 240 240 182
Width: 567
GlyphClass: 1
Flags: W
HStem: -12 71<195.015 350.328> 371 74<196.164 352.634> 602 77<175 303.094>
VStem: 38 90<126.801 300.733> 419 98<149.891 382.137>
DStem2: 247 510 283 474 0.707107 0.707107<0 93.3381 183.848 240.416>
LayerCount: 2
Fore
SplineSet
128 215 m 0
 128 121.087296663 185.709346257 59 273 59 c 0
 361.242707645 59 419 120.713271284 419 215 c 0
 419 309.286728716 361.242707645 371 273 371 c 0
 185.709346257 371 128 308.912703338 128 215 c 0
517 303 m 0
 517 97.0070971608 432.562756485 -12 273 -12 c 0
 137.504843519 -12 38 85.387719189 38 218 c 0
 38 350.612532415 127.813625544 445 254 445 c 0
 333.58148694 445 395.267333082 412.404638118 430 352 c 1
 424.900656983 439.963667045 400.723280065 503.674322437 356 547 c 1
 283 474 l 1
 247 510 l 1
 313 576 l 1
 279.016424584 593.621113178 234.543871454 602 175 602 c 1
 175 679 l 1
 257.763494223 679 321.016809546 664.477555156 371 634 c 1
 417 680 l 1
 453 644 l 1
 413 604 l 1
 478.690021451 545.608869821 517 434.730951136 517 303 c 0
EndSplineSet
EndChar

StartChar: thorn
Encoding: 254 254 183
Width: 566
GlyphClass: 1
Flags: W
HStem: -161 21G<70 154> -12 72<222.127 366.408> 433 72<222.07 366.559> 649 20G<70 154>
VStem: 70 84<-161 75 132.781 359.975 418 669> 434 94<136.246 356.493>
LayerCount: 2
Fore
SplineSet
293 433 m 0
 205.210908564 433 152 362.429504245 152 246 c 0
 152 130.529446602 205.465870811 60 293 60 c 0
 380.534129189 60 434 130.529446602 434 246 c 0
 434 362.429504245 380.789091436 433 293 433 c 0
315 -12 m 0
 243.303776719 -12 187.535330245 18.135744368 154 75 c 1
 154 -161 l 1
 70 -161 l 1
 70 669 l 1
 154 669 l 1
 154 418 l 1
 187.535330245 474.864255632 243.303776719 505 315 505 c 0
 440.416907288 505 528 398.502248768 528 246 c 0
 528 94.8181294915 439.812939606 -12 315 -12 c 0
EndSplineSet
EndChar

StartChar: multiply
Encoding: 215 215 184
Width: 528
GlyphClass: 1
Flags: W
HStem: 193 115<206.5 321.5>
DStem2: 110 462 53 404 0.707107 -0.707107<0.707107 217.789 299.813 516.188> 53 97 110 39 0.707107 0.707107<0 217.082 298.399 515.481>
LayerCount: 2
Fore
SplineSet
110 39 m 1
 53 97 l 1
 207 250 l 1
 53 404 l 1
 110 462 l 1
 264 308 l 1
 418 462 l 1
 475 404 l 1
 322 250 l 1
 475 97 l 1
 418 39 l 1
 264 193 l 1
 110 39 l 1
EndSplineSet
EndChar

StartChar: divide
Encoding: 247 247 185
Width: 602
GlyphClass: 1
Flags: W
HStem: 14 129<252.861 348.493> 208 81<53 549> 354 129<252.727 348.624>
VStem: 236 129<30.7271 126.399 370.376 466.273>
CounterMasks: 1 e0
LayerCount: 2
Fore
SplineSet
365 79 m 0
 365 42.3763386785 337.060220378 14 301 14 c 0
 264.648278148 14 236 42.6482781478 236 79 c 0
 236 114.416934963 265.029675428 143 301 143 c 0
 336.686524397 143 365 114.686524397 365 79 c 0
53 208 m 1
 53 289 l 1
 549 289 l 1
 549 208 l 1
 53 208 l 1
365 418 m 0
 365 381.673333091 337.326666909 354 301 354 c 0
 264.376338678 354 236 381.939779622 236 418 c 0
 236 454.351721852 264.648278148 483 301 483 c 0
 337.060220378 483 365 454.623661322 365 418 c 0
EndSplineSet
EndChar

StartChar: OE
Encoding: 306 338 186
Width: 1052
GlyphClass: 1
Flags: W
HStem: -12 81<270.455 458.515> 0 81<655 1014> 304 81<655 920> 588 81<655 1014> 602 78<270.247 458.536>
VStem: 50 96<208.455 461.682> 581 74<207.071 304 385 462.576>
LayerCount: 2
Fore
SplineSet
146 335 m 0xae
 146 174.021070033 231.675083448 69 363 69 c 0
 495.145102488 69 581 173.364898352 581 334 c 0
 581 496.929488536 495.532195899 602 363 602 c 0
 231.345585204 602 146 496.989533413 146 335 c 0xae
581 75 m 1
 525.339823629 17.9483192203 450.296908801 -12 363 -12 c 0
 175.524711585 -12 50 127.15998377 50 335 c 0
 50 542.496654759 174.749411769 680 363 680 c 0xae
 450.102836929 680 525.195017637 651.409857804 581 597 c 1
 581 669 l 1
 1014 669 l 1
 1014 588 l 1
 655 588 l 1
 655 385 l 1
 920 385 l 1
 920 304 l 1
 655 304 l 1
 655 81 l 1
 1014 81 l 1
 1014 0 l 1
 581 0 l 1x76
 581 75 l 1
EndSplineSet
EndChar

StartChar: oe
Encoding: 307 339 187
Width: 927
GlyphClass: 1
Flags: W
HStem: -12 74<201.828 350.366 588.903 753.873> 225 67<517 809> 431 74<201.774 349.219 579.93 743.949>
VStem: 38 89<147.01 347.404> 424 92<143.615 225 292 347.999>
LayerCount: 2
Fore
SplineSet
127 246 m 0
 127 137.163980291 187.86648404 62 276 62 c 0
 364.145512623 62 424 136.413687009 424 246 c 0
 424 356.588272346 364.470617877 431 276 431 c 0
 187.537596876 431 127 355.83586965 127 246 c 0
809 292 m 1
 806.733167601 373.605966347 746.496665385 433 666 433 c 0
 579.753266744 433 524.064065866 380.30082333 517 292 c 1
 809 292 l 1
470 88 m 1
 428.219957388 25.3299360809 355.799881391 -12 276 -12 c 0
 133.896399113 -12 38 91.9549200466 38 246 c 0
 38 400.533252144 133.996471003 505 276 505 c 0
 357.423481303 505 429.304766658 467.769180406 471 404 c 1
 513.904367738 468.356551605 584.651619589 505 666 505 c 0
 809.897438253 505 910.012904804 384.170988646 898 225 c 1
 516 225 l 1
 519.172562657 126.650557616 579.856828395 62 669 62 c 0
 719.886287749 62 758.124727069 78.1524441956 785 111 c 1
 866 87 l 1
 824.423170203 23.1498685269 754.478482326 -12 669 -12 c 0
 582.407380828 -12 512.212846525 23.2736353282 470 88 c 1
EndSplineSet
EndChar

StartChar: Aring
Encoding: 197 197 191
Width: 626
GlyphClass: 2
Flags: W
HStem: 0 21G<10 116.986 509.014 616> 146 81<190 436> 574 104<261 365> 780 58<271.161 355.087>
VStem: 204 57<687.89 769.812> 365 57<687.443 770.048>
DStem2: 10 0 110 0 0.351277 0.936272<35.1277 189.738 275.763 275.763> 377.011 639.535 313 574 0.350049 -0.936731<38.9822 407.084>
AnchorPoint: "Anchor-2" 615 0 basechar 0
AnchorPoint: "Anchor-1" 313 0 basechar 0
AnchorPoint: "Anchor-0" 313 788 basechar 0
LayerCount: 2
Fore
SplineSet
422 729 m 0
 422 693.34800768 405.59849009 660.732391091 377.010682896 639.53541257 c 1
 616 0 l 1
 516 0 l 1
 465 146 l 1
 161 146 l 1
 110 0 l 1
 10 0 l 1
 250.376862955 640.685742297 l 1
 221.172021802 661.809366694 204 694.50960259 204 729 c 0
 204 789.027450719 253.871128167 838 315 838 c 0
 375.048030313 838 422 790.170423403 422 729 c 0
190 227 m 1
 436 227 l 1
 313 574 l 1
 190 227 l 1
261 729 m 0
 261 700.342977221 283.781074814 678 313 678 c 0
 342.218925186 678 365 700.342977222 365 729 c 0
 365 757.657022779 342.218925186 780 313 780 c 0
 283.781074814 780 261 757.657022778 261 729 c 0
EndSplineSet
EndChar

StartChar: Ccedilla
Encoding: 199 199 202
Width: 656
GlyphClass: 2
Flags: W
HStem: -181 41<267.361 377.573> -11.813 78.813<365.319 457.04> 499 21G<516.03 586.667> 601 79<267.145 453.105>
VStem: 50 96<206.812 461.973> 382 62<-134.115 -83.1108>
AnchorPoint: "Anchor-1" 352 -181 basechar 0
AnchorPoint: "Anchor-0" 353 668 basechar 0
LayerCount: 2
Fore
SplineSet
444 -102 m 0
 444 -147.994140625 403.474609375 -181 347 -181 c 0
 322.37109375 -181 294.575195312 -174.682617188 259 -161 c 1
 273 -126 l 1
 295.666992188 -135.333007812 315 -140 331 -140 c 0
 360.815429688 -140 382 -125.876953125 382 -106 c 0
 382 -90.3876953125 368.482421875 -81 346 -81 c 0
 321.977539062 -81 306.124023438 -93.8486328125 294.5 -83 c 0
 286.48046875 -75.5146484375 284.537109375 -64.2841796875 290 -57 c 2
 318.980882032 -10.4032877137 l 1
 154.086628539 5.37822350497 50 137.033452321 50 335 c 0
 50 543.813476562 172.764648438 680 361 680 c 0
 476.291015625 680 569.612304688 624.301757812 614 529 c 1
 532 499 l 1
 500.060546875 564.330078125 436.787109375 601 356 601 c 0
 227.638671875 601 146 497.591796875 146 335 c 0
 146 171.680664062 229.197265625 67 359 67 c 0
 440.490234375 67 503.015625 103.032226562 536 169 c 1
 618 139 l 1
 572.691989372 45.8666573705 481.702652709 -8.2573798429 365.318574536 -11.8129949241 c 1
 345 -45 l 1
 401.3671875 -30.908203125 444 -55.455078125 444 -102 c 0
EndSplineSet
EndChar

StartChar: ccedilla
Encoding: 231 231 203
Width: 500
GlyphClass: 2
Flags: W
HStem: -181 41<189.361 299.573> 430 74<197.093 346.217>
VStem: 38 91<142.441 350.71> 304 62<-134.115 -83.1108>
AnchorPoint: "Anchor-1" 274 -181 basechar 0
AnchorPoint: "Anchor-0" 275 496 basechar 0
LayerCount: 2
Fore
SplineSet
366 -102 m 0
 366 -147.994140625 325.474609375 -181 269 -181 c 0
 244.37109375 -181 216.575195312 -174.682617188 181 -161 c 1
 195 -126 l 1
 217.666992188 -135.333007812 237 -140 253 -140 c 0
 282.815429688 -140 304 -125.876953125 304 -106 c 0
 304 -90.3876953125 290.482421875 -81 268 -81 c 0
 243.977539062 -81 228.124023438 -93.8486328125 216.5 -83 c 0
 208.48046875 -75.5146484375 206.537109375 -64.2841796875 212 -57 c 2
 240.902355073 -10.5295467458 l 1
 118.16015692 2.56451363727 38 102.06409498 38 246 c 0
 38 399.381835938 135.319335938 504 278 504 c 0
 358.514648438 504 428.404296875 462.140625 465 392 c 1
 388 364 l 1
 366.197265625 404.880859375 322.047851562 430 272 430 c 0
 184.609375 430 129 358.8359375 129 247 c 0
 129 136.014648438 186.2109375 62 272 62 c 0
 322.83984375 62 366.646484375 86.130859375 390 127 c 1
 467 99 l 1
 429.769966401 35.1763114599 362.994553839 -5.50378898311 287.640252844 -11.2875870214 c 1
 267 -45 l 1
 323.3671875 -30.908203125 366 -55.455078125 366 -102 c 0
EndSplineSet
EndChar

StartChar: Eth
Encoding: 208 208 248
Width: 712
GlyphClass: 2
Flags: W
HStem: 0 79<209 437.755> 303 80<20 115 209 349> 589 79<209 437.626>
VStem: 115 94<79 303 383 589> 566 96<201.678 467.33>
AnchorPoint: "Anchor-1" 376 0 basechar 0
AnchorPoint: "Anchor-0" 366 668 basechar 0
LayerCount: 2
Fore
SplineSet
566 335 m 0
 566 516.263163648 488.394950191 589 295 589 c 2
 209 589 l 1
 209 383 l 1
 349 383 l 1
 349 303 l 1
 209 303 l 1
 209 79 l 1
 295 79 l 2
 488.687739872 79 566 152.032983737 566 335 c 0
662 335 m 0
 662 108.524047454 543.757381133 0 297 0 c 2
 115 0 l 1
 115 303 l 1
 20 303 l 1
 20 383 l 1
 115 383 l 1
 115 668 l 1
 297 668 l 2
 543.695800126 668 662 560.067675183 662 335 c 0
EndSplineSet
EndChar

StartChar: one.tf
Encoding: 316 -1 250
Width: 639
GlyphClass: 1
Flags: W
HStem: 0 77<109 287 370 530> 504 67<109 245.287> 648 20G<302.248 370>
VStem: 287 83<77 504> 314 56<628.536 668>
LayerCount: 2
Fore
SplineSet
109 571 m 1xf0
 230.966510981 571 290.496307377 599.167757319 314 668 c 1
 370 668 l 1xe8
 370 77 l 1
 530 77 l 1
 530 0 l 1
 109 0 l 1
 109 77 l 1
 287 77 l 1
 287 504 l 1
 109 504 l 1
 109 571 l 1xf0
EndSplineSet
Substitution2: "'pnum' Proportional Numbers lookup 13 subtable" one
Substitution2: "'aalt' Access All Alternates lookup 0 subtable" one
EndChar

StartChar: Aogonek
Encoding: 327 260 261
Width: 626
GlyphClass: 2
Flags: W
HStem: -173 58<532.204 614.157> 0 21G<10 116.986> 146 81<190 436> 574 95<261 366>
VStem: 458 70<-108.851 -35.0635>
DStem2: 10 0 110 0 0.351277 0.936272<35.1277 189.738 275.763 643.857> 366 669 313 574 0.350049 -0.936731<70.4369 438.539 524.565 679.181>
AnchorPoint: "Anchor-2" 615 0 basechar 0
AnchorPoint: "Anchor-1" 313 0 basechar 0
AnchorPoint: "Anchor-0" 313 668 basechar 0
LayerCount: 2
Fore
SplineSet
190 227 m 1
 436 227 l 1
 313 574 l 1
 190 227 l 1
577 -115 m 0
 588.999999998 -115 601.666666665 -112.333333333 615 -107 c 1
 615 -161 l 1
 592.333333333 -169 571.333333333 -173 552 -173 c 0
 496.981099784 -173 458 -138.995210827 458 -91 c 0
 458 -47.998138692 489.913294495 -11.6967662041 538 0 c 1
 516 0 l 1
 465 146 l 1
 161 146 l 1
 110 0 l 1
 10 0 l 1
 261 669 l 1
 366 669 l 1
 616 0 l 1
 615 0 l 1
 554.885598554 -22.3955613236 528 -45.5728014561 528 -75 c 0
 528 -99.9098862326 546.485389365 -115 577 -115 c 0
EndSplineSet
EndChar

StartChar: aogonek
Encoding: 328 261 262
Width: 526
GlyphClass: 2
Flags: W
HStem: -173 58<392.204 474.157> -12 67<158.281 315.063> 239 67<242.515 373> 437 67<186.969 334.758>
VStem: 38 93<79.7216 179.191> 318 70<-108.851 -35.0635> 373 85<304.736 397.623> 380 78<119.455 239>
AnchorPoint: "Anchor-2" 475 0 basechar 0
AnchorPoint: "Anchor-1" 263 0 basechar 0
AnchorPoint: "Anchor-0" 263 496 basechar 0
LayerCount: 2
Fore
SplineSet
131 133 m 0xf9
 131 85.0487929902 167.983129834 55 227 55 c 0
 325.239721474 55 380 109.760278526 380 208 c 2
 380 239 l 1
 195.689945353 219.598941616 131 192.06025002 131 133 c 0xf9
437 -115 m 0
 448.999999999 -115 461.666666666 -112.333333333 475 -107 c 1
 475 -161 l 1
 452.333333333 -169 431.333333333 -173 412 -173 c 0
 356.981099784 -173 318 -138.995210827 318 -91 c 0xfc
 318 -47.998138692 349.913294495 -11.6967662041 398 0 c 1
 378 68 l 1
 346.301934176 14.6896165684 289.920119175 -12 209 -12 c 0
 107.506633088 -12 38 46.1254300093 38 131 c 0
 38 232.11928399 128.441674496 279.364934846 373 306 c 1xfa
 375.766956678 393.15913533 338.2846907 437 261 437 c 0
 201.869310656 437 161.892495405 409.016229324 151 360 c 1
 70 384 l 1
 96.1671422311 458.576355359 168.087912913 504 260 504 c 0
 396.637540164 504 458 441.707805924 458 303 c 2
 458 187 l 2xf9
 458 116.925352344 463.320892057 58.3955397164 475 0 c 1
 414.885598554 -22.3955613236 388 -45.5728014561 388 -75 c 0xfc
 388 -99.9098862326 406.485389365 -115 437 -115 c 0
EndSplineSet
EndChar

StartChar: Eogonek
Encoding: 333 280 267
Width: 567
GlyphClass: 2
Flags: W
HStem: -173 58<423.204 505.157> 0 81<170 429 459.184 529> 303 81<170 435> 587 81<170 529>
VStem: 76 94<81 303 384 587> 349 70<-108.851 -35.0635>
AnchorPoint: "Anchor-2" 506 0 basechar 0
AnchorPoint: "Anchor-1" 284 0 basechar 0
AnchorPoint: "Anchor-0" 304 668 basechar 0
LayerCount: 2
Fore
SplineSet
468 -115 m 0
 479.999999999 -115 492.666666666 -112.333333333 506 -107 c 1
 506 -161 l 1
 483.333333333 -169 462.333333333 -173 443 -173 c 0
 387.981099784 -173 349 -138.995210827 349 -91 c 0
 349 -47.998138692 380.913294495 -11.6967662041 429 0 c 1
 76 0 l 1
 76 668 l 1
 529 668 l 1
 529 587 l 1
 170 587 l 1
 170 384 l 1
 435 384 l 1
 435 303 l 1
 170 303 l 1
 170 81 l 1
 529 81 l 1
 529 0 l 1
 506 0 l 1
 445.885598554 -22.3955613236 419 -45.5728014561 419 -75 c 0
 419 -99.9098862326 437.485389365 -115 468 -115 c 0
EndSplineSet
EndChar

StartChar: eogonek
Encoding: 334 281 268
Width: 539
GlyphClass: 2
Flags: W
HStem: -173 58<281.204 363.157> 225 67<129 421> 432 72<196.489 355.189>
VStem: 38 90<140.627 225 292 356.925> 207 70<-108.851 -33.9913>
AnchorPoint: "Anchor-2" 365 0 basechar 0
AnchorPoint: "Anchor-1" 270 0 basechar 0
AnchorPoint: "Anchor-0" 281 496 basechar 0
LayerCount: 2
Fore
SplineSet
421 292 m 1
 421 370.21018 358.327468286 432 279 432 c 0
 191.113680674 432 136.091691473 380.646143412 129 292 c 1
 421 292 l 1
326 -115 m 0
 337.999999999 -115 350.666666666 -112.333333333 364 -107 c 1
 364 -161 l 1
 341.333333333 -169 320.333333333 -173 301 -173 c 0
 245.981099784 -173 207 -138.995210827 207 -91 c 0
 207 -58.5237425469 226.285157192 -27.9416795844 257.342808373 -11.1672602369 c 1
 124.892122972 -1.60859328473 38 100.663742381 38 247 c 0
 38 398.617419217 136.821797544 504 279 504 c 0
 421.997487203 504 521.945893833 383.28309329 510 225 c 1
 128 225 l 1
 131.172562657 126.650557616 191.856828395 62 281 62 c 0
 332.557718763 62 372.015951291 78.6677016714 397 111 c 1
 478 87 l 1
 422.863165828 -0.810513682047 333.246459411 1.80886422921 295 -37.5 c 0
 283 -49.8333333333 277 -62.3333333333 277 -75 c 0
 277 -99.9098862326 295.485389365 -115 326 -115 c 0
EndSplineSet
EndChar

StartChar: Iogonek
Encoding: 341 302 275
Width: 414
GlyphClass: 2
Flags: W
HStem: -173 58<190.204 272.157> 0 74<66 160 254.459 348> 594 74<66 160 254 348>
VStem: 116 70<-108.851 -35.0635> 160 94<74 594>
AnchorPoint: "Anchor-2" 273 0 basechar 0
AnchorPoint: "Anchor-1" 207 0 basechar 0
AnchorPoint: "Anchor-0" 207 668 basechar 0
LayerCount: 2
Fore
SplineSet
235 -115 m 0xf0
 246.999999999 -115 259.666666666 -112.333333333 273 -107 c 1
 273 -161 l 1
 250.333333333 -169 229.333333333 -173 210 -173 c 0
 154.981099784 -173 116 -138.995210827 116 -91 c 0xf0
 116 -47.998138692 147.913294495 -11.6967662041 196 0 c 1
 66 0 l 1
 66 74 l 1
 160 74 l 1
 160 594 l 1
 66 594 l 1
 66 668 l 1
 348 668 l 1
 348 594 l 1
 254 594 l 1
 254 74 l 1xe8
 348 74 l 1
 348 0 l 1
 273 0 l 1
 212.885598554 -22.3955613236 186 -45.5728014561 186 -75 c 0
 186 -99.9098862326 204.485389365 -115 235 -115 c 0xf0
EndSplineSet
EndChar

StartChar: iogonek
Encoding: 342 303 276
Width: 278
GlyphClass: 1
Flags: W
HStem: -173 58<115.204 197.157> 429 67<45 114> 590 125<109.173 203.712>
VStem: 41 70<-108.851 -35.0635> 94 125<605.417 699.918> 114 84<0 429>
LayerCount: 2
Fore
SplineSet
219 653 m 0xe8
 219 617.984736205 191.015263795 590 156 590 c 0
 121.918069704 590 94 618.368361151 94 653 c 0
 94 687.350063519 121.649936481 715 156 715 c 0
 191.285808629 715 219 687.725716429 219 653 c 0xe8
160 -115 m 0
 171.999999998 -115 184.666666665 -112.333333333 198 -107 c 1
 198 -161 l 1
 175.333333333 -169 154.333333333 -173 135 -173 c 0
 79.9810997837 -173 41 -138.995210827 41 -91 c 0
 41 -47.9981386916 72.9132944945 -11.6967662041 121 0 c 1
 114 0 l 1
 114 429 l 1
 45 429 l 1
 45 496 l 1
 198 496 l 1
 198 0 l 1
 137.885598554 -22.3955613236 111 -45.5728014561 111 -75 c 0xf4
 111 -99.9098862326 129.485389365 -115 160 -115 c 0
EndSplineSet
EndChar

StartChar: Uogonek
Encoding: 355 370 289
Width: 690
GlyphClass: 2
Flags: W
HStem: -173 58<344.204 426.157> -11.4266 80.4266<247.721 319.866> 648 20G<76 170 520 614>
VStem: 76 94<153.526 668> 270 70<-108.851 -34.2327> 520 94<154.727 668>
AnchorPoint: "Anchor-2" 427 0 basechar 0
AnchorPoint: "Anchor-1" 345 0 basechar 0
AnchorPoint: "Anchor-0" 345 668 basechar 0
LayerCount: 2
Fore
SplineSet
389 -115 m 0
 400.999999999 -115 413.666666666 -112.333333333 427 -107 c 1
 427 -161 l 1
 404.333333333 -169 383.333333333 -173 364 -173 c 0
 308.981099784 -173 270 -138.995210827 270 -91 c 0
 270 -58.7035511535 289.080257664 -28.2560682977 319.86558034 -11.4265776053 c 1
 151.622910706 -3.54404536899 76 86.5174676756 76 279 c 2
 76 668 l 1
 170 668 l 1
 170 272 l 2
 170 131.923923958 224.244762033 69 345 69 c 0
 465.755237967 69 520 131.923923958 520 272 c 2
 520 668 l 1
 614 668 l 1
 614 279 l 2
 614 99.715588195 548.977501356 9.85131171242 406.065753103 -8.37530920914 c 1
 361.397386629 -27.6809407933 340 -49.25935625 340 -75 c 0
 340 -99.9098862326 358.485389365 -115 389 -115 c 0
EndSplineSet
EndChar

StartChar: uogonek
Encoding: 356 371 290
Width: 536
GlyphClass: 1
Flags: W
HStem: -173 58<383.204 465.157> -12 74<188.525 321.236> 477 20G<68 152 382 466>
VStem: 68 84<100.977 497> 309 70<-108.851 -35.1747> 382 84<121.032 497>
LayerCount: 2
Fore
SplineSet
428 -115 m 0
 439.999999999 -115 452.666666666 -112.333333333 466 -107 c 1
 466 -161 l 1
 443.333333333 -169 422.333333333 -173 403 -173 c 0
 347.981099784 -173 309 -138.995210827 309 -91 c 0
 309 -44.2203065982 340.610403914 -12.8071816501 402.454280799 1.8710372591 c 1
 382 72 l 1
 368 48 349 28 325 12 c 0
 301 -3.99999999992 268.333333333 -12 227 -12 c 0
 121.863583973 -12 68 53.0428183827 68 180 c 2
 68 497 l 1
 152 497 l 1
 152 200 l 2
 152 103.070176761 182.951437559 62 256 62 c 0
 336.52261424 62 382 120.470924549 382 224 c 2
 382 497 l 1
 466 497 l 1
 466 0 l 1
 405.885598554 -22.3955613236 379 -45.5728014561 379 -75 c 0
 379 -99.9098862326 397.485389365 -115 428 -115 c 0
EndSplineSet
EndChar

StartChar: Hbar
Encoding: 365 294 299
Width: 710
GlyphClass: 2
Flags: W
HStem: 0 21G<86 180 530 624> 303 81<180 530> 504 77<10 86 180 530 624 700> 648 20G<86 180 530 624>
VStem: 86 94<0 303 384 504 581 668> 530 94<0 303 384 504 581 668>
AnchorPoint: "Anchor-1" 355 0 basechar 0
AnchorPoint: "Anchor-0" 355 668 basechar 0
LayerCount: 2
Fore
SplineSet
180 384 m 1
 530 384 l 1
 530 504 l 1
 180 504 l 1
 180 384 l 1
86 0 m 1
 86 504 l 1
 10 504 l 1
 10 581 l 1
 86 581 l 1
 86 668 l 1
 180 668 l 1
 180 581 l 1
 530 581 l 1
 530 668 l 1
 624 668 l 1
 624 581 l 1
 700 581 l 1
 700 504 l 1
 624 504 l 1
 624 0 l 1
 530 0 l 1
 530 303 l 1
 180 303 l 1
 180 0 l 1
 86 0 l 1
EndSplineSet
EndChar

StartChar: hbar
Encoding: 366 295 300
Width: 581
GlyphClass: 1
Flags: W
HStem: 0 21G<105 189 429 513> 432 72<253.193 393.106> 548 67<20 105 189 349> 648 20G<105 189>
VStem: 105 84<0 369.542 421 548 615 668> 429 84<0 393.016>
LayerCount: 2
Fore
SplineSet
320 432 m 0
 236.230763844 432 189 373.231950331 189 269 c 2
 189 0 l 1
 105 0 l 1
 105 548 l 1
 20 548 l 1
 20 615 l 1
 105 615 l 1
 105 668 l 1
 189 668 l 1
 189 615 l 1
 349 615 l 1
 349 548 l 1
 189 548 l 1
 189 421 l 1
 222.226774908 476.37795818 275.47408444 504 349 504 c 0
 409 504 451.333333333 486.5 476 451.5 c 0
 500.666666667 416.5 513 370.666666667 513 314 c 2
 513 0 l 1
 429 0 l 1
 429 289 l 2
 429 392.167243024 398.637968459 432 320 432 c 0
EndSplineSet
EndChar

StartChar: dcroat
Encoding: 385 273 319
Width: 603
GlyphClass: 1
Flags: W
HStem: -12 72<200.324 344.747> 0 21G<428.133 513> 432 72<199.486 345.947> 548 67<249 412 496 578> 648 20G<412 496>
VStem: 38 94<136.016 355.891> 412 84<132.781 359.499 418 548 615 668>
LayerCount: 2
Fore
SplineSet
273 432 m 0xbe
 184.979070851 432 132 362.112715047 132 246 c 0
 132 187.333333333 144.833333333 141.666666667 170.5 109 c 0
 196.166666667 76.333333333 230.333333333 60 273 60 c 0
 360.534129189 60 414 130.529446602 414 246 c 0
 414 362.112715047 361.020929149 432 273 432 c 0xbe
412 75 m 1
 380.625637012 17.9557036576 325.190369324 -12 251 -12 c 0xbe
 126.20152692 -12 38 94.8356523258 38 246 c 0
 38 397.164347674 126.20152692 504 251 504 c 0
 324.557921681 504 380.276364755 474.237353389 412 418 c 1
 412 548 l 1
 249 548 l 1
 249 615 l 1
 412 615 l 1
 412 668 l 1
 496 668 l 1
 496 615 l 1
 578 615 l 1
 578 548 l 1
 496 548 l 1
 496 187 l 2
 496 112.483589691 500.580598282 62.0970085849 513 0 c 1
 434 0 l 1x7e
 412 75 l 1
EndSplineSet
EndChar

StartChar: Scedilla
Encoding: 393 350 327
Width: 596
GlyphClass: 2
Flags: W
HStem: -181 41<217.361 327.573> -11.5195 78.5195<315.498 393.963> 601 79<197.406 381.666>
VStem: 46 97<442.017 553.071> 332 62<-134.115 -83.1108> 457 99<121.399 241.096>
DStem2: 286 392 238 313 0.975916 -0.218146<-126.854 168.178>
AnchorPoint: "Anchor-1" 302 -181 basechar 0
AnchorPoint: "Anchor-0" 298 668 basechar 0
LayerCount: 2
Fore
SplineSet
394 -102 m 0
 394 -147.994140625 353.474609375 -181 297 -181 c 0
 272.37109375 -181 244.575195312 -174.682617188 209 -161 c 1
 223 -126 l 1
 245.666992188 -135.333007812 265 -140 281 -140 c 0
 310.815429688 -140 332 -125.876953125 332 -106 c 0
 332 -90.3876953125 318.482421875 -81 296 -81 c 0
 271.977539062 -81 256.124023438 -93.8486328125 244.5 -83 c 0
 236.48046875 -75.5146484375 234.537109375 -64.2841796875 240 -57 c 2
 268.602983228 -11.0108897121 l 1
 156.490786697 -2.81258789016 70.0526819512 55.8428583399 40 146 c 1
 127 172 l 1
 148.555664062 107.333984375 215.010742188 67 300 67 c 0
 393.782226562 67 457 114.916992188 457 186 c 0
 457 240.03515625 421.387695312 268.73828125 323 294 c 2
 238 313 l 1
 101.02734375 348.732421875 46 402.612304688 46 501 c 0
 46 603.6796875 150.4609375 680 291 680 c 0
 397.083984375 680 485.118164062 632.568359375 523 555 c 1
 437 530 l 1
 413.547851562 573.201171875 354.818359375 601 287 601 c 0
 202.046875 601 143 558.35546875 143 497 c 0
 143 442.947265625 178.645507812 416.774414062 286 392 c 2
 359 376 l 2
 497.393554688 343.436523438 556 285.72265625 556 182 c 0
 556 75.8240749584 454.47156193 -4.62066546241 315.498278911 -11.5194777789 c 1
 295 -45 l 1
 351.3671875 -30.908203125 394 -55.455078125 394 -102 c 0
EndSplineSet
Substitution2: "'locl' Localized Forms in Latin lookup 8 subtable" uni0218
Substitution2: "'aalt' Access All Alternates lookup 0 subtable" uni0218
EndChar

StartChar: scedilla
Encoding: 394 351 328
Width: 471
GlyphClass: 2
Flags: W
HStem: -181 41<149.361 259.573> -11.8936 70.8936<247.269 320.432> 434 71<150.377 305.651>
VStem: 41 85<325.462 410.053> 264 62<-134.115 -83.1108> 356 85<90.7868 182.837>
DStem2: 218 299 177 231 0.980031 -0.198847<-87.3861 145.018>
AnchorPoint: "Anchor-1" 234 -181 basechar 0
AnchorPoint: "Anchor-0" 240 496 basechar 0
LayerCount: 2
Fore
SplineSet
326 -102 m 0
 326 -147.994140625 285.474609375 -181 229 -181 c 0
 204.37109375 -181 176.575195312 -174.682617188 141 -161 c 1
 155 -126 l 1
 177.666992188 -135.333007812 197 -140 213 -140 c 0
 242.815429688 -140 264 -125.876953125 264 -106 c 0
 264 -90.3876953125 250.482421875 -81 228 -81 c 0
 203.977539062 -81 188.124023438 -93.8486328125 176.5 -83 c 0
 168.48046875 -75.5146484375 166.537109375 -64.2841796875 172 -57 c 2
 201.507009898 -9.5573566353 l 1
 121.56947474 1.0636240686 57.8385126573 45.6933855775 31 112 c 1
 112 142 l 1
 124.822265625 90.7119140625 173.345703125 59 239 59 c 0
 304.622070312 59 356 91.4951171875 356 133 c 0
 356 177.89453125 325.65234375 201.069335938 246 217 c 2
 177 231 l 2
 81.54296875 252.212890625 41 292.755859375 41 367 c 0
 41 446.548828125 121.899414062 505 232 505 c 0
 321.206054688 505 391.393554688 466.887695312 418 404 c 1
 339 375 l 1
 323.366210938 411.078125 279.465820312 434 226 434 c 0
 167.670898438 434 126 406.497070312 126 368 c 0
 126 332.145507812 152.197265625 312.498046875 218 299 c 2
 283 286 l 2
 395.171875 263.565429688 441 220.057617188 441 136 c 0
 441 52.755197178 359.423831832 -8.99726360681 247.269194504 -11.8936489766 c 1
 227 -45 l 1
 283.3671875 -30.908203125 326 -55.455078125 326 -102 c 0
EndSplineSet
Substitution2: "'locl' Localized Forms in Latin lookup 8 subtable" uni0219
Substitution2: "'aalt' Access All Alternates lookup 0 subtable" uni0219
EndChar

StartChar: uni0162
Encoding: 396 354 330
Width: 558
GlyphClass: 2
Flags: W
HStem: -181 41<198.361 308.573> 0 21G<303.551 326> 587 81<10 232 326 548>
VStem: 232 94<2.22045e-16 587> 313 62<-134.115 -83.1108>
AnchorPoint: "Anchor-1" 269 -250 basechar 0
AnchorPoint: "Anchor-0" 279 668 basechar 0
LayerCount: 2
Fore
SplineSet
375 -102 m 0xe8
 375 -147.994140625 334.474609375 -181 278 -181 c 0
 253.37109375 -181 225.575195312 -174.682617188 190 -161 c 1
 204 -126 l 1
 226.666992188 -135.333007812 246 -140 262 -140 c 0
 291.815429688 -140 313 -125.876953125 313 -106 c 0xe8
 313 -90.3876953125 299.482421875 -81 277 -81 c 0
 252.977539062 -81 237.124023438 -93.8486328125 225.5 -83 c 0
 217.48046875 -75.5146484375 215.537109375 -64.2841796875 221 -57 c 2
 256.451219512 -3.5527136788e-15 l 1
 232 0 l 1
 232 587 l 1
 10 587 l 1
 10 668 l 1
 548 668 l 1
 548 587 l 1
 326 587 l 1
 326 0 l 1xf0
 303.551020408 2.22044604925e-16 l 1
 276 -45 l 1
 332.3671875 -30.908203125 375 -55.455078125 375 -102 c 0xe8
EndSplineSet
Substitution2: "'locl' Localized Forms in Latin lookup 8 subtable" uni021A
Substitution2: "'aalt' Access All Alternates lookup 0 subtable" uni021A
EndChar

StartChar: acutecomb
Encoding: 398 769 332
Width: 162
GlyphClass: 4
Flags: W
HStem: 571 136<88.8671 94.8096>
VStem: 0 162
AnchorPoint: "Anchor-4" 81 707 basemark 0
AnchorPoint: "Anchor-4" 47 496 mark 0
AnchorPoint: "Anchor-0" 47 496 mark 0
LayerCount: 2
Fore
SplineSet
124 707 m 0
 146.175181272 707 162 691.175181272 162 669 c 0
 162 651.2593401 147.484328976 634.941723707 89.5 587.5 c 0
 78.5 578.5 72 573 70 571 c 2
 0 571 l 1
 50.5953322421 638.460442989 86.6304940304 684.630494031 96 694 c 0
 102.666666667 702.666666667 112 707 124 707 c 0
EndSplineSet
Substitution2: "'case' Case-Sensitive Forms lookup 15 subtable" acutecomb.case
Substitution2: "Single Substitution lookup 7 subtable" acutecomb.case
Substitution2: "Single Substitution lookup 6 subtable" acutecomb.case
Substitution2: "Single Substitution lookup 4 subtable" acutecomb.case
Substitution2: "Single Substitution lookup 3 subtable" acutecomb.case
Substitution2: "'aalt' Access All Alternates lookup 0 subtable" acutecomb.case
EndChar

StartChar: acutecomb.case
Encoding: 399 -1 333
Width: 0
GlyphClass: 4
Flags: W
HStem: 744 120
VStem: 0 172
AnchorPoint: "Anchor-4" 86 864 basemark 0
AnchorPoint: "Anchor-4" 58 668 mark 0
AnchorPoint: "Anchor-0" 58 668 mark 0
LayerCount: 2
Fore
SplineSet
136 864 m 0
 156.192664612 864 172 848.192664612 172 828 c 0
 172 805.811099097 158.796326518 793.37906887 95 755.5 c 0
 84.3333333648 749.166666686 78.0000000059 745.333333337 76 744 c 2
 0 744 l 1
 7.75020080887 751.750200809 90.9190272368 838.599189364 107 852 c 0
 116.333333333 860 126 864 136 864 c 0
EndSplineSet
EndChar

StartChar: uni0306
Encoding: 400 774 334
Width: 294
GlyphClass: 4
Flags: W
HStem: 569 67<92.1126 201.529>
VStem: 0 294
AnchorPoint: "Anchor-4" 147 689 basemark 0
AnchorPoint: "Anchor-4" 147 496 mark 0
AnchorPoint: "Anchor-0" 147 496 mark 0
LayerCount: 2
Fore
SplineSet
294 689 m 1
 280.363163793 619.452135343 218.559297998 569 147 569 c 0
 75.489924576 569 15.281414855 618.149803854 0 689 c 1
 69 689 l 1
 81.5958994458 656.810479194 112.22264241 636 147 636 c 0
 180.434190555 636 210.980916936 656.756108951 225 689 c 1
 294 689 l 1
EndSplineSet
Substitution2: "'case' Case-Sensitive Forms lookup 15 subtable" uni0306.case
Substitution2: "Single Substitution lookup 7 subtable" uni0306.case
Substitution2: "Single Substitution lookup 6 subtable" uni0306.case
Substitution2: "Single Substitution lookup 4 subtable" uni0306.case
Substitution2: "Single Substitution lookup 3 subtable" uni0306.case
Substitution2: "'aalt' Access All Alternates lookup 0 subtable" uni0306.case
EndChar

StartChar: uni030C
Encoding: 402 780 336
Width: 323
GlyphClass: 4
Flags: W
HStem: 569 120
VStem: 0 323
DStem2: 94 689 0 689 0.742634 -0.669697<0 90.608> 161 628 211 588 0.742634 0.669697<0 91.3507>
AnchorPoint: "Anchor-4" 162 689 basemark 0
AnchorPoint: "Anchor-4" 162 496 mark 0
AnchorPoint: "Anchor-0" 162 496 mark 0
LayerCount: 2
Fore
SplineSet
162 569 m 0
 141.999999999 569 125.333333333 575.333333333 112 588 c 2
 0 689 l 1
 94 689 l 1
 161 628 l 1
 229 689 l 1
 323 689 l 1
 211 588 l 2
 197.666666668 575.333333334 181.333333333 569 162 569 c 0
EndSplineSet
Substitution2: "'case' Case-Sensitive Forms lookup 15 subtable" uni030C.case
Substitution2: "Single Substitution lookup 7 subtable" uni030C.case
Substitution2: "Single Substitution lookup 6 subtable" uni030C.case
Substitution2: "Single Substitution lookup 4 subtable" uni030C.case
Substitution2: "Single Substitution lookup 3 subtable" uni030C.case
Substitution2: "'aalt' Access All Alternates lookup 0 subtable" uni030C.case
EndChar

StartChar: uni030C.alt
Encoding: 403 -1 337
Width: 0
GlyphClass: 1
Flags: W
HStem: 495 183<48.4132 69>
VStem: 46 74<575.156 674.792>
LayerCount: 2
Fore
SplineSet
82 678 m 0
 104.175181272 678 120 662.175181272 120 640 c 0
 120 631.068580342 115.048766407 623.170682424 111 609 c 2
 69 495 l 1
 20 495 l 1
 22.1096022429 505.548011214 38.3405250535 626.02157516 46 649 c 0
 50.3663520257 666.465408105 64.6851557578 678 82 678 c 0
EndSplineSet
EndChar

StartChar: uni0327
Encoding: 405 807 339
Width: 0
GlyphClass: 4
Flags: W
HStem: -181 41<8.36099 118.573>
VStem: 123 62<-134.115 -83.1107>
DStem2: 31 -57 86 -45 0.528136 0.84916<39.2374 96.566>
AnchorPoint: "Anchor-3" 93 -181 basemark 0
AnchorPoint: "Anchor-3" 89 0 mark 0
AnchorPoint: "Anchor-1" 89 0 mark 0
LayerCount: 2
Fore
SplineSet
185 -102 m 0
 185 -147.994400606 144.474137453 -181 88 -181 c 0
 63.3708771305 -181 35.575399704 -174.682846039 0 -161 c 1
 14 -126 l 1
 36.6666666674 -135.333333333 56.0000000005 -140 72 -140 c 0
 101.815052354 -140 123 -125.87670157 123 -106 c 0
 123 -90.3872733417 109.482326388 -81 87 -81 c 0
 62.9770851564 -81 47.1238741454 -93.8489492024 35.5 -83 c 0
 27.4803617101 -75.5150042627 25.536621415 -64.28450478 31 -57 c 2
 82 25 l 1
 116 4 l 1
 86 -45 l 1
 142.36680014 -30.9082999655 185 -55.4546877638 185 -102 c 0
EndSplineSet
EndChar

StartChar: uni0302
Encoding: 406 770 340
Width: 323
GlyphClass: 4
Flags: W
HStem: 575 120
VStem: 0 323
DStem2: 0 575 94 575 0.742634 0.669697<69.8076 160.416> 323 575 161 636 0.742634 -0.669697<-161.158 -69.8076>
AnchorPoint: "Anchor-4" 162 695 basemark 0
AnchorPoint: "Anchor-4" 162 496 mark 0
AnchorPoint: "Anchor-0" 162 496 mark 0
LayerCount: 2
Fore
SplineSet
0 575 m 1
 112 676 l 2
 125.333333333 688.666666667 141.999999999 695 162 695 c 0
 181.333333333 695 197.666666668 688.666666666 211 676 c 2
 323 575 l 1
 229 575 l 1
 161 636 l 1
 94 575 l 1
 0 575 l 1
EndSplineSet
Substitution2: "'case' Case-Sensitive Forms lookup 15 subtable" uni0302.case
Substitution2: "Single Substitution lookup 7 subtable" uni0302.case
Substitution2: "Single Substitution lookup 6 subtable" uni0302.case
Substitution2: "Single Substitution lookup 4 subtable" uni0302.case
Substitution2: "Single Substitution lookup 3 subtable" uni0302.case
Substitution2: "'aalt' Access All Alternates lookup 0 subtable" uni0302.case
EndChar

StartChar: uni0302.case
Encoding: 407 -1 341
Width: 0
GlyphClass: 4
Flags: W
HStem: 747 120
VStem: 0 323
DStem2: 0 747 94 747 0.742634 0.669697<69.8076 160.416> 323 747 161 808 0.742634 -0.669697<-161.158 -69.8076>
AnchorPoint: "Anchor-4" 162 867 basemark 0
AnchorPoint: "Anchor-4" 162 668 mark 0
AnchorPoint: "Anchor-0" 162 668 mark 0
LayerCount: 2
Fore
SplineSet
0 747 m 1
 112 848 l 2
 125.333333333 860.666666667 141.999999999 867 162 867 c 0
 181.333333333 867 197.666666668 860.666666666 211 848 c 2
 323 747 l 1
 229 747 l 1
 161 808 l 1
 94 747 l 1
 0 747 l 1
EndSplineSet
EndChar

StartChar: uni0326
Encoding: 408 806 342
Width: 0
GlyphClass: 4
Flags: W
HStem: -250 34<40 68.2272>
VStem: 94 66<-195.898 -98.1676>
AnchorPoint: "Anchor-3" 80 -250 basemark 0
AnchorPoint: "Anchor-3" 90 0 mark 0
AnchorPoint: "Anchor-1" 90 0 mark 0
LayerCount: 2
Fore
SplineSet
104 -56 m 1
 139.93214763 -75.1638120701 160 -106.340654144 160 -143 c 0
 160 -206.281059339 110.969412342 -250 40 -250 c 1
 0 -216 l 1
 60.6449293918 -216 94 -191.515958809 94 -147 c 0
 94 -115.856496442 77.0309886223 -93.7967816508 44 -82 c 1
 104 -56 l 1
EndSplineSet
EndChar

StartChar: uni0308
Encoding: 409 776 343
Width: 319
GlyphClass: 4
Flags: W
HStem: 590 107<10.7804 97.41 222.503 308.41>
VStem: 0 108<601.373 686.497> 212 107<600.702 686.574>
AnchorPoint: "Anchor-4" 160 697 basemark 0
AnchorPoint: "Anchor-4" 160 496 mark 0
AnchorPoint: "Anchor-0" 160 496 mark 0
LayerCount: 2
Fore
SplineSet
319 644 m 0
 319 613.707428502 295.292571498 590 265 590 c 0
 235.640977983 590 212 614.087034171 212 644 c 0
 212 673.620828901 235.379171099 697 265 697 c 0
 295.557142186 697 319 673.991269182 319 644 c 0
108 644 m 0
 108 613.707428502 84.2925714979 590 54 590 c 0
 24.3553160648 590 0 614.355316065 0 644 c 0
 0 673.359022017 24.0870341712 697 54 697 c 0
 84.5571421856 697 108 673.991269182 108 644 c 0
EndSplineSet
Substitution2: "'case' Case-Sensitive Forms lookup 15 subtable" uni0308.case
Substitution2: "Single Substitution lookup 7 subtable" uni0308.case
Substitution2: "Single Substitution lookup 6 subtable" uni0308.case
Substitution2: "Single Substitution lookup 4 subtable" uni0308.case
Substitution2: "Single Substitution lookup 3 subtable" uni0308.case
Substitution2: "'aalt' Access All Alternates lookup 0 subtable" uni0308.case
EndChar

StartChar: uni0307
Encoding: 411 775 345
Width: 108
GlyphClass: 4
Flags: W
HStem: 590 108<11.3726 97.41>
VStem: 0 108<601.373 687.41>
AnchorPoint: "Anchor-4" 54 698 basemark 0
AnchorPoint: "Anchor-4" 54 496 mark 0
AnchorPoint: "Anchor-0" 54 496 mark 0
LayerCount: 2
Fore
SplineSet
108 644 m 0
 108 613.707428502 84.2925714979 590 54 590 c 0
 24.3553160648 590 0 614.355316065 0 644 c 0
 0 674.292571497 23.7074285027 698 54 698 c 0
 84.9314879112 698 108 674.931487911 108 644 c 0
EndSplineSet
Substitution2: "'case' Case-Sensitive Forms lookup 15 subtable" uni0307.case
Substitution2: "Single Substitution lookup 7 subtable" uni0307.case
Substitution2: "Single Substitution lookup 6 subtable" uni0307.case
Substitution2: "Single Substitution lookup 4 subtable" uni0307.case
Substitution2: "Single Substitution lookup 3 subtable" uni0307.case
Substitution2: "'aalt' Access All Alternates lookup 0 subtable" uni0307.case
EndChar

StartChar: Euro
Encoding: 413 8364 347
Width: 664
GlyphClass: 1
Flags: W
HStem: -12 79<301.316 474.501> 240 51<43 100 197 343> 377 51<43 100 197 418> 500 21G<529.671 600.714> 601 79<296.749 471.817>
VStem: 106 91<183.437 240 428 488.741>
LayerCount: 2
Fore
SplineSet
626 139 m 1
 581.483309503 42.110732447 493.329401013 -12 380 -12 c 0
 236.141496849 -12 135.343940744 80.7043216731 106 240 c 1
 15 240 l 1
 43 291 l 1
 100 291 l 1
 100 377 l 1
 15 377 l 1
 43 428 l 1
 106 428 l 1
 135.949716964 585.916689446 240.860075161 680 387 680 c 0
 492.911938433 680 579.497356438 624.233120607 623 528 c 1
 545 500 l 1
 514.341019566 565.697815215 457.368186694 601 382 601 c 0
 289.699049875 601 221.392444369 537.124093229 197 428 c 1
 446 428 l 1
 418 377 l 1
 189 377 l 1
 189 291 l 1
 371 291 l 1
 343 240 l 1
 197 240 l 1
 223.731177385 130.402172723 292.630648321 67 385 67 c 0
 459.785601023 67 517.237775627 102.031813783 549 167 c 1
 626 139 l 1
EndSplineSet
EndChar

StartChar: uni2074
Encoding: 414 8308 348
Width: 412
GlyphClass: 1
Flags: W
HStem: 489 57<113 225 293 358>
VStem: 225 68<403 489 546 692>
DStem2: 40 543 113 546 0.618997 0.785394<47.5429 231.538>
LayerCount: 2
Fore
SplineSet
113 546 m 1
 225 546 l 1
 225 692 l 1
 113 546 l 1
225 403 m 1
 225 489 l 1
 40 489 l 1
 40 543 l 1
 226 779 l 1
 293 779 l 1
 293 546 l 1
 358 546 l 1
 358 489 l 1
 293 489 l 1
 293 403 l 1
 225 403 l 1
EndSplineSet
EndChar

StartChar: gravecomb
Encoding: 415 768 349
Width: 162
GlyphClass: 4
Flags: W
HStem: 571 136
VStem: 0 162
AnchorPoint: "Anchor-4" 81 707 basemark 0
AnchorPoint: "Anchor-4" 108 496 mark 0
AnchorPoint: "Anchor-0" 108 496 mark 0
LayerCount: 2
Fore
SplineSet
0 669 m 0
 0 690.528804758 16.4711952422 707 38 707 c 0
 51.1962771768 707 61.0367292892 702.238490913 69 692 c 2
 162 571 l 1
 92 571 l 1
 3.19866766432 645.780069335 0 649.18734576 0 669 c 0
EndSplineSet
Substitution2: "'case' Case-Sensitive Forms lookup 15 subtable" gravecomb.case
Substitution2: "Single Substitution lookup 7 subtable" gravecomb.case
Substitution2: "Single Substitution lookup 6 subtable" gravecomb.case
Substitution2: "Single Substitution lookup 4 subtable" gravecomb.case
Substitution2: "Single Substitution lookup 3 subtable" gravecomb.case
Substitution2: "'aalt' Access All Alternates lookup 0 subtable" gravecomb.case
EndChar

StartChar: gravecomb.case
Encoding: 416 -1 350
Width: 0
GlyphClass: 4
Flags: W
HStem: 744 120<61.1549 75.2812>
VStem: 0 173
AnchorPoint: "Anchor-4" 87 864 basemark 0
AnchorPoint: "Anchor-4" 122 668 mark 0
AnchorPoint: "Anchor-0" 122 668 mark 0
LayerCount: 2
Fore
SplineSet
0 828 m 0
 0 848.192664612 15.807335388 864 36 864 c 0
 49.544121278 864 59.1495857557 859.971901993 67 851 c 2
 173 744 l 1
 97 744 l 2
 96.1991110708 744.533925953 37.9896123157 778.896968199 16 796 c 0
 5.3333333335 805.333333333 0 816 0 828 c 0
EndSplineSet
EndChar

StartChar: uni030B
Encoding: 417 779 351
Width: 308
GlyphClass: 4
Flags: W
HStem: 572 136
VStem: 0 308
AnchorPoint: "Anchor-4" 154 708 basemark 0
AnchorPoint: "Anchor-4" 114 496 mark 0
AnchorPoint: "Anchor-0" 114 496 mark 0
LayerCount: 2
Fore
SplineSet
270 708 m 0
 290.238603557 708 308 690.238603557 308 670 c 0
 308 657.693822009 304.703867523 649.60331502 297 643 c 2
 216 572 l 1
 146 572 l 1
 242 695 l 2
 248.666666667 703.666666667 258 708 270 708 c 0
124 708 m 0
 145.528804758 708 162 691.528804758 162 670 c 0
 162 657.693822009 158.703867523 649.60331502 151 643 c 2
 70 572 l 1
 0 572 l 1
 96 695 l 2
 102.666666667 703.666666667 112 708 124 708 c 0
EndSplineSet
Substitution2: "'case' Case-Sensitive Forms lookup 15 subtable" uni030B.case
Substitution2: "Single Substitution lookup 7 subtable" uni030B.case
Substitution2: "Single Substitution lookup 6 subtable" uni030B.case
Substitution2: "Single Substitution lookup 4 subtable" uni030B.case
Substitution2: "Single Substitution lookup 3 subtable" uni030B.case
Substitution2: "'aalt' Access All Alternates lookup 0 subtable" uni030B.case
EndChar

StartChar: dotlessi
Encoding: 419 305 353
Width: 274
GlyphClass: 2
Flags: W
HStem: 0 21G<112 196> 429 67<43 112>
VStem: 112 84<0 429>
AnchorPoint: "Anchor-2" 248 10 basechar 0
AnchorPoint: "Anchor-1" 137 0 basechar 0
AnchorPoint: "Anchor-0" 132 496 basechar 0
LayerCount: 2
Fore
SplineSet
112 0 m 1
 112 429 l 1
 43 429 l 1
 43 496 l 1
 196 496 l 1
 196 0 l 1
 112 0 l 1
EndSplineSet
EndChar

StartChar: uni0304
Encoding: 420 772 354
Width: 276
GlyphClass: 4
Flags: W
HStem: 601 67<0 276>
VStem: 0 276<601 668>
AnchorPoint: "Anchor-4" 138 668 basemark 0
AnchorPoint: "Anchor-4" 138 496 mark 0
AnchorPoint: "Anchor-0" 138 496 mark 0
LayerCount: 2
Fore
SplineSet
0 601 m 1
 0 668 l 1
 276 668 l 1
 276 601 l 1
 0 601 l 1
EndSplineSet
Substitution2: "'case' Case-Sensitive Forms lookup 15 subtable" uni0304.case
Substitution2: "Single Substitution lookup 7 subtable" uni0304.case
Substitution2: "Single Substitution lookup 6 subtable" uni0304.case
Substitution2: "Single Substitution lookup 4 subtable" uni0304.case
Substitution2: "Single Substitution lookup 3 subtable" uni0304.case
Substitution2: "'aalt' Access All Alternates lookup 0 subtable" uni0304.case
EndChar

StartChar: mu
Encoding: 181 181 356
Width: 555
GlyphClass: 1
Flags: W
HStem: -162 21G<70 154> -11 72<190.481 329.173> 0 75<472.949 539.331> 476 20G<70 154 385 469>
VStem: 70 84<-162 21.2249 100.617 496> 385 84<125.031 496>
LayerCount: 2
Fore
SplineSet
139 24 m 1xdc
 151.471221819 -35.8618647279 154 -53.2261415722 154 -79 c 2
 154 -162 l 1
 70 -162 l 1
 70 496 l 1
 154 496 l 1
 154 198 l 2
 154 103.330381542 186.75197404 61 260 61 c 0xdc
 339.44883931 61 385 124.771624966 385 236 c 2
 385 496 l 1
 469 496 l 1
 469 122 l 2
 469 87.4596034666 479.86901579 75 510 75 c 0
 517.333333333 75 523.166666667 75.6666666667 527.5 77 c 0
 531.833333332 78.3333333331 535.999999999 79.3333333332 540 80 c 1
 540 7 l 1
 515.282880605 1.507306801 502.363108025 0 480 0 c 0xbc
 435.379531859 0 402.674296398 26.5275798739 390 73 c 1
 359.338785057 17.5178015325 308.074641826 -11 239 -11 c 0
 197.509427031 -11 163.717788151 0.827073608005 139 24 c 1xdc
EndSplineSet
EndChar

StartChar: uni0328
Encoding: 422 808 357
Width: 157
GlyphClass: 4
Flags: W
HStem: -173 58<74.2038 156.157> -20 20G<55.9566 157>
VStem: 0 70<-108.851 -35.0635>
AnchorPoint: "Anchor-2" 157 0 mark 0
LayerCount: 2
Fore
SplineSet
119 -115 m 0
 130.999999998 -115 143.666666665 -112.333333333 157 -107 c 1
 157 -161 l 1
 134.333333333 -169 113.333333333 -173 94 -173 c 0
 38.9810997837 -173 0 -138.995210827 0 -91 c 0
 0 -47.9981386916 31.9132944945 -11.6967662041 80 0 c 1
 157 0 l 1
 96.8855985536 -22.3955613235 70 -45.5728014559 70 -75 c 0
 70 -99.9098862325 88.4853893652 -115 119 -115 c 0
EndSplineSet
Substitution2: "'case' Case-Sensitive Forms lookup 15 subtable" uni0328.case
Substitution2: "Single Substitution lookup 7 subtable" uni0328.case
Substitution2: "Single Substitution lookup 6 subtable" uni0328.case
Substitution2: "Single Substitution lookup 4 subtable" uni0328.case
Substitution2: "Single Substitution lookup 3 subtable" uni0328.case
Substitution2: "'aalt' Access All Alternates lookup 0 subtable" uni0328.case
EndChar

StartChar: uni0328.case
Encoding: 423 -1 358
Width: 0
GlyphClass: 4
Flags: W
HStem: -173 58<74.1699 156.157> -20 20G<50.6667 157>
VStem: 0 70<-109.058 -32.5897>
AnchorPoint: "Anchor-2" 157 0 mark 0
LayerCount: 2
Fore
SplineSet
119 -115 m 0
 130.999999998 -115 143.666666665 -112.333333333 157 -107 c 1
 157 -161 l 1
 134.333333333 -169 113.333333333 -173 94 -173 c 0
 38.9810997837 -173 0 -138.995210827 0 -91 c 0
 0 -67 6.33333333333 -47.5 19 -32.5 c 0
 31.6666666668 -17.4999999999 44.3333333334 -6.66666666664 57 0 c 1
 157 0 l 1
 93.9504093927 -22.5177109312 70 -42.8893235181 70 -74 c 0
 70 -99.8649587411 88.0882200412 -115 119 -115 c 0
EndSplineSet
EndChar

StartChar: uni030A
Encoding: 424 778 359
Width: 218
GlyphClass: 4
Flags: W
HStem: 559 58<67.2257 151.087> 719 58<67.1609 151.087>
VStem: 0 57<627.25 708.812> 161 57<626.952 709.048>
AnchorPoint: "Anchor-4" 109 777 basemark 0
AnchorPoint: "Anchor-4" 109 496 mark 0
AnchorPoint: "Anchor-0" 109 496 mark 0
LayerCount: 2
Fore
SplineSet
57 668 m 0
 57 639.342977221 79.7810748136 617 109 617 c 0
 138.218925186 617 161 639.342977222 161 668 c 0
 161 696.657022779 138.218925186 719 109 719 c 0
 79.7810748143 719 57 696.657022778 57 668 c 0
218 668 m 0
 218 606.829576597 171.048030313 559 111 559 c 0
 50.1785531448 559 0 608.27443507 0 668 c 0
 0 728.027450719 49.8711281669 777 111 777 c 0
 171.048030313 777 218 729.170423403 218 668 c 0
EndSplineSet
Substitution2: "'case' Case-Sensitive Forms lookup 15 subtable" uni030A.case
Substitution2: "Single Substitution lookup 7 subtable" uni030A.case
Substitution2: "Single Substitution lookup 6 subtable" uni030A.case
Substitution2: "Single Substitution lookup 4 subtable" uni030A.case
Substitution2: "Single Substitution lookup 3 subtable" uni030A.case
Substitution2: "'aalt' Access All Alternates lookup 0 subtable" uni030A.case
EndChar

StartChar: uni00AD
Encoding: 173 173 362
Width: 348
GlyphClass: 1
Flags: W
HStem: 208 81<38 310>
VStem: 38 272<208 289>
LayerCount: 2
Fore
SplineSet
38 208 m 1
 38 289 l 1
 310 289 l 1
 310 208 l 1
 38 208 l 1
EndSplineSet
EndChar

StartChar: uni0163
Encoding: 427 355 363
Width: 324
GlyphClass: 2
Flags: W
HStem: -181 41<102.361 212.573> 0 74<207.655 284> 429 67<20 104 188 284>
VStem: 104 84<77.453 429 496 621> 217 62<-134.115 -83.1108>
DStem2: 163.537 4.96105 180 -45 0.528136 0.84916<-33.7301 0>
AnchorPoint: "Anchor-1" 173 -250 basechar 0
AnchorPoint: "Anchor-0" 162 496 basechar 0
LayerCount: 2
Fore
SplineSet
279 -102 m 0
 279 -147.994140625 238.474609375 -181 182 -181 c 0
 157.37109375 -181 129.575195312 -174.682617188 94 -161 c 1
 108 -126 l 1
 130.666992188 -135.333007812 150 -140 166 -140 c 0
 195.815429688 -140 217 -125.876953125 217 -106 c 0
 217 -90.3876953125 203.482421875 -81 181 -81 c 0
 156.977539062 -81 141.124023438 -93.8486328125 129.5 -83 c 0
 121.48046875 -75.5146484375 119.537109375 -64.2841796875 125 -57 c 2
 163.536752137 4.961052455 l 1
 116.451752301 15.987261213 104 47.8308816098 104 124 c 2
 104 429 l 1
 20 429 l 1
 20 496 l 1
 104 496 l 1
 104 621 l 1
 188 621 l 1
 188 496 l 1
 284 496 l 1
 284 429 l 1
 188 429 l 1
 188 138 l 2
 188 83.56640625 195.623046875 74 239 74 c 2
 284 74 l 1
 284 0 l 1
 221 0 l 2
 216.380854324 0 211.934473707 0.054513916875 207.654969151 0.169782947326 c 2
 180 -45 l 1
 236.3671875 -30.908203125 279 -55.455078125 279 -102 c 0
EndSplineSet
Substitution2: "'locl' Localized Forms in Latin lookup 8 subtable" uni021B
Substitution2: "'aalt' Access All Alternates lookup 0 subtable" uni021B
EndChar

StartChar: tildecomb
Encoding: 429 771 365
Width: 329
GlyphClass: 4
Flags: W
HStem: 575 63<169.551 263.637> 618 63<70.9214 167.799>
VStem: 0 65<577 611.459>
AnchorPoint: "Anchor-4" 165 681 basemark 0
AnchorPoint: "Anchor-4" 165 496 mark 0
AnchorPoint: "Anchor-0" 165 496 mark 0
LayerCount: 2
Fore
SplineSet
329 649 m 0xa0
 329 613.39388275 278.672883422 575 232 575 c 0xa0
 188.129814037 575 150.870185963 618 107 618 c 0
 82.3333333336 618 68.3333333333 604.333333333 65 577 c 1
 0 577 l 1
 11.3688707407 643.950016585 49.1313538368 681 106 681 c 0x60
 161.652082353 681 174.347917647 638 230 638 c 0
 268.791289695 638 259.208710305 680 298 680 c 0
 315.520291768 680 329 666.520291768 329 649 c 0xa0
EndSplineSet
Substitution2: "'case' Case-Sensitive Forms lookup 15 subtable" tildecomb.case
Substitution2: "Single Substitution lookup 7 subtable" tildecomb.case
Substitution2: "Single Substitution lookup 6 subtable" tildecomb.case
Substitution2: "Single Substitution lookup 4 subtable" tildecomb.case
Substitution2: "Single Substitution lookup 3 subtable" tildecomb.case
Substitution2: "'aalt' Access All Alternates lookup 0 subtable" tildecomb.case
EndChar

StartChar: zero.alt1
Encoding: 431 -1 367
Width: 648
Flags: W
HStem: -12 74<242.264 406.23> 606 74<241.691 406.209>
VStem: 60 91<192.862 490.056> 497 91<179.051 483.756>
DStem2: 168 190 213 107 0.571572 0.820552<0 419.499>
LayerCount: 2
Fore
SplineSet
497 335 m 0
 497 394.021484375 490.263671875 444.883789062 477 486 c 1
 213 107 l 1
 241 77 278 62 324 62 c 0
 438.12109375 62 497 154.913085938 497 335 c 0
151 335 m 0
 151 278.333007812 156.666992188 230 168 190 c 1
 431 566 l 1
 403 592.666992188 367.333007812 606 324 606 c 0
 209.501953125 606 151 514.357421875 151 335 c 0
60 335 m 0
 60 559.09765625 152.516601562 680 324 680 c 0
 495.483398438 680 588 559.09765625 588 335 c 0
 588 109.583007812 495.499023438 -12 324 -12 c 0
 152.500976562 -12 60 109.583007812 60 335 c 0
EndSplineSet
Substitution2: "'aalt' Access All Alternates lookup 0 subtable" zero
Substitution2: "'tnum' Tabular Numbers lookup 14 subtable" zero
Substitution2: "'zero' Slashed Zero lookup 0-1" zero
EndChar

StartChar: copyleft
Encoding: 432 127279 368
Width: 798
Flags: W
HStem: -12 62<295.298 502.702> 150 59<332.642 455.532> 473 58<337.969 456.805> 618 62<295.298 502.702>
VStem: 53 62<230.298 437.702> 495 76<251.344 431.004> 683 62<230.298 437.702>
LayerCount: 2
Fore
SplineSet
571 342 m 0
 571 220.462958525 507.142943836 150 397 150 c 0
 329.692723282 150 276.851398932 178.371180859 248 230 c 1
 314 254 l 1
 329.3231245 224.532452886 357.971870934 209 397 209 c 0
 458.878077636 209 495 258.022608922 495 342 c 0
 495 425.379362336 459.375400831 473 397 473 c 0
 361 473 334.333333333 456.666666667 317 424 c 1
 250 449 l 1
 278.109826365 502.260723638 328.929278469 531 395 531 c 0
 504.711304689 531 571 459.814980604 571 342 c 0
115 334 m 0
 115 176.331302459 241.331302459 50 399 50 c 0
 556.668697541 50 683 176.331302459 683 334 c 0
 683 491.668697541 556.668697541 618 399 618 c 0
 241.331302459 618 115 491.668697541 115 334 c 0
745 334 m 0
 745 142.800581292 590.199418708 -12 399 -12 c 0
 207.800581292 -12 53 142.800581292 53 334 c 0
 53 525.199418708 207.800581292 680 399 680 c 0
 590.199418708 680 745 525.199418708 745 334 c 0
EndSplineSet
EndChar

StartChar: fi
Encoding: 433 64257 369
Width: 527
Flags: W
HStem: 0 21G<99 183 363 447> 429 67<15 99 183 363> 590 125<358.173 452.712> 635 71<188.355 286>
VStem: 99 84<0 429 496 629.834> 343 125<605.417 699.918> 363 84<0 429>
LayerCount: 2
Fore
SplineSet
468 653 m 0xec
 468 617.984736205 440.015263795 590 405 590 c 0
 370.918069704 590 343 618.368361151 343 653 c 0
 343 687.350063519 370.649936481 715 405 715 c 0
 440.285808629 715 468 687.725716429 468 653 c 0xec
234 635 m 2xda
 193.107742963 635 183 622.315773537 183 571 c 2
 183 496 l 1
 447 496 l 1
 447 0 l 1
 363 0 l 1
 363 429 l 1
 183 429 l 1
 183 0 l 1
 99 0 l 1
 99 429 l 1
 15 429 l 1
 15 496 l 1
 99 496 l 1
 99 570 l 2
 99 677.747794635 126.628994953 706 232 706 c 2
 286 706 l 1
 286 635 l 1
 234 635 l 2xda
EndSplineSet
LCarets2: 1 286
Ligature2: "'liga' Standard Ligatures lookup 0-1" f i
EndChar

StartChar: f_f_i
Encoding: 434 64259 370
Width: 791
Flags: W
HStem: 0 21G<99 183 363 447 627 711> 429 67<15 99 183 363 447 627> 590 125<622.173 716.712> 635 71<188.355 286 452.355 550>
VStem: 99 84<0 429 496 629.834> 363 84<0 429 496 629.834> 607 125<605.417 699.918> 627 84<0 429>
LayerCount: 2
Fore
SplineSet
732 653 m 0xee
 732 617.984736205 704.015263795 590 669 590 c 0
 634.918069704 590 607 618.368361151 607 653 c 0
 607 687.350063519 634.649936481 715 669 715 c 0
 704.285808629 715 732 687.725716429 732 653 c 0xee
498 635 m 2xdd
 457.107742963 635 447 622.315773537 447 571 c 2
 447 496 l 1
 711 496 l 1
 711 0 l 1
 627 0 l 1
 627 429 l 1
 447 429 l 1
 447 0 l 1
 363 0 l 1
 363 429 l 1
 183 429 l 1
 183 0 l 1
 99 0 l 1
 99 429 l 1
 15 429 l 1
 15 496 l 1
 99 496 l 1
 99 570 l 2
 99 677.747794635 126.628994953 706 232 706 c 2
 286 706 l 1
 286 635 l 1
 234 635 l 2
 193.107742963 635 183 622.315773537 183 571 c 2
 183 496 l 1
 363 496 l 1
 363 570 l 2
 363 677.747794635 390.628994953 706 496 706 c 2
 550 706 l 1
 550 635 l 1
 498 635 l 2xdd
EndSplineSet
LCarets2: 2 288 550
Ligature2: "'liga' Standard Ligatures lookup 0-1" f f i
EndChar

StartChar: f_f_l
Encoding: 436 64260 372
Width: 814
Flags: W
HStem: 0 74<733.416 799> 429 67<15 99 183 363 447 550> 635 71<188.355 286 452.355 550> 647 20G<645 729>
VStem: 99 84<0 429 496 629.834> 363 84<0 429 496 629.834> 645 84<78.6045 667>
LayerCount: 2
Fore
SplineSet
498 635 m 2xee
 457.107742963 635 447 622.315773537 447 571 c 2
 447 496 l 1
 550 496 l 1
 550 429 l 1
 447 429 l 1
 447 0 l 1
 363 0 l 1
 363 429 l 1
 183 429 l 1
 183 0 l 1
 99 0 l 1
 99 429 l 1
 15 429 l 1
 15 496 l 1
 99 496 l 1
 99 570 l 2
 99 677.747794635 126.628994953 706 232 706 c 2
 286 706 l 1
 286 635 l 1
 234 635 l 2
 193.107742963 635 183 622.315773537 183 571 c 2
 183 496 l 1
 363 496 l 1
 363 570 l 2
 363 677.747794635 390.628994953 706 496 706 c 2
 550 706 l 1
 550 635 l 1
 498 635 l 2xee
729 138 m 2
 729 84.3579050214 737.253955564 74 780 74 c 2
 799 74 l 1
 799 0 l 1
 762 0 l 2
 666.833170365 0 645 23.1394284209 645 124 c 2
 645 667 l 1
 729 667 l 1xde
 729 138 l 2
EndSplineSet
LCarets2: 2 288 602
Ligature2: "'liga' Standard Ligatures lookup 0-1" f f l
EndChar

StartChar: f_f
Encoding: 437 64256 373
Width: 575
Flags: W
HStem: 0 21G<99 183 363 447> 429 67<15 99 183 363 447 550> 635 71<188.355 286 452.355 550>
VStem: 99 84<0 429 496 629.834> 363 84<0 429 496 629.834>
LayerCount: 2
Fore
SplineSet
498 635 m 2
 457.107742963 635 447 622.315773537 447 571 c 2
 447 496 l 1
 550 496 l 1
 550 429 l 1
 447 429 l 1
 447 0 l 1
 363 0 l 1
 363 429 l 1
 183 429 l 1
 183 0 l 1
 99 0 l 1
 99 429 l 1
 15 429 l 1
 15 496 l 1
 99 496 l 1
 99 570 l 2
 99 677.747794635 126.628994953 706 232 706 c 2
 286 706 l 1
 286 635 l 1
 234 635 l 2
 193.107742963 635 183 622.315773537 183 571 c 2
 183 496 l 1
 363 496 l 1
 363 570 l 2
 363 677.747794635 390.628994953 706 496 706 c 2
 550 706 l 1
 550 635 l 1
 498 635 l 2
EndSplineSet
Ligature2: "'liga' Standard Ligatures lookup 0-1" f f
LCarets2: 1 288
EndChar

StartChar: dong
Encoding: 438 8363 374
Width: 603
Flags: W
HStem: -129 67<50 553> -12 72<200.324 344.747> 0 21G<428.133 513> 432 72<199.486 345.947> 548 67<249 412 496 578> 648 20G<412 496>
VStem: 38 94<136.016 355.891> 412 84<132.781 359.499 418 548 615 668>
LayerCount: 2
Fore
SplineSet
50 -129 m 1x9f
 50 -62 l 1
 553 -62 l 1
 553 -129 l 1
 50 -129 l 1x9f
EndSplineSet
Refer: 319 273 N 1 0 0 1 0 0 2
EndChar

StartChar: uni0237
Encoding: 474 567 410
Width: 254
HStem: -161 74<-58 72.9763> 476 20G<90 174>
VStem: 90 84<-69.3666 496>
AnchorPoint: "Anchor-0" 134 496 basechar 0
LayerCount: 2
Fore
SplineSet
174 7 m 2
 174 -121.607907031 132.497616337 -161 -3 -161 c 1
 -58 -159 l 1
 -58 -86 l 1
 -11 -87 l 2
 73.1360068748 -87 90 -70.4699473327 90 12 c 2
 90 496 l 1
 174 496 l 1
 174 7 l 2
EndSplineSet
EndChar

StartChar: uni2010
Encoding: 489 8208 425
Width: 328
Flags: W
HStem: 208 81<38 290>
VStem: 38 252<208 289>
LayerCount: 2
Fore
SplineSet
38 208 m 1
 38 289 l 1
 290 289 l 1
 290 208 l 1
 38 208 l 1
EndSplineSet
EndChar

StartChar: Ldot
Encoding: 496 319 432
Width: 539
HStem: 0 81<170 529> 250 130<317.025 411.844> 648 20G<76 170>
VStem: 76 94<81 668> 300 129<267.44 362.975>
LayerCount: 2
Fore
SplineSet
429 316 m 0
 429 279.995726401 399.458754303 250 364 250 c 0
 329.468300682 250 300 280.389185078 300 316 c 0
 300 350.205899261 329.794100739 380 364 380 c 0
 399.128010222 380 429 350.587579296 429 316 c 0
EndSplineSet
Refer: 26 76 N 1 0 0 1 0 0 3
EndChar

StartChar: ldot
Encoding: 497 320 433
Width: 370
Flags: W
HStem: 0 74<158.416 224> 250 129<247.734 343.139> 647 20G<70 154>
VStem: 70 84<78.6045 667> 231 129<266.861 362.266>
LayerCount: 2
Fore
SplineSet
360 315 m 0
 360 278.648278148 331.351721852 250 295 250 c 0
 259.583065037 250 231 279.029675428 231 315 c 0
 231 350.038837261 259.961162739 379 295 379 c 0
 330.970324572 379 360 350.416934963 360 315 c 0
EndSplineSet
Refer: 52 108 N 1 0 0 1 0 0 2
EndChar

